<svg xmlns="http://www.w3.org/2000/svg" xmlns:xlink="http://www.w3.org/1999/xlink" width="100" zoomAndPan="magnify" viewBox="0 0 75 74.999997" height="100" preserveAspectRatio="xMidYMid meet" version="1.0"><defs><filter x="0%" y="0%" width="100%" height="100%" id="7c3f184b16"><feColorMatrix values="0 0 0 0 1 0 0 0 0 1 0 0 0 0 1 0 0 0 1 0" color-interpolation-filters="sRGB"/></filter><clipPath id="bf4ee59d8d"><path d="M 40 46 L 64 46 L 64 67.59375 L 40 67.59375 Z M 40 46 " clip-rule="nonzero"/></clipPath><clipPath id="050bbcc160"><path d="M 40 51 L 63 51 L 63 67.59375 L 40 67.59375 Z M 40 51 " clip-rule="nonzero"/></clipPath><clipPath id="55e43f20f4"><path d="M 39 46 L 65 46 L 65 67.59375 L 39 67.59375 Z M 39 46 " clip-rule="nonzero"/></clipPath><clipPath id="f5ba1491f6"><path d="M 9 3.84375 L 48 3.84375 L 48 42 L 9 42 Z M 9 3.84375 " clip-rule="nonzero"/></clipPath><mask id="fa5d820518"><g filter="url(#7c3f184b16)"><rect x="-7.5" width="90" fill="#000000" y="-7.5" height="89.999996" fill-opacity="0.5"/></g></mask><clipPath id="46186f9835"><path d="M 0.121094 0.28125 L 6 0.28125 L 6 7 L 0.121094 7 Z M 0.121094 0.28125 " clip-rule="nonzero"/></clipPath><clipPath id="130f872e72"><rect x="0" width="7" y="0" height="8"/></clipPath><mask id="893ac86e1d"><g filter="url(#7c3f184b16)"><rect x="-7.5" width="90" fill="#000000" y="-7.5" height="89.999996" fill-opacity="0.5"/></g></mask><clipPath id="612f4bccd3"><path d="M 0 0.238281 L 2.878906 0.238281 L 2.878906 3 L 0 3 Z M 0 0.238281 " clip-rule="nonzero"/></clipPath><clipPath id="c44d46fe8c"><rect x="0" width="3" y="0" height="4"/></clipPath></defs><path fill="#ffffff" d="M 56.664062 51.386719 C 56.664062 51.386719 57.667969 50.296875 58.902344 48.726562 C 59.140625 48.417969 59.390625 48.09375 59.640625 47.753906 C 59.683594 47.699219 59.722656 47.648438 59.761719 47.59375 C 59.882812 47.429688 60.003906 47.261719 60.125 47.097656 C 61.855469 44.675781 63.539062 41.753906 63.324219 39.78125 C 62.972656 36.558594 54.453125 28.425781 49.6875 26.746094 C 48.433594 26.304688 46.683594 27.015625 44.957031 28.105469 C 44.949219 28.113281 44.933594 28.121094 44.921875 28.125 C 43.660156 28.925781 42.414062 29.925781 41.390625 30.816406 C 41.300781 30.894531 41.214844 30.96875 41.128906 31.046875 C 40.953125 31.203125 40.789062 31.351562 40.632812 31.492188 C 40.511719 31.605469 40.394531 31.714844 40.285156 31.816406 C 39.492188 32.550781 39 33.066406 39 33.066406 L 40.714844 34.847656 L 41.589844 35.753906 L 43.214844 37.4375 L 43.703125 37.945312 Z M 56.664062 51.386719 " fill-opacity="1" fill-rule="nonzero"/><path fill="#371a45" d="M 40.710938 34.851562 L 41.585938 35.757812 L 53.558594 48.167969 L 56.664062 51.386719 C 56.664062 51.386719 56.683594 51.363281 56.722656 51.320312 C 56.734375 51.304688 56.75 51.292969 56.761719 51.277344 C 56.773438 51.261719 56.785156 51.25 56.800781 51.238281 C 56.808594 51.226562 56.816406 51.214844 56.828125 51.203125 C 56.832031 51.199219 56.835938 51.195312 56.839844 51.191406 C 56.859375 51.171875 56.875 51.148438 56.898438 51.125 C 56.902344 51.117188 56.90625 51.113281 56.910156 51.109375 C 56.929688 51.089844 56.945312 51.066406 56.964844 51.046875 C 56.992188 51.015625 57.019531 50.988281 57.046875 50.957031 C 57.0625 50.929688 57.085938 50.910156 57.105469 50.886719 C 57.128906 50.859375 57.148438 50.835938 57.175781 50.808594 C 57.203125 50.777344 57.234375 50.742188 57.261719 50.707031 C 57.324219 50.636719 57.390625 50.5625 57.457031 50.480469 C 57.519531 50.410156 57.582031 50.335938 57.648438 50.257812 C 57.722656 50.167969 57.804688 50.074219 57.886719 49.972656 C 58.1875 49.609375 58.535156 49.1875 58.898438 48.722656 C 58.96875 48.632812 59.039062 48.542969 59.113281 48.449219 C 59.164062 48.382812 59.214844 48.316406 59.265625 48.25 C 59.386719 48.089844 59.515625 47.921875 59.640625 47.75 C 61.523438 45.222656 63.554688 41.933594 63.320312 39.777344 C 63.03125 37.125 57.199219 31.140625 52.492188 28.175781 C 56.152344 31.242188 59.515625 35.132812 59.734375 37.132812 C 59.839844 38.121094 59.414062 39.40625 58.730469 40.753906 C 58.4375 41.328125 57.632812 41.351562 57.292969 40.800781 C 57.292969 40.796875 57.289062 40.792969 57.285156 40.789062 C 56.664062 39.785156 55.839844 38.761719 54.710938 37.730469 C 52.292969 35.519531 48.503906 32.679688 43.289062 32.734375 C 43.171875 32.738281 42.054688 33.6875 40.710938 34.851562 Z M 40.710938 34.851562 " fill-opacity="0.35" fill-rule="nonzero"/><path fill="#371a45" d="M 56.671875 52.058594 L 38.355469 33.074219 L 38.664062 32.75 C 38.738281 32.671875 40.523438 30.820312 42.765625 29.085938 C 45.871094 26.683594 48.25 25.75 49.839844 26.3125 C 54.8125 28.0625 63.414062 36.339844 63.785156 39.730469 C 64.230469 43.8125 57.296875 51.382812 57.003906 51.699219 Z M 39.640625 33.074219 L 56.648438 50.707031 C 58.019531 49.15625 63.214844 43.03125 62.867188 39.832031 C 62.714844 38.46875 60.742188 35.792969 57.839844 33.019531 C 54.863281 30.175781 51.679688 27.9375 49.535156 27.183594 C 47.058594 26.308594 41.828125 30.871094 39.640625 33.074219 Z M 39.640625 33.074219 " fill-opacity="1" fill-rule="nonzero"/><path fill="#ffffff" d="M 56.785156 34.007812 L 54.097656 37.324219 C 53.855469 37.621094 53.847656 38.039062 54.074219 38.347656 C 54.902344 39.472656 56.945312 41.972656 58.632812 41.726562 C 60.03125 41.523438 61.191406 40.140625 61.265625 38.761719 C 61.351562 37.21875 59.148438 34.972656 58.007812 33.917969 C 57.648438 33.589844 57.089844 33.632812 56.785156 34.007812 Z M 56.785156 34.007812 " fill-opacity="1" fill-rule="nonzero"/><path fill="#371a45" d="M 54.070312 38.347656 C 54.898438 39.476562 56.945312 41.972656 58.628906 41.722656 C 60.03125 41.519531 61.191406 40.140625 61.265625 38.757812 C 61.316406 37.808594 60.5 36.59375 59.601562 35.554688 C 59.964844 36.164062 60.164062 36.765625 60.167969 37.289062 C 60.210938 40.28125 57.328125 39.757812 57.328125 39.757812 C 57.328125 39.757812 57.570312 40.371094 57.441406 40.554688 C 56.910156 41.328125 54.933594 39.195312 53.933594 38.066406 C 53.960938 38.167969 54.007812 38.261719 54.070312 38.347656 Z M 54.070312 38.347656 " fill-opacity="0.35" fill-rule="nonzero"/><path fill="#371a45" d="M 58.398438 42.203125 C 56.613281 42.203125 54.707031 39.992188 53.699219 38.621094 C 53.347656 38.148438 53.363281 37.492188 53.738281 37.03125 L 56.425781 33.714844 C 56.648438 33.433594 56.984375 33.261719 57.339844 33.234375 C 57.695312 33.210938 58.050781 33.335938 58.3125 33.578125 C 59.914062 35.054688 61.8125 37.160156 61.722656 38.78125 C 61.632812 40.425781 60.273438 41.949219 58.695312 42.179688 C 58.59375 42.199219 58.496094 42.203125 58.398438 42.203125 Z M 57.140625 34.296875 L 54.453125 37.617188 C 54.347656 37.75 54.339844 37.9375 54.445312 38.074219 C 56.023438 40.21875 57.5625 41.414062 58.5625 41.269531 C 59.710938 41.101562 60.738281 39.941406 60.804688 38.734375 C 60.855469 37.777344 59.691406 36.105469 57.691406 34.257812 C 57.613281 34.183594 57.515625 34.148438 57.410156 34.160156 C 57.300781 34.167969 57.207031 34.21875 57.140625 34.296875 Z M 57.140625 34.296875 " fill-opacity="1" fill-rule="nonzero"/><path fill="#371a45" d="M 60.640625 40.945312 C 60.550781 40.972656 60.496094 40.980469 60.425781 40.992188 C 60.363281 41.003906 60.296875 41.011719 60.238281 41.015625 C 60.109375 41.023438 59.988281 41.023438 59.863281 41.019531 C 59.621094 41.003906 59.378906 40.96875 59.148438 40.902344 C 58.6875 40.773438 58.261719 40.5625 57.886719 40.296875 C 57.703125 40.160156 57.519531 40.023438 57.351562 39.867188 C 57.179688 39.722656 57.03125 39.5625 56.871094 39.402344 C 56.714844 39.242188 56.566406 39.074219 56.425781 38.902344 C 56.285156 38.722656 56.152344 38.550781 56.039062 38.332031 C 56.011719 38.277344 56.035156 38.210938 56.085938 38.183594 C 56.136719 38.15625 56.199219 38.175781 56.230469 38.21875 L 56.238281 38.234375 C 56.339844 38.394531 56.492188 38.5625 56.636719 38.710938 C 56.789062 38.863281 56.945312 39.007812 57.113281 39.148438 C 57.277344 39.285156 57.445312 39.429688 57.617188 39.550781 C 57.785156 39.679688 57.964844 39.789062 58.144531 39.894531 C 58.503906 40.097656 58.894531 40.246094 59.285156 40.3125 C 59.480469 40.351562 59.679688 40.359375 59.871094 40.355469 C 59.96875 40.351562 60.0625 40.339844 60.152344 40.320312 C 60.199219 40.3125 60.246094 40.304688 60.289062 40.292969 C 60.324219 40.28125 60.378906 40.265625 60.390625 40.257812 C 60.570312 40.160156 60.796875 40.230469 60.890625 40.410156 C 60.984375 40.589844 60.917969 40.816406 60.738281 40.910156 C 60.714844 40.921875 60.695312 40.929688 60.671875 40.9375 Z M 60.640625 40.945312 " fill-opacity="1" fill-rule="nonzero"/><path fill="#371a45" d="M 44.84375 31.0625 C 45.152344 30.628906 45.46875 30.210938 45.789062 29.792969 C 46.113281 29.378906 46.445312 28.964844 46.789062 28.5625 C 47.132812 28.160156 47.484375 27.761719 47.859375 27.378906 C 48.234375 26.996094 48.625 26.621094 49.074219 26.277344 C 49.277344 26.125 49.566406 26.164062 49.722656 26.367188 C 49.875 26.570312 49.835938 26.859375 49.632812 27.015625 C 49.625 27.019531 49.617188 27.03125 49.605469 27.035156 L 49.601562 27.039062 C 49.195312 27.304688 48.804688 27.628906 48.421875 27.964844 C 48.039062 28.304688 47.671875 28.667969 47.308594 29.035156 C 46.945312 29.40625 46.589844 29.785156 46.246094 30.171875 C 45.902344 30.558594 45.554688 30.953125 45.226562 31.351562 L 45.222656 31.355469 C 45.140625 31.457031 44.992188 31.46875 44.890625 31.386719 C 44.789062 31.304688 44.769531 31.160156 44.84375 31.0625 Z M 44.84375 31.0625 " fill-opacity="1" fill-rule="nonzero"/><path fill="#ffffff" d="M 38.167969 33.644531 L 35.59375 37.402344 L 31.285156 43.691406 L 31.046875 44.042969 C 30.09375 44.261719 29.152344 44.425781 28.222656 44.542969 C 20.257812 45.546875 13.292969 42.929688 6.738281 37.328125 C 4.230469 36.667969 2.339844 35.859375 1.398438 34.605469 C 0.519531 33.433594 0.460938 31.871094 1.488281 29.671875 C 2.890625 26.664062 6.011719 27.125 8.109375 27.746094 C 9.242188 28.082031 11.898438 28.894531 13.460938 29.722656 C 14.152344 30.085938 14.890625 30.417969 15.664062 30.714844 C 21.566406 33.007812 29.574219 33.542969 34.273438 33.644531 C 36.636719 33.703125 38.167969 33.644531 38.167969 33.644531 Z M 38.167969 33.644531 " fill-opacity="1" fill-rule="nonzero"/><path fill="#371a45" d="M 9.640625 31.203125 C 9.65625 31.234375 9.664062 31.308594 9.667969 31.40625 C 9.632812 31.242188 9.628906 31.167969 9.640625 31.203125 Z M 9.640625 31.203125 " fill-opacity="0.25" fill-rule="nonzero"/><path fill="#371a45" d="M 35.589844 37.402344 L 31.285156 43.691406 L 31.042969 44.042969 C 30.089844 44.261719 29.148438 44.425781 28.222656 44.542969 C 20.257812 45.546875 13.289062 42.929688 6.738281 37.328125 C 4.226562 36.667969 2.339844 35.859375 1.398438 34.605469 C 2.910156 35.328125 4.890625 35.921875 6.527344 35.261719 C 8.371094 34.515625 8.84375 31.832031 8.839844 31.023438 C 9.105469 32.320312 11.214844 39.074219 20.9375 40.585938 C 26.859375 41.511719 33.386719 38.53125 35.589844 37.402344 Z M 35.589844 37.402344 " fill-opacity="0.25" fill-rule="nonzero"/><path fill="#371a45" d="M 24.960938 45.210938 C 18.46875 45.210938 12.390625 42.742188 6.519531 37.75 C 3.125 36.84375 1.355469 35.78125 0.621094 34.210938 C 0.0273438 32.941406 0.171875 31.394531 1.066406 29.472656 C 2.234375 26.972656 4.648438 26.242188 8.238281 27.304688 C 9.925781 27.800781 12.238281 28.554688 13.671875 29.3125 C 22.054688 33.738281 37.988281 33.1875 38.148438 33.183594 C 38.40625 33.175781 38.617188 33.371094 38.628906 33.628906 C 38.636719 33.882812 38.4375 34.097656 38.183594 34.109375 C 37.519531 34.132812 21.839844 34.675781 13.242188 30.132812 C 12.175781 29.570312 10.304688 28.878906 7.976562 28.191406 C 4.847656 27.269531 2.859375 27.816406 1.902344 29.867188 C 1.132812 31.523438 0.984375 32.816406 1.457031 33.820312 C 2.0625 35.117188 3.726562 36.066406 6.855469 36.886719 L 6.957031 36.910156 L 7.039062 36.980469 C 14.523438 43.375 22.339844 45.542969 30.941406 43.59375 C 31.191406 43.539062 31.4375 43.695312 31.492188 43.945312 C 31.546875 44.195312 31.394531 44.441406 31.144531 44.496094 C 29.039062 44.972656 26.980469 45.210938 24.960938 45.210938 Z M 24.960938 45.210938 " fill-opacity="1" fill-rule="nonzero"/><path fill="#371a45" d="M 16.605469 43.75 C 16.421875 43.75 16.242188 43.636719 16.175781 43.453125 C 16.082031 43.214844 16.199219 42.949219 16.4375 42.859375 C 16.457031 42.851562 17.875 42.285156 19.125 40.730469 C 20.804688 38.636719 21.402344 35.835938 20.910156 32.40625 C 20.871094 32.152344 21.050781 31.917969 21.300781 31.882812 C 21.550781 31.84375 21.789062 32.023438 21.824219 32.273438 C 22.488281 36.910156 21.09375 39.765625 19.808594 41.351562 C 18.402344 43.082031 16.835938 43.699219 16.769531 43.722656 C 16.714844 43.742188 16.660156 43.75 16.605469 43.75 Z M 16.605469 43.75 " fill-opacity="1" fill-rule="nonzero"/><path fill="#ffffff" d="M 15 30.449219 C 14.492188 30.320312 13.84375 29.734375 13.683594 29.5 C 13.347656 29.019531 12.878906 28.441406 12.328125 27.6875 C 11.390625 26.390625 9.195312 24.753906 8.175781 25.5625 C 6.546875 26.855469 9.265625 28.585938 9.300781 29 C 9.335938 29.414062 8.476562 31.464844 9.707031 33.433594 Z M 15 30.449219 " fill-opacity="1" fill-rule="nonzero"/><path fill="#371a45" d="M 14.886719 30.898438 C 14.632812 30.828125 14.4375 30.722656 14.253906 30.613281 C 14.074219 30.496094 13.910156 30.371094 13.757812 30.238281 C 13.679688 30.171875 13.605469 30.101562 13.527344 30.027344 C 13.453125 29.953125 13.378906 29.871094 13.300781 29.757812 C 13.195312 29.613281 13.089844 29.46875 12.984375 29.324219 L 12.316406 28.441406 L 11.984375 27.992188 C 11.882812 27.851562 11.78125 27.722656 11.664062 27.59375 C 11.214844 27.078125 10.671875 26.613281 10.09375 26.261719 C 9.804688 26.085938 9.503906 25.9375 9.210938 25.863281 C 8.917969 25.785156 8.652344 25.792969 8.507812 25.894531 C 8.476562 25.914062 8.414062 25.96875 8.363281 26.011719 C 8.320312 26.0625 8.273438 26.105469 8.242188 26.15625 C 8.175781 26.253906 8.140625 26.347656 8.128906 26.445312 C 8.105469 26.640625 8.210938 26.910156 8.390625 27.167969 C 8.566406 27.429688 8.796875 27.683594 9.046875 27.9375 C 9.171875 28.066406 9.300781 28.191406 9.441406 28.34375 C 9.511719 28.421875 9.582031 28.492188 9.667969 28.621094 C 9.683594 28.644531 9.714844 28.707031 9.738281 28.753906 C 9.75 28.769531 9.769531 28.832031 9.777344 28.875 C 9.785156 28.898438 9.789062 28.921875 9.792969 28.945312 C 9.792969 28.96875 9.792969 28.972656 9.792969 28.988281 C 9.792969 29.03125 9.792969 29.078125 9.792969 29.125 C 9.792969 29.148438 9.789062 29.160156 9.785156 29.175781 L 9.78125 29.21875 C 9.746094 29.445312 9.703125 29.609375 9.667969 29.785156 C 9.632812 29.960938 9.601562 30.132812 9.574219 30.300781 C 9.523438 30.640625 9.503906 30.980469 9.503906 31.3125 C 9.507812 31.988281 9.65625 32.644531 9.910156 33.304688 L 9.914062 33.320312 C 9.960938 33.441406 9.902344 33.578125 9.78125 33.621094 C 9.683594 33.660156 9.582031 33.628906 9.519531 33.550781 C 9.457031 33.476562 9.394531 33.398438 9.335938 33.320312 L 9.25 33.199219 C 9.222656 33.15625 9.199219 33.113281 9.171875 33.070312 C 9.121094 32.984375 9.070312 32.898438 9.019531 32.808594 C 8.980469 32.71875 8.9375 32.628906 8.902344 32.535156 C 8.753906 32.160156 8.648438 31.765625 8.613281 31.363281 C 8.574219 30.964844 8.589844 30.5625 8.632812 30.175781 C 8.652344 29.980469 8.683594 29.785156 8.71875 29.597656 C 8.75 29.414062 8.789062 29.21875 8.8125 29.082031 L 8.816406 29.054688 C 8.816406 29.046875 8.816406 29.039062 8.816406 29.039062 C 8.816406 29.039062 8.816406 29.039062 8.820312 29.039062 C 8.820312 29.039062 8.820312 29.03125 8.824219 29.042969 C 8.824219 29.054688 8.824219 29.070312 8.828125 29.082031 C 8.832031 29.105469 8.847656 29.140625 8.847656 29.140625 C 8.847656 29.148438 8.859375 29.164062 8.851562 29.148438 C 8.839844 29.128906 8.78125 29.0625 8.730469 29.003906 C 8.617188 28.878906 8.484375 28.746094 8.355469 28.609375 C 8.097656 28.335938 7.832031 28.039062 7.605469 27.6875 C 7.492188 27.507812 7.386719 27.3125 7.308594 27.089844 C 7.230469 26.871094 7.183594 26.609375 7.210938 26.34375 C 7.238281 26.074219 7.347656 25.816406 7.496094 25.613281 C 7.566406 25.507812 7.648438 25.421875 7.734375 25.339844 C 7.820312 25.265625 7.898438 25.191406 8.019531 25.113281 C 8.253906 24.960938 8.523438 24.898438 8.765625 24.886719 C 9.011719 24.875 9.242188 24.914062 9.453125 24.96875 C 9.871094 25.082031 10.238281 25.261719 10.578125 25.46875 C 11.257812 25.882812 11.84375 26.394531 12.367188 26.984375 C 12.496094 27.132812 12.625 27.292969 12.738281 27.449219 L 13.0625 27.886719 L 13.726562 28.769531 C 13.839844 28.917969 13.953125 29.070312 14.0625 29.226562 C 14.089844 29.265625 14.136719 29.320312 14.191406 29.375 C 14.246094 29.433594 14.308594 29.484375 14.371094 29.539062 C 14.492188 29.644531 14.625 29.746094 14.753906 29.828125 C 14.886719 29.910156 15.019531 29.976562 15.121094 30.003906 L 15.136719 30.007812 C 15.382812 30.074219 15.527344 30.328125 15.460938 30.574219 C 15.386719 30.820312 15.132812 30.964844 14.886719 30.898438 Z M 14.886719 30.898438 " fill-opacity="1" fill-rule="nonzero"/><g clip-path="url(#bf4ee59d8d)"><path fill="#ffffff" d="M 62.789062 65.425781 C 61.453125 66.859375 59.019531 67.558594 56.945312 66.859375 C 53.976562 65.859375 52.742188 61.277344 52.742188 61.277344 C 42.644531 61.058594 40.261719 56.273438 40.261719 56.273438 L 43.433594 51.761719 L 46.863281 46.875 C 48.351562 48.71875 50.152344 49.886719 51.976562 50.722656 C 55.242188 52.230469 58.585938 52.664062 60.308594 54.039062 C 61.445312 54.9375 62.269531 56.246094 62.835938 57.753906 C 63.417969 59.316406 63.71875 61.097656 63.792969 62.886719 C 63.832031 63.855469 63.441406 64.726562 62.789062 65.425781 Z M 62.789062 65.425781 " fill-opacity="1" fill-rule="nonzero"/></g><path fill="#371a45" d="M 62.832031 57.753906 C 61.726562 56.988281 60.261719 56.886719 58.394531 57.003906 C 54.417969 57.253906 51.839844 55.179688 51.839844 55.179688 L 51.972656 50.726562 C 55.242188 52.230469 58.582031 52.667969 60.304688 54.042969 C 61.445312 54.941406 62.269531 56.246094 62.832031 57.753906 Z M 62.832031 57.753906 " fill-opacity="0.25" fill-rule="nonzero"/><g clip-path="url(#050bbcc160)"><path fill="#371a45" d="M 62.789062 65.425781 C 61.453125 66.859375 59.019531 67.558594 56.945312 66.859375 C 53.976562 65.859375 52.742188 61.277344 52.742188 61.277344 C 42.644531 61.058594 40.261719 56.273438 40.261719 56.273438 L 43.433594 51.761719 C 45.070312 53.28125 49 56.890625 49 56.890625 C 49 56.890625 48.855469 58.574219 50.605469 59.507812 C 52.917969 60.738281 57.542969 59.207031 57.644531 59.171875 C 57.527344 59.253906 53.140625 62.332031 56.769531 64.914062 C 59.09375 66.566406 61.980469 65.714844 62.789062 65.425781 Z M 62.789062 65.425781 " fill-opacity="0.25" fill-rule="nonzero"/></g><g clip-path="url(#55e43f20f4)"><path fill="#371a45" d="M 58.660156 67.59375 C 58.023438 67.59375 57.390625 67.496094 56.800781 67.296875 C 54.082031 66.382812 52.753906 62.84375 52.394531 61.726562 C 42.417969 61.410156 39.949219 56.679688 39.847656 56.476562 C 39.734375 56.246094 39.828125 55.96875 40.054688 55.855469 C 40.28125 55.742188 40.558594 55.835938 40.671875 56.0625 C 40.703125 56.125 43.125 60.605469 52.75 60.8125 C 52.957031 60.820312 53.132812 60.957031 53.1875 61.152344 C 53.199219 61.195312 54.390625 65.511719 57.09375 66.417969 C 58.65625 66.945312 60.539062 66.628906 61.890625 65.613281 C 62.859375 64.882812 63.375 63.921875 63.332031 62.902344 C 63.171875 59.042969 61.964844 55.941406 60.023438 54.398438 C 59.105469 53.667969 57.644531 53.203125 55.953125 52.667969 C 52.957031 51.714844 49.226562 50.535156 46.503906 47.160156 C 46.34375 46.964844 46.378906 46.671875 46.574219 46.511719 C 46.773438 46.351562 47.0625 46.382812 47.222656 46.582031 C 49.773438 49.742188 53.355469 50.878906 56.230469 51.789062 C 58.007812 52.351562 59.542969 52.839844 60.59375 53.671875 C 63.546875 56.015625 64.152344 60.433594 64.253906 62.863281 C 64.304688 64.195312 63.667969 65.433594 62.445312 66.351562 C 61.367188 67.164062 60 67.59375 58.660156 67.59375 Z M 58.660156 67.59375 " fill-opacity="1" fill-rule="nonzero"/></g><path fill="#371a45" d="M 47.535156 61.128906 C 47.28125 61.128906 47.074219 60.921875 47.074219 60.664062 C 47.074219 60.410156 47.28125 60.203125 47.535156 60.203125 C 49.5625 60.203125 52.601562 59.484375 54.488281 57.445312 C 55.722656 56.117188 56.273438 54.425781 56.125 52.425781 C 56.105469 52.167969 56.296875 51.945312 56.550781 51.929688 C 56.804688 51.910156 57.027344 52.101562 57.046875 52.355469 C 57.214844 54.621094 56.582031 56.546875 55.167969 58.074219 C 53.074219 60.328125 49.75 61.128906 47.535156 61.128906 Z M 47.535156 61.128906 " fill-opacity="1" fill-rule="nonzero"/><path fill="#371a45" d="M 57.832031 59.304688 C 57.785156 59.375 57.75 59.414062 57.707031 59.460938 C 57.667969 59.507812 57.625 59.554688 57.582031 59.597656 C 57.496094 59.683594 57.40625 59.761719 57.3125 59.839844 C 57.222656 59.917969 57.125 59.988281 57.03125 60.0625 C 56.9375 60.128906 56.839844 60.199219 56.742188 60.265625 C 56.34375 60.523438 55.925781 60.734375 55.492188 60.921875 C 55.066406 61.109375 54.621094 61.257812 54.171875 61.398438 L 53.5 61.582031 L 52.820312 61.734375 C 52.570312 61.789062 52.324219 61.632812 52.265625 61.382812 C 52.210938 61.132812 52.367188 60.886719 52.617188 60.828125 C 52.632812 60.828125 52.640625 60.824219 52.65625 60.820312 L 52.675781 60.820312 L 53.328125 60.730469 L 53.976562 60.613281 C 54.402344 60.515625 54.832031 60.414062 55.242188 60.273438 C 55.660156 60.136719 56.066406 59.972656 56.445312 59.765625 C 56.542969 59.714844 56.632812 59.65625 56.726562 59.605469 C 56.816406 59.546875 56.910156 59.488281 56.996094 59.425781 C 57.082031 59.367188 57.167969 59.300781 57.246094 59.234375 C 57.285156 59.199219 57.324219 59.164062 57.363281 59.128906 C 57.394531 59.097656 57.4375 59.054688 57.457031 59.03125 L 57.472656 59.015625 C 57.558594 58.921875 57.703125 58.914062 57.796875 58.996094 C 57.886719 59.078125 57.898438 59.210938 57.832031 59.304688 Z M 57.832031 59.304688 " fill-opacity="1" fill-rule="nonzero"/><path fill="#ffffff" d="M 53.722656 54.539062 C 43.648438 61.734375 33.1875 54.203125 28.503906 44.546875 C 28.292969 44.117188 28.09375 43.679688 27.910156 43.238281 C 27.160156 41.46875 26.609375 39.652344 26.289062 37.851562 L 34.382812 33.960938 L 40.097656 31.210938 L 41.972656 30.3125 C 43.421875 31.917969 44.835938 33.152344 46.191406 34.183594 C 48.289062 35.777344 50.25 36.890625 52 38.160156 C 53.808594 39.46875 55.394531 40.9375 56.679688 43.269531 C 58.976562 47.453125 57.574219 51.792969 53.722656 54.539062 Z M 53.722656 54.539062 " fill-opacity="1" fill-rule="nonzero"/><path fill="#371a45" d="M 53.722656 54.539062 C 47.117188 59.257812 40.34375 57.640625 35.144531 53.25 C 40.097656 56.683594 46.183594 57.570312 52.136719 53.324219 C 55.988281 50.574219 57.390625 46.238281 55.09375 42.054688 C 54.136719 40.3125 53.011719 39.054688 51.746094 37.980469 C 51.832031 38.039062 51.917969 38.097656 52 38.160156 C 53.8125 39.46875 55.398438 40.9375 56.679688 43.269531 C 58.976562 47.453125 57.574219 51.792969 53.722656 54.539062 Z M 53.722656 54.539062 " fill-opacity="0.25" fill-rule="nonzero"/><path fill="#371a45" d="M 53.722656 55.003906 C 53.578125 55.003906 53.4375 54.9375 53.347656 54.808594 C 53.203125 54.605469 53.25 54.316406 53.457031 54.167969 C 57.300781 51.421875 58.382812 47.332031 56.273438 43.5 C 54.523438 40.3125 52.15625 38.765625 49.414062 36.980469 C 47.070312 35.449219 44.414062 33.714844 41.628906 30.628906 C 41.457031 30.441406 41.472656 30.148438 41.660156 29.980469 C 41.851562 29.808594 42.140625 29.824219 42.3125 30.011719 C 45.015625 33.003906 47.621094 34.707031 49.917969 36.207031 C 52.761719 38.0625 55.21875 39.664062 57.082031 43.058594 C 59.398438 47.269531 58.1875 51.929688 53.992188 54.921875 C 53.910156 54.972656 53.816406 55.003906 53.722656 55.003906 Z M 53.722656 55.003906 " fill-opacity="1" fill-rule="nonzero"/><path fill="#371a45" d="M 28.207031 43.34375 C 29.097656 44.9375 30 46.492188 31.039062 47.972656 C 31.558594 48.707031 32.109375 49.417969 32.699219 50.097656 C 33.285156 50.777344 33.902344 51.429688 34.558594 52.039062 C 35.214844 52.648438 35.894531 53.234375 36.613281 53.757812 C 37.335938 54.289062 38.085938 54.769531 38.867188 55.195312 C 39.257812 55.40625 39.65625 55.605469 40.0625 55.785156 C 40.261719 55.878906 40.472656 55.957031 40.679688 56.042969 C 40.882812 56.125 41.085938 56.195312 41.296875 56.261719 C 41.722656 56.398438 42.148438 56.535156 42.574219 56.664062 C 43 56.796875 43.429688 56.925781 43.863281 57.074219 L 43.867188 57.078125 C 43.992188 57.121094 44.054688 57.253906 44.011719 57.375 C 43.980469 57.46875 43.894531 57.527344 43.800781 57.535156 C 41.902344 57.621094 40.074219 56.90625 38.402344 56.066406 C 37.5625 55.640625 36.765625 55.136719 36.007812 54.585938 C 35.246094 54.035156 34.527344 53.433594 33.847656 52.785156 C 32.488281 51.5 31.296875 50.050781 30.253906 48.503906 C 29.214844 46.964844 28.339844 45.296875 27.773438 43.527344 C 27.734375 43.40625 27.800781 43.277344 27.925781 43.238281 C 28.039062 43.203125 28.152344 43.25 28.207031 43.34375 Z M 28.207031 43.34375 " fill-opacity="1" fill-rule="nonzero"/><path fill="#ffffff" d="M 74 58.304688 C 72.925781 60.289062 70.355469 61.289062 67.914062 60.742188 C 64.761719 60.03125 63.011719 55.460938 63.011719 55.460938 C 57.222656 56.78125 53.429688 54.746094 53.429688 54.746094 C 53.429688 54.746094 52.046875 56.179688 48.761719 56.949219 L 49.6875 54.785156 L 55.449219 41.316406 C 59.617188 45.6875 66.019531 44.308594 69.570312 46.324219 C 71.347656 47.324219 74.347656 52.738281 74.507812 55.96875 C 74.554688 56.84375 74.363281 57.632812 74 58.304688 Z M 74 58.304688 " fill-opacity="1" fill-rule="nonzero"/><path fill="#371a45" d="M 74 58.304688 C 72.925781 60.289062 70.355469 61.289062 67.914062 60.742188 C 64.761719 60.03125 63.011719 55.460938 63.011719 55.460938 C 57.222656 56.78125 53.429688 54.746094 53.429688 54.746094 C 53.429688 54.746094 52.046875 56.179688 48.761719 56.949219 L 49.6875 54.785156 C 52.917969 53.136719 53.988281 50.667969 54.257812 50.667969 C 54.527344 50.667969 55.09375 52.617188 58.078125 53.46875 C 65.4375 55.558594 67.917969 50.765625 68.40625 50.824219 C 68.898438 50.882812 63.929688 56.265625 66.804688 58.496094 C 68.71875 59.976562 71.917969 59.339844 74 58.304688 Z M 74 58.304688 " fill-opacity="0.25" fill-rule="nonzero"/><path fill="#371a45" d="M 55.785156 40.996094 C 56.378906 41.617188 57.054688 42.152344 57.796875 42.589844 C 58.539062 43.019531 59.335938 43.367188 60.167969 43.625 C 61.835938 44.15625 63.605469 44.375 65.394531 44.65625 C 65.839844 44.726562 66.289062 44.800781 66.738281 44.894531 C 67.1875 44.980469 67.640625 45.085938 68.089844 45.21875 C 68.542969 45.355469 68.988281 45.515625 69.421875 45.722656 L 69.742188 45.894531 C 69.792969 45.917969 69.855469 45.957031 69.910156 45.992188 C 69.96875 46.027344 70.023438 46.066406 70.074219 46.105469 C 70.285156 46.257812 70.464844 46.425781 70.636719 46.597656 C 71.308594 47.289062 71.835938 48.050781 72.328125 48.832031 C 72.8125 49.617188 73.238281 50.429688 73.621094 51.269531 C 74.003906 52.105469 74.335938 52.96875 74.589844 53.863281 C 74.71875 54.3125 74.824219 54.769531 74.894531 55.242188 C 74.910156 55.359375 74.921875 55.480469 74.9375 55.597656 L 74.964844 55.960938 C 74.96875 56.085938 74.972656 56.207031 74.972656 56.332031 C 74.964844 56.453125 74.964844 56.578125 74.949219 56.699219 C 74.902344 57.195312 74.777344 57.683594 74.582031 58.144531 C 74.386719 58.605469 74.113281 59.027344 73.789062 59.402344 C 73.136719 60.152344 72.277344 60.683594 71.359375 61 C 70.4375 61.316406 69.457031 61.414062 68.496094 61.304688 C 68.375 61.289062 68.257812 61.269531 68.136719 61.253906 C 68.019531 61.230469 67.902344 61.207031 67.78125 61.179688 C 67.539062 61.117188 67.296875 61.046875 67.066406 60.949219 C 66.605469 60.753906 66.183594 60.496094 65.800781 60.199219 C 65.035156 59.605469 64.425781 58.871094 63.898438 58.097656 C 63.636719 57.707031 63.398438 57.308594 63.179688 56.898438 C 63.070312 56.695312 62.964844 56.484375 62.863281 56.277344 C 62.761719 56.066406 62.671875 55.859375 62.578125 55.625 L 63.109375 55.910156 L 62.492188 56.03125 L 62.1875 56.09375 C 62.082031 56.113281 61.980469 56.132812 61.878906 56.144531 L 61.257812 56.230469 C 61.152344 56.246094 61.050781 56.261719 60.945312 56.273438 L 60.007812 56.34375 L 59.378906 56.359375 L 59.066406 56.367188 L 58.753906 56.359375 C 58.542969 56.347656 58.335938 56.347656 58.125 56.332031 C 57.285156 56.28125 56.453125 56.160156 55.632812 55.972656 L 55.328125 55.902344 L 55.023438 55.820312 C 54.816406 55.765625 54.617188 55.699219 54.414062 55.636719 C 54.214844 55.570312 54.011719 55.5 53.8125 55.417969 C 53.714844 55.378906 53.617188 55.339844 53.515625 55.296875 C 53.414062 55.253906 53.324219 55.210938 53.210938 55.152344 L 53.757812 55.066406 C 53.695312 55.121094 53.65625 55.15625 53.609375 55.195312 C 53.558594 55.238281 53.515625 55.269531 53.464844 55.304688 C 53.371094 55.375 53.277344 55.445312 53.179688 55.507812 C 52.988281 55.636719 52.792969 55.753906 52.59375 55.863281 C 52.195312 56.085938 51.785156 56.273438 51.371094 56.441406 C 50.957031 56.605469 50.53125 56.746094 50.105469 56.867188 C 49.890625 56.929688 49.675781 56.976562 49.460938 57.03125 L 48.8125 57.167969 C 48.6875 57.195312 48.566406 57.117188 48.539062 56.992188 C 48.515625 56.875 48.585938 56.757812 48.699219 56.726562 L 48.710938 56.722656 L 49.320312 56.535156 C 49.523438 56.460938 49.726562 56.398438 49.925781 56.320312 C 50.324219 56.167969 50.710938 56 51.089844 55.8125 C 51.464844 55.621094 51.832031 55.410156 52.171875 55.179688 C 52.34375 55.058594 52.511719 54.9375 52.671875 54.808594 C 52.75 54.75 52.828125 54.683594 52.902344 54.613281 C 52.9375 54.582031 52.976562 54.546875 53.007812 54.515625 C 53.039062 54.484375 53.082031 54.441406 53.097656 54.425781 C 53.226562 54.273438 53.4375 54.234375 53.609375 54.320312 L 53.648438 54.339844 C 53.714844 54.375 53.808594 54.417969 53.894531 54.453125 C 53.980469 54.496094 54.070312 54.527344 54.160156 54.5625 C 54.339844 54.636719 54.523438 54.699219 54.707031 54.761719 C 54.894531 54.820312 55.082031 54.882812 55.269531 54.929688 L 55.554688 55.007812 L 55.839844 55.074219 C 56.609375 55.25 57.394531 55.363281 58.183594 55.410156 C 58.382812 55.425781 58.578125 55.425781 58.773438 55.433594 L 59.070312 55.441406 L 59.371094 55.433594 L 59.964844 55.417969 L 60.554688 55.375 L 60.851562 55.347656 C 60.953125 55.339844 61.046875 55.324219 61.148438 55.3125 L 61.734375 55.230469 C 61.835938 55.222656 61.929688 55.203125 62.03125 55.179688 L 62.320312 55.121094 L 62.90625 55.007812 L 62.917969 55.003906 C 63.140625 54.960938 63.359375 55.085938 63.4375 55.289062 C 63.511719 55.476562 63.605469 55.683594 63.695312 55.878906 C 63.789062 56.074219 63.886719 56.269531 63.988281 56.460938 C 64.195312 56.84375 64.421875 57.214844 64.660156 57.574219 C 65.148438 58.289062 65.707031 58.953125 66.367188 59.464844 C 66.695312 59.71875 67.050781 59.933594 67.417969 60.089844 C 67.605469 60.171875 67.792969 60.226562 67.988281 60.273438 C 68.085938 60.296875 68.191406 60.316406 68.292969 60.335938 L 68.601562 60.378906 C 69.425781 60.472656 70.277344 60.386719 71.058594 60.117188 C 71.839844 59.84375 72.5625 59.398438 73.09375 58.785156 C 73.628906 58.175781 73.957031 57.410156 74.03125 56.601562 C 74.070312 56.199219 74.046875 55.789062 73.984375 55.367188 C 73.921875 54.945312 73.824219 54.523438 73.707031 54.101562 C 73.46875 53.265625 73.152344 52.441406 72.785156 51.640625 C 72.417969 50.835938 72.003906 50.054688 71.542969 49.304688 C 71.078125 48.5625 70.570312 47.835938 69.984375 47.238281 C 69.835938 47.089844 69.6875 46.949219 69.53125 46.839844 C 69.492188 46.808594 69.453125 46.785156 69.417969 46.761719 C 69.375 46.738281 69.34375 46.714844 69.296875 46.691406 L 69.019531 46.542969 C 68.644531 46.363281 68.242188 46.21875 67.828125 46.09375 C 67.417969 45.972656 66.992188 45.871094 66.558594 45.785156 C 66.125 45.699219 65.6875 45.625 65.246094 45.554688 C 63.480469 45.277344 61.660156 45.054688 59.890625 44.492188 C 59.003906 44.21875 58.136719 43.84375 57.324219 43.375 C 56.515625 42.894531 55.765625 42.304688 55.113281 41.621094 C 54.9375 41.4375 54.941406 41.144531 55.125 40.96875 C 55.3125 40.804688 55.609375 40.8125 55.785156 40.996094 Z M 55.785156 40.996094 " fill-opacity="1" fill-rule="nonzero"/><path fill="#371a45" d="M 68.625 50.890625 C 68.542969 51.21875 68.429688 51.519531 68.304688 51.820312 C 68.179688 52.117188 68.027344 52.40625 67.859375 52.6875 C 67.527344 53.25 67.121094 53.773438 66.644531 54.234375 C 66.402344 54.460938 66.144531 54.679688 65.871094 54.871094 C 65.597656 55.0625 65.308594 55.238281 65 55.378906 C 64.394531 55.667969 63.734375 55.847656 63.074219 55.921875 C 62.820312 55.945312 62.59375 55.765625 62.566406 55.511719 C 62.539062 55.269531 62.703125 55.050781 62.933594 55.007812 L 62.945312 55.007812 C 63.515625 54.894531 64.070312 54.734375 64.59375 54.503906 C 64.855469 54.382812 65.109375 54.246094 65.359375 54.097656 C 65.601562 53.941406 65.839844 53.777344 66.066406 53.589844 C 66.515625 53.214844 66.917969 52.777344 67.277344 52.300781 C 67.457031 52.0625 67.617188 51.808594 67.773438 51.550781 C 67.925781 51.296875 68.066406 51.015625 68.183594 50.757812 L 68.1875 50.742188 C 68.238281 50.625 68.375 50.574219 68.492188 50.625 C 68.601562 50.671875 68.652344 50.785156 68.625 50.890625 Z M 68.625 50.890625 " fill-opacity="1" fill-rule="nonzero"/><path fill="#ffffff" d="M 74.183594 24.703125 C 73.925781 26.605469 71.976562 27.917969 69.042969 29.144531 C 63.65625 35.21875 57.167969 37.542969 52.179688 38.039062 C 51.703125 38.089844 51.238281 38.121094 50.792969 38.136719 C 50.546875 38.148438 50.304688 38.152344 50.066406 38.152344 L 45.585938 34.945312 L 39.804688 30.816406 L 38.382812 29.800781 C 38.382812 29.800781 42.746094 29.363281 47.984375 28.132812 C 52.640625 27.042969 57.984375 25.328125 61.582031 22.738281 C 62.972656 21.738281 65.410156 20.601562 66.457031 20.128906 C 68.386719 19.25 71.324219 18.386719 73.066406 21.089844 C 73.984375 22.511719 74.324219 23.6875 74.183594 24.703125 Z M 74.183594 24.703125 " fill-opacity="1" fill-rule="nonzero"/><path fill="#371a45" d="M 74.183594 24.703125 C 73.925781 26.605469 71.976562 27.917969 69.042969 29.144531 C 63.136719 35.800781 55.910156 37.953125 50.792969 38.136719 C 53.839844 37.171875 61.046875 34.5625 63.460938 30.808594 C 65.488281 27.660156 65.996094 26.074219 65.71875 22.285156 C 65.628906 21.027344 66.730469 27.863281 70.933594 26.449219 C 72.453125 25.933594 73.523438 25.414062 74.183594 24.703125 Z M 74.183594 24.703125 " fill-opacity="0.25" fill-rule="nonzero"/><path fill="#371a45" d="M 38.339844 29.339844 C 39.324219 29.234375 40.320312 29.097656 41.308594 28.945312 C 42.300781 28.796875 43.289062 28.628906 44.273438 28.441406 C 46.242188 28.074219 48.199219 27.636719 50.128906 27.117188 C 51.09375 26.859375 52.054688 26.574219 53 26.269531 C 53.949219 25.960938 54.886719 25.621094 55.8125 25.253906 C 56.742188 24.890625 57.644531 24.480469 58.527344 24.03125 C 58.972656 23.8125 59.402344 23.566406 59.832031 23.324219 L 60.460938 22.933594 C 60.671875 22.808594 60.867188 22.660156 61.074219 22.523438 L 61.382812 22.3125 C 61.488281 22.238281 61.597656 22.160156 61.710938 22.09375 C 61.925781 21.949219 62.148438 21.816406 62.371094 21.683594 C 62.816406 21.421875 63.261719 21.175781 63.714844 20.941406 C 64.621094 20.46875 65.527344 20.039062 66.464844 19.617188 C 67.417969 19.207031 68.4375 18.867188 69.535156 18.8125 C 70.082031 18.789062 70.648438 18.839844 71.1875 19.019531 C 71.730469 19.191406 72.234375 19.496094 72.652344 19.875 C 72.855469 20.070312 73.050781 20.273438 73.210938 20.496094 C 73.300781 20.601562 73.371094 20.722656 73.449219 20.832031 L 73.660156 21.167969 C 73.929688 21.617188 74.171875 22.097656 74.359375 22.605469 C 74.542969 23.113281 74.675781 23.664062 74.675781 24.238281 C 74.679688 24.523438 74.640625 24.8125 74.582031 25.097656 C 74.515625 25.378906 74.410156 25.652344 74.285156 25.910156 C 74.023438 26.417969 73.664062 26.859375 73.265625 27.226562 C 72.867188 27.59375 72.4375 27.90625 71.992188 28.1875 C 71.101562 28.742188 70.167969 29.175781 69.222656 29.574219 L 69.390625 29.453125 L 68.460938 30.464844 L 68.226562 30.71875 C 68.148438 30.800781 68.066406 30.875 67.980469 30.957031 L 67.484375 31.433594 L 66.992188 31.910156 L 66.46875 32.359375 C 66.117188 32.65625 65.777344 32.960938 65.402344 33.226562 C 63.945312 34.347656 62.382812 35.335938 60.722656 36.117188 C 59.0625 36.910156 57.320312 37.523438 55.53125 37.9375 L 54.859375 38.078125 C 54.632812 38.125 54.410156 38.171875 54.179688 38.203125 C 53.726562 38.265625 53.273438 38.34375 52.816406 38.371094 L 52.128906 38.425781 L 51.441406 38.441406 L 51.101562 38.441406 C 50.984375 38.441406 50.871094 38.433594 50.757812 38.429688 C 50.53125 38.417969 50.300781 38.40625 50.070312 38.386719 C 49.941406 38.378906 49.847656 38.265625 49.859375 38.140625 C 49.867188 38.027344 49.953125 37.941406 50.058594 37.929688 L 50.070312 37.925781 C 50.292969 37.898438 50.511719 37.871094 50.734375 37.851562 L 51.066406 37.816406 L 52.0625 37.6875 L 52.714844 37.578125 C 53.59375 37.441406 54.457031 37.246094 55.316406 37.042969 C 57.03125 36.613281 58.695312 35.988281 60.285156 35.21875 L 61.460938 34.609375 L 62.605469 33.941406 C 62.976562 33.707031 63.34375 33.457031 63.714844 33.214844 C 63.902344 33.097656 64.074219 32.960938 64.253906 32.828125 L 64.785156 32.433594 C 65.144531 32.175781 65.476562 31.878906 65.820312 31.597656 L 66.328125 31.175781 L 67.304688 30.269531 C 67.382812 30.191406 67.46875 30.117188 67.546875 30.039062 L 67.777344 29.800781 L 68.703125 28.84375 L 68.789062 28.757812 L 68.871094 28.722656 C 69.785156 28.335938 70.683594 27.917969 71.503906 27.40625 C 71.910156 27.148438 72.300781 26.867188 72.640625 26.550781 C 72.980469 26.234375 73.261719 25.878906 73.464844 25.492188 C 73.867188 24.71875 73.824219 23.796875 73.492188 22.925781 C 73.332031 22.488281 73.117188 22.0625 72.871094 21.648438 L 72.679688 21.339844 C 72.613281 21.25 72.554688 21.148438 72.480469 21.0625 C 72.347656 20.875 72.191406 20.714844 72.03125 20.5625 C 71.699219 20.265625 71.324219 20.039062 70.90625 19.902344 C 70.488281 19.765625 70.035156 19.722656 69.578125 19.738281 C 68.65625 19.78125 67.726562 20.082031 66.835938 20.46875 C 65.929688 20.875 65.023438 21.304688 64.144531 21.765625 C 63.699219 21.996094 63.265625 22.230469 62.839844 22.480469 C 62.628906 22.609375 62.421875 22.738281 62.21875 22.867188 C 62.113281 22.933594 62.015625 23.003906 61.917969 23.070312 L 61.601562 23.285156 C 61.386719 23.429688 61.179688 23.585938 60.960938 23.714844 L 60.304688 24.121094 C 59.855469 24.371094 59.414062 24.628906 58.953125 24.855469 C 58.039062 25.320312 57.105469 25.738281 56.160156 26.113281 C 55.210938 26.488281 54.257812 26.835938 53.289062 27.148438 C 52.324219 27.460938 51.351562 27.75 50.371094 28.011719 C 48.414062 28.539062 46.433594 28.976562 44.445312 29.351562 C 43.449219 29.539062 42.453125 29.707031 41.453125 29.859375 C 40.449219 30.011719 39.453125 30.148438 38.433594 30.261719 C 38.179688 30.285156 37.953125 30.105469 37.925781 29.851562 C 37.898438 29.59375 38.082031 29.367188 38.335938 29.339844 Z M 38.339844 29.339844 " fill-opacity="1" fill-rule="nonzero"/><path fill="#371a45" d="M 47.960938 28.636719 C 47.679688 30.386719 47.160156 32.125 46.378906 33.796875 C 46.316406 33.929688 46.25 34.058594 46.1875 34.1875 C 46.019531 34.527344 45.84375 34.863281 45.65625 35.1875 C 42.703125 40.355469 37.6875 43.417969 32.449219 43.703125 C 32.136719 43.71875 31.824219 43.726562 31.515625 43.722656 C 31.5 43.722656 31.488281 43.722656 31.476562 43.722656 C 30.628906 43.714844 29.78125 43.632812 28.9375 43.476562 C 28.59375 43.410156 28.25 43.332031 27.90625 43.242188 C 27.160156 41.472656 26.605469 39.65625 26.289062 37.855469 L 34.378906 33.964844 L 40.097656 31.214844 L 38.730469 30.238281 C 38.730469 30.234375 42.921875 29.816406 47.960938 28.636719 Z M 47.960938 28.636719 " fill-opacity="0.25" fill-rule="nonzero"/><path fill="#ffffff" d="M 11.636719 30.339844 C 12.898438 33.15625 14.882812 35.671875 17.492188 37.59375 C 18.023438 37.984375 18.582031 38.351562 19.160156 38.6875 C 19.445312 38.855469 19.734375 39.015625 20.03125 39.167969 C 20.925781 39.628906 21.839844 40.011719 22.769531 40.316406 C 23.566406 40.582031 24.375 40.789062 25.191406 40.941406 C 26.171875 41.125 27.160156 41.226562 28.144531 41.253906 C 28.503906 41.261719 28.859375 41.261719 29.21875 41.253906 C 35.753906 41.050781 42.003906 37.464844 45.261719 31.332031 C 50.0625 22.296875 46.539062 11.15625 37.40625 6.445312 C 35.648438 5.539062 33.804688 4.9375 31.945312 4.625 C 31.726562 4.585938 31.507812 4.550781 31.289062 4.523438 C 30.703125 4.445312 30.117188 4.394531 29.53125 4.371094 C 28.175781 4.316406 26.828125 4.414062 25.507812 4.644531 C 24.1875 4.875 22.894531 5.25 21.65625 5.75 C 21.261719 5.90625 20.875 6.082031 20.492188 6.265625 C 19.917969 6.546875 19.355469 6.855469 18.8125 7.195312 C 16.089844 8.875 13.769531 11.273438 12.171875 14.285156 C 9.417969 19.480469 9.410156 25.375 11.636719 30.339844 Z M 11.636719 30.339844 " fill-opacity="1" fill-rule="nonzero"/><path fill="#371a45" d="M 28.636719 41.308594 C 28.46875 41.308594 28.308594 41.304688 28.144531 41.304688 C 27.144531 41.277344 26.148438 41.167969 25.183594 40.988281 C 24.355469 40.832031 23.539062 40.621094 22.753906 40.363281 C 21.816406 40.054688 20.894531 39.667969 20.011719 39.210938 C 19.6875 39.042969 19.398438 38.886719 19.136719 38.730469 C 18.566406 38.398438 18.003906 38.03125 17.464844 37.632812 C 14.914062 35.757812 12.886719 33.242188 11.59375 30.363281 C 9.261719 25.167969 9.460938 19.300781 12.132812 14.261719 C 13.683594 11.347656 15.980469 8.890625 18.789062 7.15625 C 19.324219 6.824219 19.886719 6.511719 20.472656 6.222656 C 20.847656 6.042969 21.242188 5.867188 21.640625 5.703125 C 22.882812 5.199219 24.179688 4.828125 25.5 4.597656 C 26.835938 4.359375 28.1875 4.269531 29.535156 4.324219 C 30.121094 4.347656 30.714844 4.398438 31.296875 4.476562 C 31.53125 4.507812 31.746094 4.539062 31.953125 4.574219 C 33.847656 4.898438 35.691406 5.511719 37.425781 6.402344 C 41.875 8.695312 45.140625 12.566406 46.617188 17.300781 C 48.085938 22 47.621094 26.992188 45.300781 31.355469 C 42.15625 37.28125 35.988281 41.089844 29.214844 41.296875 C 29.027344 41.304688 28.832031 41.308594 28.636719 41.308594 Z M 11.679688 30.320312 C 12.964844 33.1875 14.984375 35.6875 17.519531 37.554688 C 18.054688 37.949219 18.617188 38.320312 19.183594 38.648438 C 19.445312 38.800781 19.730469 38.960938 20.050781 39.125 C 20.929688 39.578125 21.851562 39.964844 22.78125 40.269531 C 23.558594 40.527344 24.375 40.742188 25.199219 40.894531 C 26.160156 41.074219 27.152344 41.179688 28.144531 41.207031 C 28.5 41.214844 28.859375 41.214844 29.214844 41.203125 C 35.957031 40.996094 42.089844 37.207031 45.21875 31.308594 C 47.523438 26.96875 47.988281 22.003906 46.527344 17.328125 C 45.054688 12.617188 41.808594 8.769531 37.382812 6.488281 C 35.65625 5.601562 33.824219 4.984375 31.9375 4.667969 C 31.730469 4.628906 31.515625 4.597656 31.285156 4.566406 C 30.699219 4.488281 30.109375 4.4375 29.53125 4.414062 C 28.191406 4.359375 26.84375 4.453125 25.515625 4.6875 C 24.203125 4.917969 22.914062 5.289062 21.675781 5.789062 C 21.28125 5.949219 20.886719 6.125 20.515625 6.308594 C 19.929688 6.59375 19.367188 6.902344 18.835938 7.234375 C 16.042969 8.960938 13.753906 11.40625 12.214844 14.300781 C 9.554688 19.316406 9.359375 25.152344 11.679688 30.320312 Z M 11.679688 30.320312 " fill-opacity="1" fill-rule="nonzero"/><path fill="#371a45" d="M 45.261719 31.332031 C 42.007812 37.464844 35.757812 41.054688 29.21875 41.253906 C 28.859375 41.261719 28.503906 41.261719 28.144531 41.253906 C 27.160156 41.226562 26.171875 41.125 25.191406 40.941406 C 24.375 40.789062 23.566406 40.582031 22.769531 40.316406 C 21.839844 40.011719 20.925781 39.628906 20.027344 39.167969 C 19.734375 39.015625 19.441406 38.855469 19.160156 38.6875 C 18.578125 38.347656 18.019531 37.980469 17.488281 37.589844 C 14.882812 35.667969 12.898438 33.15625 11.632812 30.335938 C 10.941406 28.789062 10.460938 27.152344 10.21875 25.472656 C 11.488281 28.132812 13.40625 30.507812 15.894531 32.339844 C 16.425781 32.730469 16.980469 33.097656 17.5625 33.441406 C 17.84375 33.605469 18.136719 33.765625 18.433594 33.917969 C 19.328125 34.382812 20.242188 34.761719 21.167969 35.066406 C 21.96875 35.332031 22.777344 35.539062 23.59375 35.691406 C 24.574219 35.875 25.5625 35.980469 26.546875 36.003906 C 26.902344 36.011719 27.261719 36.011719 27.617188 36.003906 C 34.15625 35.804688 40.40625 32.21875 43.664062 26.082031 C 45.566406 22.503906 46.160156 18.59375 45.621094 14.886719 C 48.027344 19.933594 48.097656 26 45.261719 31.332031 Z M 45.261719 31.332031 " fill-opacity="0.25" fill-rule="nonzero"/><g clip-path="url(#f5ba1491f6)"><path fill="#371a45" d="M 28.636719 41.628906 C 28.46875 41.628906 28.300781 41.625 28.136719 41.621094 C 27.121094 41.59375 26.105469 41.484375 25.125 41.300781 C 24.28125 41.140625 23.449219 40.929688 22.652344 40.664062 C 21.699219 40.351562 20.761719 39.960938 19.863281 39.496094 C 19.535156 39.324219 19.242188 39.164062 18.976562 39.007812 C 18.394531 38.671875 17.824219 38.292969 17.273438 37.890625 C 14.683594 35.980469 12.617188 33.421875 11.300781 30.492188 C 8.929688 25.210938 9.128906 19.238281 11.851562 14.113281 C 13.425781 11.148438 15.765625 8.648438 18.625 6.882812 C 19.164062 6.550781 19.738281 6.230469 20.335938 5.941406 C 20.71875 5.753906 21.117188 5.574219 21.527344 5.414062 C 22.785156 4.898438 24.109375 4.523438 25.449219 4.285156 C 26.804688 4.046875 28.183594 3.953125 29.550781 4.007812 C 30.144531 4.03125 30.75 4.082031 31.34375 4.164062 C 31.582031 4.191406 31.804688 4.226562 32.015625 4.265625 C 33.941406 4.589844 35.816406 5.214844 37.582031 6.121094 C 42.105469 8.457031 45.425781 12.390625 46.929688 17.207031 C 48.425781 21.988281 47.949219 27.066406 45.589844 31.507812 C 42.390625 37.535156 36.121094 41.410156 29.234375 41.621094 C 29.03125 41.625 28.835938 41.628906 28.636719 41.628906 Z M 11.972656 30.191406 C 13.234375 33.003906 15.21875 35.460938 17.707031 37.296875 C 18.234375 37.6875 18.785156 38.046875 19.347656 38.371094 C 19.605469 38.523438 19.882812 38.679688 20.199219 38.84375 C 21.0625 39.289062 21.96875 39.667969 22.882812 39.96875 C 23.652344 40.222656 24.449219 40.429688 25.257812 40.578125 C 26.203125 40.757812 27.175781 40.859375 28.152344 40.886719 C 28.503906 40.894531 28.859375 40.894531 29.210938 40.886719 C 35.835938 40.679688 41.863281 36.953125 44.941406 31.160156 C 47.203125 26.894531 47.664062 22.019531 46.226562 17.429688 C 44.78125 12.800781 41.589844 9.015625 37.242188 6.777344 C 35.542969 5.902344 33.742188 5.300781 31.886719 4.988281 C 31.683594 4.949219 31.472656 4.921875 31.246094 4.890625 C 30.671875 4.8125 30.09375 4.761719 29.519531 4.742188 C 28.207031 4.691406 26.878906 4.78125 25.574219 5.011719 C 24.28125 5.234375 23.011719 5.601562 21.796875 6.09375 C 21.40625 6.25 21.023438 6.421875 20.65625 6.601562 C 20.082031 6.882812 19.527344 7.1875 19.007812 7.511719 C 16.261719 9.207031 14.011719 11.609375 12.5 14.460938 C 9.886719 19.378906 9.691406 25.113281 11.972656 30.191406 Z M 11.972656 30.191406 " fill-opacity="1" fill-rule="nonzero"/><path fill="#371a45" d="M 28.636719 41.734375 C 28.46875 41.734375 28.296875 41.730469 28.132812 41.730469 C 27.109375 41.703125 26.09375 41.59375 25.101562 41.40625 C 24.257812 41.25 23.421875 41.03125 22.617188 40.765625 C 21.664062 40.453125 20.71875 40.058594 19.8125 39.589844 C 19.480469 39.414062 19.1875 39.253906 18.921875 39.097656 C 18.335938 38.757812 17.761719 38.382812 17.210938 37.976562 C 14.601562 36.054688 12.523438 33.484375 11.203125 30.535156 C 8.816406 25.21875 9.019531 19.21875 11.757812 14.0625 C 13.339844 11.082031 15.691406 8.566406 18.566406 6.792969 C 19.109375 6.457031 19.6875 6.136719 20.285156 5.84375 C 20.671875 5.65625 21.074219 5.476562 21.480469 5.3125 C 22.75 4.796875 24.078125 4.417969 25.425781 4.179688 C 26.789062 3.9375 28.175781 3.84375 29.550781 3.898438 C 30.144531 3.921875 30.753906 3.976562 31.351562 4.054688 C 31.589844 4.085938 31.8125 4.121094 32.023438 4.15625 C 33.960938 4.484375 35.84375 5.113281 37.617188 6.027344 C 42.167969 8.371094 45.507812 12.332031 47.023438 17.175781 C 48.523438 21.984375 48.046875 27.089844 45.675781 31.558594 C 42.457031 37.621094 36.15625 41.519531 29.226562 41.730469 C 29.035156 41.730469 28.835938 41.734375 28.636719 41.734375 Z M 12.066406 30.144531 C 13.324219 32.945312 15.296875 35.386719 17.773438 37.210938 C 18.296875 37.59375 18.84375 37.953125 19.398438 38.277344 C 19.65625 38.429688 19.933594 38.582031 20.25 38.75 C 21.105469 39.191406 22.003906 39.566406 22.914062 39.867188 C 23.679688 40.117188 24.472656 40.324219 25.277344 40.476562 C 26.214844 40.652344 27.183594 40.757812 28.152344 40.78125 C 28.503906 40.789062 28.855469 40.789062 29.199219 40.777344 C 35.789062 40.578125 41.785156 36.871094 44.839844 31.109375 C 47.09375 26.871094 47.546875 22.019531 46.121094 17.457031 C 44.683594 12.859375 41.511719 9.097656 37.1875 6.867188 C 35.5 6 33.710938 5.402344 31.863281 5.089844 C 31.660156 5.054688 31.457031 5.023438 31.226562 4.992188 C 30.65625 4.917969 30.078125 4.863281 29.511719 4.84375 C 28.207031 4.792969 26.886719 4.882812 25.589844 5.113281 C 24.304688 5.335938 23.042969 5.699219 21.835938 6.191406 C 21.449219 6.347656 21.066406 6.515625 20.699219 6.695312 C 20.132812 6.976562 19.578125 7.277344 19.0625 7.601562 C 16.332031 9.289062 14.09375 11.679688 12.59375 14.507812 C 9.996094 19.398438 9.804688 25.097656 12.066406 30.144531 Z M 12.066406 30.144531 " fill-opacity="1" fill-rule="nonzero"/></g><path fill="#371a45" d="M 14.117188 34.375 C 24.417969 42.730469 39.699219 38.492188 41.535156 25.550781 C 42.789062 16.75 35.027344 8.773438 26.390625 8.15625 C 20.105469 7.710938 13.757812 9.984375 10.355469 19.429688 C 10.355469 19.429688 9.503906 23.835938 10.484375 26.890625 C 11.460938 29.945312 12.9375 32.746094 12.9375 32.746094 Z M 14.117188 34.375 " fill-opacity="1" fill-rule="nonzero"/><path fill="#220f2d" d="M 41.535156 25.550781 C 39.699219 38.492188 24.417969 42.730469 14.117188 34.375 L 13.878906 34.046875 C 25.714844 37.074219 38.253906 30.882812 40.359375 17.832031 C 41.453125 20.199219 41.921875 22.835938 41.535156 25.550781 Z M 41.535156 25.550781 " fill-opacity="1" fill-rule="nonzero"/><path fill="#371a45" d="M 26 41.054688 C 24.902344 41.054688 23.796875 40.964844 22.691406 40.785156 L 22.617188 40.769531 C 21.660156 40.457031 20.714844 40.058594 19.8125 39.59375 C 19.480469 39.417969 19.1875 39.257812 18.921875 39.101562 C 18.335938 38.761719 17.761719 38.382812 17.210938 37.980469 C 14.601562 36.058594 12.523438 33.484375 11.203125 30.539062 C 8.816406 25.222656 9.019531 19.21875 11.757812 14.0625 C 13.339844 11.085938 15.691406 8.570312 18.566406 6.796875 L 18.605469 6.769531 L 18.652344 6.753906 C 20.96875 5.910156 23.605469 5.585938 26.488281 5.792969 C 31.679688 6.164062 36.804688 8.898438 40.195312 13.105469 C 43.25 16.890625 44.582031 21.429688 43.953125 25.886719 C 43.265625 30.734375 40.921875 34.757812 37.175781 37.515625 C 34.042969 39.820312 30.09375 41.054688 26 41.054688 Z M 22.878906 39.855469 C 27.847656 40.65625 32.851562 39.519531 36.617188 36.75 C 40.148438 34.144531 42.363281 30.34375 43.015625 25.75 C 43.609375 21.558594 42.347656 17.277344 39.460938 13.695312 C 36.230469 9.691406 31.355469 7.085938 26.421875 6.738281 C 23.691406 6.539062 21.203125 6.839844 19.019531 7.625 C 16.308594 9.308594 14.085938 11.6875 12.59375 14.507812 C 9.992188 19.398438 9.800781 25.097656 12.066406 30.148438 C 13.320312 32.945312 15.292969 35.390625 17.769531 37.210938 C 18.292969 37.597656 18.839844 37.957031 19.398438 38.28125 C 19.65625 38.433594 19.929688 38.585938 20.246094 38.75 C 21.097656 39.183594 21.984375 39.558594 22.878906 39.855469 Z M 22.878906 39.855469 " fill-opacity="1" fill-rule="nonzero"/><path fill="#371a45" d="M 26.007812 39.167969 C 21.730469 39.167969 17.398438 37.644531 13.820312 34.742188 L 13.773438 34.703125 L 12.519531 32.960938 C 12.457031 32.847656 11.011719 30.089844 10.03125 27.03125 C 9.027344 23.902344 9.855469 19.519531 9.890625 19.335938 L 9.910156 19.269531 C 12.886719 11.011719 18.4375 7.113281 26.421875 7.683594 C 31.054688 8.011719 35.625 10.453125 38.652344 14.207031 C 41.378906 17.585938 42.570312 21.640625 42.003906 25.621094 C 41.1875 31.382812 37.675781 35.886719 32.363281 37.976562 C 30.332031 38.777344 28.175781 39.167969 26.007812 39.167969 Z M 14.464844 34.046875 C 19.585938 38.171875 26.308594 39.339844 32.015625 37.09375 C 37 35.132812 40.300781 30.902344 41.070312 25.484375 C 41.597656 21.773438 40.476562 17.976562 37.917969 14.804688 C 35.054688 11.25 30.730469 8.941406 26.359375 8.628906 C 18.863281 8.09375 13.632812 11.769531 10.816406 19.550781 C 10.742188 19.96875 10.050781 23.984375 10.933594 26.742188 C 11.839844 29.558594 13.1875 32.191406 13.34375 32.492188 Z M 14.464844 34.046875 " fill-opacity="1" fill-rule="nonzero"/><path fill="#ffffff" d="M 49.863281 25.371094 C 49.792969 29.007812 47.5625 32.027344 44.871094 32.105469 C 42.183594 32.191406 40.066406 29.308594 40.132812 25.667969 C 40.132812 25.644531 40.132812 25.621094 40.132812 25.597656 C 40.230469 21.988281 42.453125 19.011719 45.121094 18.929688 C 47.195312 18.867188 48.9375 20.570312 49.585938 23.03125 C 49.78125 23.753906 49.878906 24.542969 49.863281 25.371094 Z M 49.863281 25.371094 " fill-opacity="1" fill-rule="nonzero"/><path fill="#371a45" d="M 49.863281 25.371094 C 49.792969 29.007812 47.5625 32.027344 44.871094 32.105469 C 42.183594 32.191406 40.066406 29.308594 40.132812 25.667969 C 40.132812 25.644531 40.132812 25.621094 40.132812 25.597656 C 40.421875 25.960938 40.875 26.316406 41.5 26.171875 C 42.59375 25.917969 44.597656 23.519531 44.597656 23.519531 C 44.597656 23.519531 46.761719 23.292969 49.585938 23.027344 C 49.78125 23.753906 49.878906 24.542969 49.863281 25.371094 Z M 49.863281 25.371094 " fill-opacity="0.25" fill-rule="nonzero"/><path fill="#371a45" d="M 44.761719 32.585938 C 43.625 32.585938 42.5625 32.125 41.675781 31.246094 C 40.355469 29.9375 39.617188 27.902344 39.660156 25.660156 C 39.734375 21.777344 42.179688 18.546875 45.109375 18.457031 C 46.289062 18.421875 47.402344 18.882812 48.320312 19.789062 C 49.644531 21.097656 50.378906 23.136719 50.335938 25.378906 C 50.265625 29.261719 47.816406 32.492188 44.890625 32.582031 C 44.847656 32.582031 44.804688 32.585938 44.761719 32.585938 Z M 45.238281 19.402344 C 45.203125 19.402344 45.171875 19.402344 45.136719 19.40625 C 42.703125 19.480469 40.671875 22.292969 40.609375 25.679688 C 40.570312 27.628906 41.21875 29.460938 42.34375 30.570312 C 43.074219 31.296875 43.945312 31.664062 44.863281 31.632812 C 47.296875 31.558594 49.328125 28.742188 49.390625 25.359375 C 49.429688 23.40625 48.78125 21.578125 47.65625 20.464844 C 46.953125 19.769531 46.117188 19.402344 45.238281 19.402344 Z M 49.863281 25.371094 Z M 49.863281 25.371094 " fill-opacity="1" fill-rule="nonzero"/><path fill="#ffffff" d="M 47.15625 20.890625 C 47.414062 20.917969 47.664062 20.984375 47.910156 21.078125 C 48.15625 21.175781 48.390625 21.300781 48.613281 21.460938 C 48.835938 21.617188 49.042969 21.804688 49.238281 22.019531 C 49.429688 22.234375 49.601562 22.472656 49.757812 22.734375 C 49.910156 22.996094 50.042969 23.28125 50.15625 23.582031 C 50.265625 23.882812 50.351562 24.195312 50.414062 24.523438 C 50.476562 24.847656 50.515625 25.183594 50.523438 25.523438 C 50.535156 25.863281 50.523438 26.207031 50.484375 26.546875 C 50.445312 26.890625 50.378906 27.226562 50.292969 27.554688 C 50.203125 27.882812 50.089844 28.199219 49.957031 28.503906 C 49.820312 28.808594 49.664062 29.09375 49.488281 29.363281 C 49.3125 29.628906 49.121094 29.875 48.910156 30.09375 C 48.699219 30.316406 48.476562 30.507812 48.238281 30.671875 C 48.003906 30.839844 47.757812 30.972656 47.503906 31.074219 C 47.25 31.179688 46.996094 31.25 46.734375 31.285156 C 46.472656 31.324219 46.214844 31.328125 45.957031 31.296875 C 45.699219 31.269531 45.445312 31.207031 45.199219 31.109375 C 44.957031 31.011719 44.722656 30.886719 44.5 30.726562 C 44.273438 30.570312 44.066406 30.382812 43.875 30.167969 C 43.683594 29.953125 43.507812 29.714844 43.355469 29.453125 C 43.199219 29.191406 43.066406 28.910156 42.957031 28.609375 C 42.847656 28.308594 42.757812 27.992188 42.695312 27.664062 C 42.636719 27.339844 42.597656 27.003906 42.585938 26.664062 C 42.574219 26.324219 42.589844 25.980469 42.628906 25.640625 C 42.667969 25.296875 42.730469 24.960938 42.820312 24.632812 C 42.910156 24.304688 43.019531 23.988281 43.15625 23.683594 C 43.292969 23.378906 43.445312 23.09375 43.625 22.824219 C 43.800781 22.558594 43.992188 22.3125 44.203125 22.09375 C 44.414062 21.871094 44.636719 21.679688 44.871094 21.515625 C 45.109375 21.347656 45.355469 21.214844 45.605469 21.113281 C 45.859375 21.007812 46.117188 20.9375 46.378906 20.902344 C 46.636719 20.863281 46.898438 20.859375 47.15625 20.890625 Z M 47.15625 20.890625 " fill-opacity="1" fill-rule="nonzero"/><path fill="#371a45" d="M 46.292969 31.371094 C 45.789062 31.371094 45.292969 31.242188 44.824219 30.988281 C 42.824219 29.910156 41.972656 26.839844 42.917969 24.140625 C 43.449219 22.636719 44.441406 21.507812 45.644531 21.042969 C 46.539062 20.695312 47.449219 20.75 48.285156 21.199219 C 50.28125 22.277344 51.136719 25.347656 50.191406 28.046875 L 50.144531 28.03125 L 50.191406 28.046875 C 49.660156 29.550781 48.667969 30.679688 47.464844 31.144531 C 47.074219 31.296875 46.683594 31.371094 46.292969 31.371094 Z M 46.8125 20.914062 C 46.4375 20.914062 46.054688 20.988281 45.679688 21.132812 C 44.5 21.589844 43.527344 22.699219 43.007812 24.175781 C 42.074219 26.828125 42.910156 29.84375 44.871094 30.902344 C 45.675781 31.335938 46.558594 31.386719 47.425781 31.050781 C 48.605469 30.59375 49.578125 29.484375 50.097656 28.011719 C 51.03125 25.355469 50.195312 22.339844 48.234375 21.285156 C 47.78125 21.039062 47.300781 20.914062 46.8125 20.914062 Z M 46.8125 20.914062 " fill-opacity="1" fill-rule="nonzero"/><path fill="#371a45" d="M 42.773438 28.253906 C 42.546875 27.285156 42.589844 26.253906 42.84375 25.289062 C 43.546875 27.449219 45.511719 28.355469 47.390625 27.3125 C 48.609375 26.640625 49.515625 25.308594 49.90625 23.816406 C 49.953125 23.953125 49.988281 24.09375 50.023438 24.242188 C 50.597656 26.699219 49.441406 29.59375 47.441406 30.699219 C 45.441406 31.808594 43.347656 30.710938 42.773438 28.253906 Z M 42.773438 28.253906 " fill-opacity="0.25" fill-rule="nonzero"/><path fill="#371a45" d="M 46.351562 31.804688 C 45.519531 31.804688 44.730469 31.460938 44.070312 30.808594 C 43 29.753906 42.386719 27.988281 42.429688 26.089844 C 42.503906 22.882812 44.414062 20.199219 46.683594 20.113281 C 47.5625 20.082031 48.394531 20.421875 49.085938 21.105469 C 50.15625 22.15625 50.769531 23.925781 50.726562 25.824219 C 50.652344 29.03125 48.742188 31.714844 46.472656 31.800781 C 46.429688 31.804688 46.394531 31.804688 46.351562 31.804688 Z M 46.796875 21.058594 C 46.769531 21.058594 46.742188 21.058594 46.71875 21.0625 C 44.9375 21.132812 43.4375 23.398438 43.375 26.113281 C 43.339844 27.757812 43.84375 29.261719 44.734375 30.136719 C 45.238281 30.632812 45.824219 30.882812 46.4375 30.859375 C 48.214844 30.789062 49.714844 28.523438 49.777344 25.808594 C 49.816406 24.164062 49.308594 22.660156 48.417969 21.78125 C 47.9375 21.304688 47.378906 21.058594 46.796875 21.058594 Z M 50.25 25.816406 Z M 50.25 25.816406 " fill-opacity="1" fill-rule="nonzero"/><path fill="#ffffff" d="M 30.578125 11.710938 C 30.578125 11.710938 22.089844 11.640625 17.078125 16.109375 C 17.070312 16.113281 17.066406 16.121094 17.058594 16.121094 C 16.003906 17.0625 15.226562 18.269531 14.796875 19.609375 C 14.230469 21.378906 14.101562 22.679688 14.03125 23.824219 C 13.824219 27.320312 14.386719 28.992188 14.386719 28.992188 C 12.484375 27.035156 11.476562 24.875 11.621094 21.964844 C 11.636719 21.679688 11.660156 21.382812 11.699219 21.082031 C 11.707031 21.011719 11.714844 20.941406 11.726562 20.871094 C 11.726562 20.871094 11.726562 20.867188 11.726562 20.867188 C 11.84375 20.257812 12.03125 19.464844 12.3125 18.589844 C 13.171875 15.941406 14.921875 12.527344 18.429688 11.089844 C 24.988281 8.402344 30.894531 11.363281 30.578125 11.710938 Z M 30.578125 11.710938 " fill-opacity="0.5" fill-rule="nonzero"/><g mask="url(#fa5d820518)"><g transform="matrix(1, 0, 0, 1, 33, 17)"><g clip-path="url(#130f872e72)"><g clip-path="url(#46186f9835)"><path fill="#ffffff" d="M 5.804688 3.128906 C 5.882812 3.503906 5.898438 3.875 5.851562 4.246094 C 5.800781 4.617188 5.691406 4.957031 5.519531 5.273438 C 5.347656 5.585938 5.128906 5.84375 4.859375 6.054688 C 4.589844 6.261719 4.296875 6.398438 3.972656 6.46875 C 3.648438 6.539062 3.320312 6.535156 2.992188 6.460938 C 2.660156 6.382812 2.355469 6.238281 2.066406 6.023438 C 1.78125 5.808594 1.539062 5.542969 1.339844 5.226562 C 1.140625 4.910156 1.003906 4.566406 0.921875 4.191406 C 0.839844 3.820312 0.824219 3.449219 0.875 3.078125 C 0.921875 2.707031 1.035156 2.363281 1.207031 2.050781 C 1.378906 1.738281 1.597656 1.476562 1.863281 1.269531 C 2.132812 1.0625 2.429688 0.921875 2.753906 0.851562 C 3.078125 0.78125 3.402344 0.785156 3.734375 0.863281 C 4.0625 0.941406 4.371094 1.085938 4.65625 1.300781 C 4.941406 1.511719 5.183594 1.777344 5.382812 2.09375 C 5.582031 2.414062 5.722656 2.757812 5.804688 3.128906 Z M 5.804688 3.128906 " fill-opacity="1" fill-rule="nonzero"/></g></g></g></g><g mask="url(#893ac86e1d)"><g transform="matrix(1, 0, 0, 1, 36, 24)"><g clip-path="url(#c44d46fe8c)"><g clip-path="url(#612f4bccd3)"><path fill="#ffffff" d="M 2.410156 1.457031 C 2.457031 1.609375 2.476562 1.761719 2.472656 1.914062 C 2.464844 2.070312 2.433594 2.214844 2.375 2.351562 C 2.316406 2.484375 2.234375 2.601562 2.132812 2.695312 C 2.03125 2.792969 1.914062 2.859375 1.785156 2.902344 C 1.652344 2.945312 1.519531 2.953125 1.382812 2.933594 C 1.242188 2.917969 1.109375 2.867188 0.984375 2.792969 C 0.859375 2.714844 0.75 2.613281 0.65625 2.492188 C 0.5625 2.367188 0.492188 2.230469 0.445312 2.082031 C 0.394531 1.933594 0.375 1.78125 0.382812 1.625 C 0.386719 1.46875 0.417969 1.324219 0.476562 1.191406 C 0.535156 1.054688 0.617188 0.9375 0.71875 0.84375 C 0.820312 0.746094 0.9375 0.679688 1.066406 0.636719 C 1.199219 0.597656 1.332031 0.585938 1.46875 0.605469 C 1.609375 0.625 1.742188 0.671875 1.867188 0.75 C 1.992188 0.824219 2.101562 0.925781 2.195312 1.046875 C 2.289062 1.171875 2.359375 1.308594 2.410156 1.457031 Z M 2.410156 1.457031 " fill-opacity="1" fill-rule="nonzero"/></g></g></g></g><path fill="#ffffff" d="M 60.195312 23.644531 C 60.667969 23.449219 61.207031 22.804688 61.335938 22.558594 C 61.589844 22.050781 61.964844 21.429688 62.390625 20.636719 C 63.121094 19.269531 65.011719 17.402344 66.097656 18.042969 C 67.832031 19.0625 65.449219 21.089844 65.472656 21.492188 C 65.496094 21.894531 66.59375 23.75 65.675781 25.800781 Z M 60.195312 23.644531 " fill-opacity="1" fill-rule="nonzero"/><path fill="#371a45" d="M 60.023438 23.21875 C 60.113281 23.179688 60.234375 23.097656 60.347656 23.003906 C 60.464844 22.90625 60.578125 22.792969 60.679688 22.675781 C 60.730469 22.617188 60.78125 22.554688 60.824219 22.496094 C 60.871094 22.4375 60.910156 22.378906 60.929688 22.335938 C 61.015625 22.171875 61.105469 22.011719 61.191406 21.851562 L 61.710938 20.917969 L 61.964844 20.453125 C 62.054688 20.285156 62.15625 20.113281 62.261719 19.957031 C 62.472656 19.636719 62.703125 19.335938 62.953125 19.054688 C 63.207031 18.773438 63.476562 18.503906 63.777344 18.257812 C 64.074219 18.015625 64.402344 17.789062 64.792969 17.621094 C 64.988281 17.539062 65.207031 17.472656 65.445312 17.449219 C 65.683594 17.421875 65.960938 17.449219 66.210938 17.5625 C 66.34375 17.625 66.425781 17.683594 66.523438 17.746094 C 66.617188 17.816406 66.707031 17.886719 66.792969 17.976562 C 66.964844 18.15625 67.109375 18.394531 67.171875 18.652344 C 67.238281 18.914062 67.226562 19.175781 67.179688 19.398438 C 67.136719 19.628906 67.058594 19.828125 66.96875 20.015625 C 66.792969 20.386719 66.574219 20.703125 66.359375 21.003906 L 66.046875 21.421875 C 66.003906 21.488281 65.960938 21.558594 65.949219 21.578125 C 65.941406 21.59375 65.953125 21.574219 65.953125 21.566406 C 65.949219 21.566406 65.964844 21.53125 65.964844 21.507812 C 65.964844 21.492188 65.964844 21.480469 65.964844 21.464844 C 65.960938 21.453125 65.964844 21.464844 65.964844 21.460938 C 65.960938 21.457031 65.964844 21.46875 65.964844 21.476562 L 65.972656 21.5 C 66.011719 21.628906 66.074219 21.8125 66.132812 21.988281 C 66.1875 22.160156 66.242188 22.34375 66.289062 22.527344 C 66.386719 22.898438 66.449219 23.28125 66.464844 23.671875 C 66.5 24.449219 66.300781 25.25 65.886719 25.890625 C 65.820312 25.996094 65.675781 26.03125 65.566406 25.960938 C 65.484375 25.90625 65.445312 25.808594 65.464844 25.71875 L 65.46875 25.703125 C 65.539062 25.363281 65.613281 25.042969 65.621094 24.714844 C 65.632812 24.632812 65.632812 24.550781 65.632812 24.46875 C 65.632812 24.386719 65.640625 24.308594 65.632812 24.226562 L 65.621094 23.980469 L 65.589844 23.738281 C 65.546875 23.417969 65.480469 23.097656 65.386719 22.777344 C 65.34375 22.617188 65.289062 22.457031 65.230469 22.292969 C 65.171875 22.128906 65.109375 21.976562 65.042969 21.765625 L 65.03125 21.722656 C 65.027344 21.710938 65.023438 21.699219 65.019531 21.671875 C 65.011719 21.628906 65 21.585938 64.996094 21.542969 C 64.996094 21.527344 64.992188 21.523438 64.992188 21.5 C 64.992188 21.476562 64.992188 21.453125 64.996094 21.429688 C 65 21.382812 65.011719 21.320312 65.019531 21.304688 C 65.035156 21.253906 65.054688 21.195312 65.070312 21.167969 C 65.136719 21.027344 65.191406 20.953125 65.25 20.867188 C 65.359375 20.707031 65.464844 20.566406 65.566406 20.421875 C 65.769531 20.144531 65.953125 19.867188 66.085938 19.59375 C 66.21875 19.320312 66.277344 19.054688 66.230469 18.882812 C 66.210938 18.796875 66.167969 18.71875 66.09375 18.636719 C 66.058594 18.597656 66.011719 18.558594 65.964844 18.519531 C 65.910156 18.484375 65.847656 18.441406 65.816406 18.429688 C 65.671875 18.355469 65.425781 18.371094 65.15625 18.484375 C 64.886719 18.59375 64.617188 18.773438 64.363281 18.976562 C 63.851562 19.390625 63.394531 19.910156 63.03125 20.460938 C 62.941406 20.601562 62.859375 20.738281 62.78125 20.882812 L 62.519531 21.363281 L 62 22.296875 C 61.914062 22.449219 61.828125 22.601562 61.75 22.757812 C 61.691406 22.875 61.625 22.960938 61.566406 23.046875 C 61.503906 23.128906 61.4375 23.207031 61.371094 23.28125 C 61.242188 23.429688 61.097656 23.574219 60.941406 23.703125 C 60.78125 23.835938 60.605469 23.964844 60.371094 24.066406 C 60.136719 24.167969 59.863281 24.058594 59.765625 23.824219 C 59.667969 23.59375 59.773438 23.320312 60.007812 23.21875 Z M 60.023438 23.21875 " fill-opacity="1" fill-rule="nonzero"/><path fill="#ffffff" d="M 28.546875 49.683594 L 36.597656 56.203125 L 42.886719 55.289062 L 46.210938 54.808594 C 46.210938 54.808594 48.476562 53.230469 49.023438 52.835938 C 49.761719 52.308594 49.1875 51.394531 48.667969 50.9375 C 47.78125 50.152344 47.03125 49.339844 46.386719 48.542969 C 45.347656 47.253906 44.566406 46.015625 43.878906 45.007812 C 43.316406 44.183594 42.269531 43.839844 41.332031 44.179688 C 35.730469 46.21875 30.066406 47.585938 30.066406 47.585938 Z M 28.546875 49.683594 " fill-opacity="1" fill-rule="nonzero"/><path fill="#371a45" d="M 36.601562 56.609375 C 36.507812 56.609375 36.417969 56.578125 36.347656 56.519531 L 28.292969 49.996094 C 28.125 49.859375 28.09375 49.617188 28.222656 49.441406 L 29.742188 47.347656 C 29.796875 47.269531 29.882812 47.210938 29.976562 47.191406 C 30.03125 47.175781 35.683594 45.800781 41.195312 43.796875 C 42.308594 43.390625 43.550781 43.796875 44.222656 44.777344 C 44.371094 44.996094 44.53125 45.230469 44.691406 45.472656 C 45.710938 46.996094 46.980469 48.894531 48.941406 50.628906 C 49.371094 51.007812 49.816406 51.636719 49.785156 52.253906 C 49.765625 52.621094 49.585938 52.9375 49.265625 53.167969 C 48.726562 53.554688 46.542969 55.074219 46.453125 55.140625 C 46.402344 55.175781 46.339844 55.199219 46.277344 55.210938 L 36.664062 56.609375 C 36.636719 56.609375 36.621094 56.609375 36.601562 56.609375 Z M 29.101562 49.609375 L 36.71875 55.777344 L 46.058594 54.417969 C 46.464844 54.136719 48.308594 52.847656 48.785156 52.503906 C 48.9375 52.394531 48.964844 52.289062 48.96875 52.210938 C 48.984375 51.917969 48.691406 51.5 48.402344 51.238281 C 46.359375 49.433594 45.058594 47.488281 44.011719 45.925781 C 43.851562 45.6875 43.699219 45.457031 43.550781 45.238281 C 43.089844 44.5625 42.234375 44.285156 41.476562 44.5625 C 36.414062 46.402344 31.242188 47.714844 30.3125 47.945312 Z M 29.101562 49.609375 " fill-opacity="1" fill-rule="nonzero"/><path fill="#371a45" d="M 42.886719 55.289062 L 46.210938 54.804688 C 46.210938 54.804688 48.476562 53.226562 49.023438 52.835938 C 49.585938 52.429688 49.382812 51.800781 49.027344 51.324219 C 48.917969 51.175781 48.789062 51.039062 48.667969 50.933594 C 47.78125 50.152344 47.035156 49.335938 46.390625 48.539062 C 46.359375 48.984375 45.671875 49.5 44.625 49.375 C 44.152344 49.320312 42.609375 47.617188 41.839844 47.550781 C 39.585938 47.351562 41.792969 53.09375 42.886719 55.289062 Z M 42.886719 55.289062 " fill-opacity="0.3" fill-rule="nonzero"/><path fill="#ffffff" d="M 55.054688 39.027344 C 55.632812 39.46875 55.957031 40.199219 55.863281 40.855469 C 54.730469 49.101562 47.285156 52.457031 45.535156 50.914062 C 43.929688 49.503906 44.882812 48.007812 44.882812 48.007812 C 44.882812 48.007812 50.65625 46.433594 52.675781 39.367188 C 52.9375 38.453125 53.980469 38.207031 54.835938 38.859375 Z M 55.054688 39.027344 " fill-opacity="1" fill-rule="nonzero"/><path fill="#371a45" d="M 45.535156 50.914062 C 47.285156 52.453125 54.730469 49.097656 55.863281 40.851562 C 55.953125 40.199219 55.632812 39.46875 55.054688 39.023438 L 54.835938 38.855469 C 54.527344 38.617188 54.191406 38.5 53.878906 38.488281 C 54.117188 38.871094 54.226562 39.320312 54.171875 39.738281 C 53.199219 46.800781 47.59375 50.277344 44.90625 50.15625 C 45.046875 50.410156 45.25 50.664062 45.535156 50.914062 Z M 45.535156 50.914062 " fill-opacity="0.3" fill-rule="nonzero"/><path fill="#371a45" d="M 46.738281 51.742188 C 46.113281 51.742188 45.59375 51.578125 45.230469 51.261719 C 43.726562 49.9375 44.09375 48.390625 44.496094 47.757812 L 44.589844 47.605469 L 44.761719 47.5625 C 44.816406 47.542969 50.316406 45.957031 52.230469 39.242188 C 52.386719 38.699219 52.769531 38.289062 53.285156 38.117188 C 53.867188 37.925781 54.554688 38.066406 55.117188 38.496094 L 55.335938 38.664062 C 56.039062 39.203125 56.433594 40.109375 56.324219 40.921875 C 55.566406 46.4375 51.933594 50.132812 48.675781 51.347656 C 47.960938 51.609375 47.304688 51.742188 46.738281 51.742188 Z M 45.203125 48.390625 C 45.046875 48.738281 44.796875 49.648438 45.839844 50.566406 C 46.25 50.929688 47.238281 50.894531 48.351562 50.476562 C 51.355469 49.359375 54.699219 45.929688 55.40625 40.792969 C 55.472656 40.304688 55.214844 39.730469 54.773438 39.394531 L 54.554688 39.226562 C 54.234375 38.980469 53.863281 38.894531 53.570312 38.992188 C 53.347656 39.066406 53.1875 39.238281 53.117188 39.492188 C 51.242188 46.070312 46.273438 48.035156 45.203125 48.390625 Z M 45.203125 48.390625 " fill-opacity="1" fill-rule="nonzero"/><path fill="#ffffff" d="M 35.417969 55.167969 C 35.957031 55.816406 36.550781 56.675781 36.550781 56.675781 C 36.550781 56.675781 37.964844 55.710938 38.070312 55.621094 C 38.421875 55.332031 38.082031 54.339844 37.3125 53.414062 C 36.542969 52.484375 35.632812 51.972656 35.28125 52.261719 C 35.023438 52.476562 33.878906 53.238281 33.878906 53.238281 C 33.878906 53.238281 35.214844 54.921875 35.417969 55.167969 Z M 35.417969 55.167969 " fill-opacity="1" fill-rule="nonzero"/><path fill="#ffffff" d="M 36.082031 54.230469 C 36.269531 54.453125 36.425781 54.6875 36.550781 54.929688 C 36.679688 55.167969 36.769531 55.402344 36.820312 55.625 C 36.871094 55.851562 36.882812 56.046875 36.847656 56.21875 C 36.816406 56.390625 36.742188 56.523438 36.628906 56.617188 C 36.519531 56.710938 36.375 56.757812 36.199219 56.761719 C 36.023438 56.761719 35.832031 56.714844 35.621094 56.625 C 35.410156 56.535156 35.199219 56.402344 34.984375 56.234375 C 34.773438 56.0625 34.570312 55.867188 34.386719 55.644531 C 34.203125 55.421875 34.046875 55.191406 33.917969 54.949219 C 33.789062 54.707031 33.699219 54.472656 33.648438 54.25 C 33.597656 54.027344 33.589844 53.828125 33.621094 53.65625 C 33.652344 53.484375 33.726562 53.351562 33.839844 53.257812 C 33.953125 53.164062 34.09375 53.117188 34.269531 53.117188 C 34.445312 53.113281 34.636719 53.160156 34.847656 53.25 C 35.058594 53.34375 35.269531 53.472656 35.484375 53.644531 C 35.699219 53.8125 35.898438 54.007812 36.082031 54.230469 Z M 36.082031 54.230469 " fill-opacity="1" fill-rule="nonzero"/><path fill="#ffffff" d="M 28.800781 50.082031 C 29.429688 50.757812 30.425781 51.835938 31.503906 52.929688 C 33.046875 54.496094 34.757812 56.101562 35.785156 56.609375 C 37.582031 57.496094 42.914062 56.101562 46.214844 54.804688 C 47.078125 54.464844 47.363281 53.398438 46.675781 52.765625 C 45.550781 51.738281 44.542969 50.691406 43.707031 49.757812 C 42.914062 48.878906 42.277344 48.105469 41.835938 47.550781 C 41.433594 47.042969 40.746094 46.867188 40.148438 47.113281 C 34.953125 49.261719 30.910156 49.445312 29.113281 49.390625 C 28.746094 49.382812 28.550781 49.816406 28.800781 50.082031 Z M 28.800781 50.082031 " fill-opacity="1" fill-rule="nonzero"/><path fill="#371a45" d="M 33.855469 54.894531 C 34.550781 55.535156 35.210938 56.078125 35.742188 56.414062 C 35.871094 56.496094 35.988281 56.5625 36.101562 56.617188 C 37.839844 57.476562 43.003906 56.125 46.199219 54.871094 C 47.035156 54.539062 47.3125 53.503906 46.644531 52.894531 C 45.554688 51.898438 44.582031 50.882812 43.773438 49.980469 C 43.835938 50.960938 43.585938 53.167969 40.441406 54.691406 C 39.628906 55.082031 38.703125 55.191406 37.742188 55.113281 C 37.773438 54.679688 37.519531 53.976562 37.050781 53.285156 C 36.398438 52.316406 35.566406 51.734375 35.203125 51.984375 C 34.976562 52.136719 34.125 52.597656 33.847656 52.746094 C 33.800781 52.761719 33.757812 52.785156 33.71875 52.808594 C 33.457031 52.984375 33.375 53.367188 33.453125 53.828125 C 33.503906 54.160156 33.640625 54.527344 33.855469 54.894531 Z M 33.855469 54.894531 " fill-opacity="0.3" fill-rule="nonzero"/><path fill="#371a45" d="M 35.292969 56.066406 C 35.035156 55.707031 34.859375 55.339844 34.769531 55.007812 C 34.199219 54.808594 33.65625 54.585938 33.152344 54.367188 C 33.859375 54.953125 34.59375 55.546875 35.292969 56.066406 Z M 35.292969 56.066406 " fill-opacity="0.3" fill-rule="nonzero"/><path fill="#371a45" d="M 37.445312 57.296875 C 36.695312 57.296875 36.0625 57.199219 35.605469 56.972656 C 33.847656 56.105469 30.339844 52.335938 28.65625 50.527344 L 28.503906 50.363281 C 28.277344 50.117188 28.21875 49.765625 28.355469 49.464844 C 28.492188 49.160156 28.792969 48.972656 29.125 48.984375 C 31.011719 49.042969 34.933594 48.828125 39.988281 46.738281 C 40.753906 46.425781 41.640625 46.652344 42.152344 47.296875 C 43 48.367188 44.753906 50.460938 46.945312 52.46875 C 47.355469 52.84375 47.535156 53.367188 47.433594 53.90625 C 47.328125 54.484375 46.925781 54.960938 46.359375 55.183594 C 43.871094 56.160156 40 57.296875 37.445312 57.296875 Z M 29.097656 49.796875 L 29.25 49.96875 C 30.773438 51.605469 34.339844 55.4375 35.964844 56.242188 C 37.464844 56.980469 42.375 55.875 46.0625 54.425781 C 46.371094 54.304688 46.582031 54.054688 46.640625 53.757812 C 46.667969 53.605469 46.675781 53.316406 46.402344 53.066406 C 44.167969 51.023438 42.386719 48.890625 41.519531 47.800781 C 41.234375 47.441406 40.734375 47.3125 40.304688 47.488281 C 35.105469 49.640625 31.050781 49.855469 29.097656 49.796875 Z M 29.097656 49.796875 " fill-opacity="1" fill-rule="nonzero"/><path fill="#22a7f0" d="M 35.417969 55.167969 C 35.957031 55.816406 36.550781 56.675781 36.550781 56.675781 C 36.550781 56.675781 37.964844 55.710938 38.070312 55.621094 C 38.421875 55.332031 38.082031 54.339844 37.3125 53.414062 C 36.542969 52.484375 35.632812 51.972656 35.28125 52.261719 C 35.023438 52.476562 33.878906 53.238281 33.878906 53.238281 C 33.878906 53.238281 35.214844 54.921875 35.417969 55.167969 Z M 35.417969 55.167969 " fill-opacity="1" fill-rule="nonzero"/><path fill="#ffffff" d="M 33.878906 53.238281 C 33.878906 53.238281 35.214844 54.917969 35.417969 55.167969 C 35.957031 55.816406 36.550781 56.675781 36.550781 56.675781 C 36.550781 56.675781 36.578125 56.65625 36.625 56.625 C 36.421875 56.347656 36.167969 56.019531 35.929688 55.734375 C 35.726562 55.484375 34.390625 53.800781 34.390625 53.800781 C 34.390625 53.800781 35.53125 53.039062 35.792969 52.828125 C 36.074219 52.589844 36.730469 52.882812 37.378906 53.5 C 37.355469 53.46875 37.335938 53.441406 37.308594 53.414062 C 36.539062 52.484375 35.628906 51.972656 35.277344 52.261719 C 35.023438 52.476562 33.878906 53.238281 33.878906 53.238281 Z M 33.878906 53.238281 " fill-opacity="0.8" fill-rule="nonzero"/><path fill="#371a45" d="M 35.667969 55.484375 C 36.125 56.0625 36.550781 56.675781 36.550781 56.675781 C 36.550781 56.675781 37.964844 55.710938 38.070312 55.621094 C 38.421875 55.332031 38.082031 54.339844 37.3125 53.414062 C 37.054688 53.101562 36.777344 52.835938 36.511719 52.628906 C 37.113281 53.460938 37.347656 54.277344 37.035156 54.535156 C 36.949219 54.605469 36.039062 55.230469 35.667969 55.484375 Z M 35.667969 55.484375 " fill-opacity="0.3" fill-rule="nonzero"/><path fill="#371a45" d="M 36.550781 57.015625 C 36.441406 57.015625 36.335938 56.964844 36.269531 56.867188 C 36.265625 56.859375 35.679688 56.011719 35.160156 55.382812 C 34.953125 55.136719 33.667969 53.519531 33.617188 53.449219 C 33.554688 53.375 33.53125 53.28125 33.546875 53.1875 C 33.558594 53.09375 33.613281 53.007812 33.691406 52.957031 C 34.007812 52.746094 34.867188 52.167969 35.0625 52 C 35.679688 51.484375 36.796875 52.257812 37.574219 53.195312 C 37.972656 53.671875 38.277344 54.1875 38.429688 54.644531 C 38.691406 55.398438 38.453125 55.742188 38.285156 55.882812 C 38.175781 55.972656 37.078125 56.726562 36.742188 56.957031 C 36.683594 56.996094 36.617188 57.015625 36.550781 57.015625 Z M 34.375 53.316406 C 34.765625 53.808594 35.53125 54.773438 35.679688 54.953125 C 36.039062 55.382812 36.414062 55.894531 36.636719 56.207031 C 37.21875 55.808594 37.785156 55.417969 37.855469 55.359375 C 37.945312 55.242188 37.78125 54.503906 37.054688 53.628906 C 36.324219 52.753906 35.632812 52.460938 35.496094 52.527344 C 35.308594 52.679688 34.738281 53.070312 34.375 53.316406 Z M 34.375 53.316406 " fill-opacity="1" fill-rule="nonzero"/><path fill="#22a7f0" d="M 36.082031 54.230469 C 36.269531 54.453125 36.425781 54.6875 36.550781 54.929688 C 36.679688 55.167969 36.769531 55.402344 36.820312 55.625 C 36.871094 55.851562 36.882812 56.046875 36.847656 56.21875 C 36.816406 56.390625 36.742188 56.523438 36.628906 56.617188 C 36.519531 56.710938 36.375 56.757812 36.199219 56.761719 C 36.023438 56.761719 35.832031 56.714844 35.621094 56.625 C 35.410156 56.535156 35.199219 56.402344 34.984375 56.234375 C 34.773438 56.0625 34.570312 55.867188 34.386719 55.644531 C 34.203125 55.421875 34.046875 55.191406 33.917969 54.949219 C 33.789062 54.707031 33.699219 54.472656 33.648438 54.25 C 33.597656 54.027344 33.589844 53.828125 33.621094 53.65625 C 33.652344 53.484375 33.726562 53.351562 33.839844 53.257812 C 33.953125 53.164062 34.09375 53.117188 34.269531 53.117188 C 34.445312 53.113281 34.636719 53.160156 34.847656 53.25 C 35.058594 53.34375 35.269531 53.472656 35.484375 53.644531 C 35.699219 53.8125 35.898438 54.007812 36.082031 54.230469 Z M 36.082031 54.230469 " fill-opacity="1" fill-rule="nonzero"/><path fill="#ffffff" d="M 34.386719 55.648438 C 34.4375 55.707031 34.488281 55.765625 34.539062 55.820312 C 34.058594 55.035156 33.957031 54.25 34.34375 53.929688 C 34.78125 53.5625 35.6875 53.921875 36.433594 54.726562 C 36.332031 54.5625 36.214844 54.398438 36.082031 54.234375 C 35.308594 53.304688 34.304688 52.871094 33.835938 53.261719 C 33.371094 53.652344 33.617188 54.722656 34.386719 55.648438 Z M 34.386719 55.648438 " fill-opacity="0.8" fill-rule="nonzero"/><path fill="#371a45" d="M 34.453125 55.726562 C 35.214844 56.601562 36.171875 57 36.628906 56.621094 C 37.097656 56.234375 36.847656 55.167969 36.078125 54.238281 C 35.675781 53.753906 35.207031 53.402344 34.789062 53.234375 C 34.808594 53.257812 34.832031 53.285156 34.851562 53.3125 C 35.625 54.238281 35.867188 55.304688 35.398438 55.699219 C 35.179688 55.878906 34.835938 55.878906 34.453125 55.726562 Z M 34.453125 55.726562 " fill-opacity="0.3" fill-rule="nonzero"/><path fill="#371a45" d="M 36.191406 57.105469 C 35.566406 57.105469 34.78125 56.65625 34.125 55.867188 C 33.207031 54.761719 32.988281 53.527344 33.621094 53.003906 C 34.253906 52.476562 35.421875 52.914062 36.339844 54.019531 C 37.257812 55.125 37.476562 56.359375 36.84375 56.882812 C 36.664062 57.03125 36.441406 57.105469 36.191406 57.105469 Z M 34.273438 53.460938 C 34.179688 53.460938 34.105469 53.484375 34.058594 53.527344 C 33.820312 53.726562 33.929688 54.566406 34.648438 55.433594 C 35.367188 56.296875 36.175781 56.5625 36.414062 56.363281 C 36.652344 56.164062 36.542969 55.324219 35.820312 54.457031 C 35.25 53.765625 34.628906 53.460938 34.273438 53.460938 Z M 34.273438 53.460938 " fill-opacity="1" fill-rule="nonzero"/><path fill="#371a45" d="M 42.3125 56.382812 C 42.230469 56.382812 42.148438 56.351562 42.089844 56.289062 L 39.699219 53.78125 C 39.257812 53.320312 39.199219 52.601562 39.558594 52.074219 C 39.742188 51.808594 39.734375 51.460938 39.539062 51.203125 L 37.300781 48.25 C 37.199219 48.117188 37.222656 47.921875 37.359375 47.820312 C 37.492188 47.71875 37.683594 47.746094 37.785156 47.878906 L 40.023438 50.832031 C 40.378906 51.296875 40.394531 51.9375 40.066406 52.417969 C 39.867188 52.707031 39.898438 53.101562 40.140625 53.355469 L 42.535156 55.867188 C 42.652344 55.988281 42.648438 56.183594 42.523438 56.296875 C 42.464844 56.359375 42.386719 56.382812 42.3125 56.382812 Z M 42.3125 56.382812 " fill-opacity="1" fill-rule="nonzero"/><path fill="#371a45" d="M 58.230469 56.339844 C 58 56.339844 57.800781 56.167969 57.769531 55.9375 C 57.738281 55.683594 57.917969 55.453125 58.171875 55.421875 C 58.921875 55.328125 60.5 54.542969 61.535156 52.828125 C 62.414062 51.367188 63.148438 48.777344 61.628906 44.738281 C 61.539062 44.5 61.660156 44.234375 61.894531 44.144531 C 62.132812 44.054688 62.398438 44.171875 62.492188 44.410156 C 64.140625 48.792969 63.308594 51.664062 62.320312 53.304688 C 61.109375 55.3125 59.242188 56.21875 58.285156 56.335938 C 58.265625 56.339844 58.246094 56.339844 58.230469 56.339844 Z M 58.230469 56.339844 " fill-opacity="1" fill-rule="nonzero"/><path fill="#371a45" d="M 59.414062 36.621094 C 59.355469 36.621094 59.296875 36.609375 59.242188 36.585938 C 56.644531 35.550781 54.953125 33.398438 54.351562 30.363281 C 53.90625 28.113281 54.214844 26.1875 54.226562 26.105469 C 54.265625 25.851562 54.503906 25.683594 54.757812 25.722656 C 55.007812 25.765625 55.175781 26.003906 55.136719 26.253906 C 55.132812 26.277344 54.84375 28.121094 55.261719 30.210938 C 55.8125 32.945312 57.265625 34.800781 59.582031 35.726562 C 59.816406 35.820312 59.933594 36.089844 59.835938 36.328125 C 59.769531 36.507812 59.597656 36.621094 59.414062 36.621094 Z M 59.414062 36.621094 " fill-opacity="1" fill-rule="nonzero"/><path fill="#371a45" d="M 41.851562 45.238281 C 41.789062 45.160156 41.003906 46.285156 40.320312 46.703125 C 39.96875 46.921875 41.554688 47.597656 41.410156 47.109375 C 41.242188 46.527344 41.917969 45.3125 41.851562 45.238281 Z M 41.851562 45.238281 " fill-opacity="1" fill-rule="nonzero"/></svg>