<svg xmlns="http://www.w3.org/2000/svg" xmlns:xlink="http://www.w3.org/1999/xlink" width="100" zoomAndPan="magnify" viewBox="0 0 75 74.999997" height="100" preserveAspectRatio="xMidYMid meet" version="1.0"><path fill="#fff1ce" d="M 73.445312 28.804688 C 73.457031 28.753906 73.464844 28.699219 73.46875 28.648438 L 74.9375 18.238281 C 74.957031 18.15625 74.96875 18.070312 74.96875 17.980469 C 74.96875 17.3125 74.421875 16.769531 73.753906 16.769531 L 64.203125 16.769531 C 64.203125 16.769531 64.199219 16.769531 64.199219 16.769531 C 64.195312 16.769531 64.195312 16.769531 64.191406 16.769531 L 54.652344 16.769531 C 54.648438 16.769531 54.644531 16.769531 54.640625 16.769531 C 54.636719 16.769531 54.632812 16.769531 54.628906 16.769531 L 45.101562 16.769531 C 45.097656 16.769531 45.089844 16.769531 45.085938 16.769531 C 45.078125 16.769531 45.074219 16.769531 45.070312 16.769531 L 35.550781 16.769531 C 35.542969 16.769531 35.535156 16.769531 35.527344 16.769531 C 35.523438 16.769531 35.515625 16.769531 35.507812 16.769531 L 26 16.769531 C 25.988281 16.769531 25.980469 16.769531 25.972656 16.769531 C 25.964844 16.769531 25.953125 16.769531 25.945312 16.769531 L 17.703125 16.769531 L 12.652344 3.503906 C 12.507812 3.121094 12.1875 2.855469 11.820312 2.757812 L 1.671875 0.167969 C 1.027344 0.00390625 0.367188 0.394531 0.203125 1.042969 C 0.0351562 1.691406 0.429688 2.347656 1.078125 2.511719 L 10.609375 4.945312 L 17.472656 22.972656 L 23.753906 39.46875 C 23.769531 39.519531 23.789062 39.570312 23.8125 39.621094 L 24.808594 42.242188 C 24.828125 42.296875 24.847656 42.351562 24.871094 42.402344 L 27.644531 49.691406 L 24.8125 52.398438 C 22.355469 54.746094 20.765625 56.992188 20.050781 58.898438 C 19.589844 60.132812 19.476562 61.261719 19.714844 62.242188 C 19.976562 63.320312 20.632812 64.179688 21.679688 64.757812 C 22.027344 64.945312 22.417969 65.105469 22.855469 65.226562 C 21.945312 66.265625 21.390625 67.621094 21.390625 69.105469 C 21.390625 70.691406 22.023438 72.132812 23.050781 73.195312 L 23.121094 73.273438 C 24.191406 74.339844 25.664062 75 27.296875 75 C 28.925781 75 30.402344 74.335938 31.46875 73.273438 L 31.46875 73.265625 C 32.535156 72.199219 33.199219 70.726562 33.199219 69.105469 C 33.199219 67.761719 32.746094 66.519531 31.980469 65.527344 L 57.207031 65.527344 C 56.496094 66.503906 56.070312 67.703125 56.070312 69.003906 C 56.070312 70.589844 56.703125 72.035156 57.730469 73.09375 L 57.800781 73.171875 C 58.867188 74.238281 60.34375 74.898438 61.972656 74.898438 C 63.601562 74.898438 65.082031 74.238281 66.148438 73.171875 L 66.148438 73.164062 C 67.214844 72.097656 67.878906 70.625 67.878906 69.003906 C 67.878906 67.707031 67.453125 66.503906 66.738281 65.527344 L 68.988281 65.527344 C 69.660156 65.527344 70.203125 64.984375 70.203125 64.316406 C 70.203125 63.648438 69.660156 63.105469 68.988281 63.105469 C 68.988281 63.105469 25.269531 63.105469 25.269531 63.105469 C 24.203125 63.105469 23.398438 62.941406 22.847656 62.636719 C 22.425781 62.402344 22.164062 62.074219 22.066406 61.671875 C 21.945312 61.167969 22.027344 60.511719 22.316406 59.738281 C 22.90625 58.160156 24.296875 56.230469 26.492188 54.136719 L 29.597656 51.167969 L 35.570312 50.570312 C 35.621094 50.570312 35.675781 50.566406 35.730469 50.554688 L 45.125 49.621094 C 45.179688 49.617188 45.234375 49.613281 45.285156 49.605469 L 54.683594 48.667969 C 54.738281 48.667969 54.789062 48.660156 54.839844 48.652344 L 64.238281 47.71875 C 64.292969 47.714844 64.34375 47.710938 64.394531 47.703125 L 69.867188 47.15625 C 70.429688 47.125 70.910156 46.699219 70.992188 46.121094 L 71.945312 39.375 C 71.957031 39.324219 71.964844 39.269531 71.96875 39.214844 Z M 29.757812 71.5625 C 29.128906 72.1875 28.257812 72.578125 27.296875 72.578125 C 26.339844 72.578125 25.46875 72.1875 24.839844 71.5625 L 24.78125 71.507812 C 24.1875 70.886719 23.820312 70.039062 23.820312 69.105469 C 23.820312 68.140625 24.207031 67.273438 24.839844 66.648438 C 25.464844 66.019531 26.339844 65.632812 27.296875 65.632812 C 28.257812 65.632812 29.128906 66.019531 29.757812 66.648438 L 29.816406 66.699219 C 30.410156 67.324219 30.777344 68.171875 30.777344 69.105469 C 30.777344 70.066406 30.386719 70.9375 29.757812 71.5625 Z M 64.433594 66.546875 L 64.492188 66.601562 C 65.085938 67.222656 65.453125 68.070312 65.453125 69.003906 C 65.453125 69.964844 65.0625 70.832031 64.433594 71.457031 C 63.804688 72.085938 62.933594 72.476562 61.972656 72.476562 C 61.011719 72.476562 60.144531 72.085938 59.511719 71.457031 L 59.457031 71.40625 C 58.859375 70.78125 58.496094 69.933594 58.496094 69 C 58.496094 68.039062 58.882812 67.171875 59.511719 66.546875 C 60.140625 65.917969 61.011719 65.527344 61.972656 65.527344 C 62.933594 65.53125 63.804688 65.921875 64.433594 66.546875 Z M 29.863281 48.722656 L 27.1875 41.6875 L 27.1875 40.332031 L 34.316406 40.332031 L 34.316406 48.277344 Z M 53.429688 27.339844 L 46.296875 27.339844 L 46.296875 19.1875 L 53.429688 19.1875 C 53.429688 20.792969 53.429688 23.832031 53.429688 27.339844 Z M 55.855469 19.191406 L 62.984375 19.191406 L 62.984375 27.34375 L 55.851562 27.34375 L 55.851562 19.191406 Z M 46.296875 29.761719 L 53.429688 29.761719 C 53.429688 32.46875 53.429688 35.3125 53.429688 37.914062 L 46.296875 37.914062 Z M 43.875 37.910156 L 36.746094 37.910156 L 36.746094 29.761719 L 43.875 29.761719 Z M 43.875 27.339844 L 36.746094 27.339844 L 36.746094 19.1875 L 43.875 19.1875 Z M 34.316406 27.339844 L 27.1875 27.339844 L 27.1875 19.1875 L 34.316406 19.1875 Z M 34.316406 29.761719 L 34.316406 37.914062 L 27.1875 37.914062 L 27.1875 29.761719 Z M 24.761719 35.316406 L 22.644531 29.761719 L 24.761719 29.761719 Z M 36.742188 40.332031 L 43.871094 40.332031 L 43.871094 47.324219 L 36.742188 48.035156 Z M 46.296875 40.332031 L 53.429688 40.332031 C 53.429688 42.957031 53.429688 45.136719 53.429688 46.371094 L 46.296875 47.082031 Z M 55.855469 40.332031 L 62.984375 40.332031 L 62.984375 45.421875 L 55.851562 46.132812 L 55.851562 40.332031 Z M 55.855469 37.910156 L 55.855469 29.761719 L 62.984375 29.761719 L 62.984375 37.910156 Z M 65.410156 29.761719 L 70.867188 29.761719 L 69.710938 37.914062 L 65.410156 37.914062 Z M 71.207031 27.339844 L 65.410156 27.339844 L 65.410156 19.1875 L 72.359375 19.1875 Z M 24.761719 19.191406 L 24.761719 27.34375 L 21.726562 27.34375 L 19.738281 22.125 L 18.621094 19.191406 Z M 65.410156 45.179688 L 65.410156 40.332031 L 69.371094 40.332031 L 68.730469 44.847656 Z M 65.410156 45.179688 " fill-opacity="1" fill-rule="nonzero"/></svg>