<svg xmlns="http://www.w3.org/2000/svg" xmlns:xlink="http://www.w3.org/1999/xlink" width="100" zoomAndPan="magnify" viewBox="0 0 75 74.999997" height="100" preserveAspectRatio="xMidYMid meet" version="1.0"><defs><filter x="0%" y="0%" width="100%" height="100%" id="590cf0eba7"><feColorMatrix values="0 0 0 0 1 0 0 0 0 1 0 0 0 0 1 0 0 0 1 0" color-interpolation-filters="sRGB"/></filter><mask id="5011be78fc"><g filter="url(#590cf0eba7)"><rect x="-7.5" width="90" fill="#000000" y="-7.5" height="89.999996" fill-opacity="0.25"/></g></mask><clipPath id="2ccc05055e"><path d="M 1 0.441406 L 14.640625 0.441406 L 14.640625 16.761719 L 1 16.761719 Z M 1 0.441406 " clip-rule="nonzero"/></clipPath><clipPath id="faa059d9d1"><rect x="0" width="15" y="0" height="17"/></clipPath><mask id="523d9851ba"><g filter="url(#590cf0eba7)"><rect x="-7.5" width="90" fill="#000000" y="-7.5" height="89.999996" fill-opacity="0.35"/></g></mask><clipPath id="161b1c845e"><path d="M 0.0390625 0.601562 L 4.359375 0.601562 L 4.359375 3.71875 L 0.0390625 3.71875 Z M 0.0390625 0.601562 " clip-rule="nonzero"/></clipPath><clipPath id="0b70b05e1e"><rect x="0" width="5" y="0" height="4"/></clipPath><mask id="584594a93c"><g filter="url(#590cf0eba7)"><rect x="-7.5" width="90" fill="#000000" y="-7.5" height="89.999996" fill-opacity="0.25"/></g></mask><clipPath id="fd71962917"><path d="M 0.0390625 0.160156 L 3.878906 0.160156 L 3.878906 3 L 0.0390625 3 Z M 0.0390625 0.160156 " clip-rule="nonzero"/></clipPath><clipPath id="ea13fe302a"><rect x="0" width="4" y="0" height="4"/></clipPath><mask id="e51ad15698"><g filter="url(#590cf0eba7)"><rect x="-7.5" width="90" fill="#000000" y="-7.5" height="89.999996" fill-opacity="0.25"/></g></mask><clipPath id="7a2e78fd9f"><path d="M 0.28125 0.359375 L 12 0.359375 L 12 11.640625 L 0.28125 11.640625 Z M 0.28125 0.359375 " clip-rule="nonzero"/></clipPath><clipPath id="8a4c346b9c"><rect x="0" width="13" y="0" height="12"/></clipPath><mask id="f327dfd4e6"><g filter="url(#590cf0eba7)"><rect x="-7.5" width="90" fill="#000000" y="-7.5" height="89.999996" fill-opacity="0.25"/></g></mask><clipPath id="01688a1f6d"><path d="M 0.519531 0.078125 L 6.519531 0.078125 L 6.519531 6.320312 L 0.519531 6.320312 Z M 0.519531 0.078125 " clip-rule="nonzero"/></clipPath><clipPath id="861583ca19"><rect x="0" width="7" y="0" height="7"/></clipPath><mask id="a1c19c8e10"><g filter="url(#590cf0eba7)"><rect x="-7.5" width="90" fill="#000000" y="-7.5" height="89.999996" fill-opacity="0.25"/></g></mask><clipPath id="06f1fa29ad"><path d="M 0.160156 0 L 16.238281 0 L 16.238281 26.398438 L 0.160156 26.398438 Z M 0.160156 0 " clip-rule="nonzero"/></clipPath><clipPath id="3c1e9f069e"><rect x="0" width="17" y="0" height="27"/></clipPath><mask id="0309790f90"><g filter="url(#590cf0eba7)"><rect x="-7.5" width="90" fill="#000000" y="-7.5" height="89.999996" fill-opacity="0.35"/></g></mask><clipPath id="ae8cac67a8"><path d="M 0.238281 0.199219 L 0.480469 0.199219 L 0.480469 1 L 0.238281 1 Z M 0.238281 0.199219 " clip-rule="nonzero"/></clipPath><clipPath id="a2170316ac"><rect x="0" width="1" y="0" height="2"/></clipPath><mask id="00cb195923"><g filter="url(#590cf0eba7)"><rect x="-7.5" width="90" fill="#000000" y="-7.5" height="89.999996" fill-opacity="0.35"/></g></mask><clipPath id="77791cfd41"><path d="M 0.921875 0.960938 L 1.160156 0.960938 L 1.160156 1.921875 L 0.921875 1.921875 Z M 0.921875 0.960938 " clip-rule="nonzero"/></clipPath><clipPath id="fd60a40e33"><rect x="0" width="2" y="0" height="2"/></clipPath><mask id="d7afe3e06c"><g filter="url(#590cf0eba7)"><rect x="-7.5" width="90" fill="#000000" y="-7.5" height="89.999996" fill-opacity="0.25"/></g></mask><clipPath id="0ad44c9887"><path d="M 0.519531 0.480469 L 17.800781 0.480469 L 17.800781 20.640625 L 0.519531 20.640625 Z M 0.519531 0.480469 " clip-rule="nonzero"/></clipPath><clipPath id="2a5ec68d70"><rect x="0" width="18" y="0" height="21"/></clipPath><mask id="2898b945e8"><g filter="url(#590cf0eba7)"><rect x="-7.5" width="90" fill="#000000" y="-7.5" height="89.999996" fill-opacity="0.25"/></g></mask><clipPath id="5ee334d88a"><path d="M 1 0.679688 L 23 0.679688 L 23 14.121094 L 1 14.121094 Z M 1 0.679688 " clip-rule="nonzero"/></clipPath><clipPath id="bcb63e653f"><rect x="0" width="24" y="0" height="15"/></clipPath><mask id="58c64df06b"><g filter="url(#590cf0eba7)"><rect x="-7.5" width="90" fill="#000000" y="-7.5" height="89.999996" fill-opacity="0.25"/></g></mask><clipPath id="344ef93e53"><path d="M 0.480469 0 L 15.839844 0 L 15.839844 10 L 0.480469 10 Z M 0.480469 0 " clip-rule="nonzero"/></clipPath><clipPath id="8fe9f18e37"><rect x="0" width="16" y="0" height="11"/></clipPath><mask id="fae6434213"><g filter="url(#590cf0eba7)"><rect x="-7.5" width="90" fill="#000000" y="-7.5" height="89.999996" fill-opacity="0.25"/></g></mask><clipPath id="ab4043c98d"><path d="M 0.398438 0.558594 L 13.601562 0.558594 L 13.601562 6 L 0.398438 6 Z M 0.398438 0.558594 " clip-rule="nonzero"/></clipPath><clipPath id="b7c3f658bf"><rect x="0" width="14" y="0" height="7"/></clipPath><mask id="145cd67021"><g filter="url(#590cf0eba7)"><rect x="-7.5" width="90" fill="#000000" y="-7.5" height="89.999996" fill-opacity="0.35"/></g></mask><clipPath id="1d22e1470d"><path d="M 0.640625 1 L 3.761719 1 L 3.761719 4.960938 L 0.640625 4.960938 Z M 0.640625 1 " clip-rule="nonzero"/></clipPath><clipPath id="dac095359f"><rect x="0" width="4" y="0" height="5"/></clipPath><mask id="d680277ce0"><g filter="url(#590cf0eba7)"><rect x="-7.5" width="90" fill="#000000" y="-7.5" height="89.999996" fill-opacity="0.35"/></g></mask><clipPath id="728003986a"><path d="M 0.441406 0.320312 L 3.558594 0.320312 L 3.558594 2.960938 L 0.441406 2.960938 Z M 0.441406 0.320312 " clip-rule="nonzero"/></clipPath><clipPath id="4e4b8bfe98"><rect x="0" width="4" y="0" height="3"/></clipPath><mask id="dbb077e9de"><g filter="url(#590cf0eba7)"><rect x="-7.5" width="90" fill="#000000" y="-7.5" height="89.999996" fill-opacity="0.25"/></g></mask><clipPath id="7138b188fc"><path d="M 0.679688 0.839844 L 11 0.839844 L 11 4.441406 L 0.679688 4.441406 Z M 0.679688 0.839844 " clip-rule="nonzero"/></clipPath><clipPath id="f11891d621"><rect x="0" width="11" y="0" height="5"/></clipPath><clipPath id="48b717f115"><path d="M 45 17 L 64.6875 17 L 64.6875 42 L 45 42 Z M 45 17 " clip-rule="nonzero"/></clipPath><mask id="666cc36106"><g filter="url(#590cf0eba7)"><rect x="-7.5" width="90" fill="#000000" y="-7.5" height="89.999996" fill-opacity="0.25"/></g></mask><clipPath id="d6a33c714d"><path d="M 0.359375 0.0390625 L 19 0.0390625 L 19 24 L 0.359375 24 Z M 0.359375 0.0390625 " clip-rule="nonzero"/></clipPath><clipPath id="296c55d40f"><rect x="0" width="20" y="0" height="25"/></clipPath><clipPath id="227527f687"><path d="M 40 11 L 64.6875 11 L 64.6875 42 L 40 42 Z M 40 11 " clip-rule="nonzero"/></clipPath><mask id="c5dd50c06b"><g filter="url(#590cf0eba7)"><rect x="-7.5" width="90" fill="#000000" y="-7.5" height="89.999996" fill-opacity="0.25"/></g></mask><clipPath id="27432016f5"><path d="M 0.71875 0.480469 L 8.398438 0.480469 L 8.398438 9.601562 L 0.71875 9.601562 Z M 0.71875 0.480469 " clip-rule="nonzero"/></clipPath><clipPath id="a95ca86b39"><rect x="0" width="9" y="0" height="10"/></clipPath><clipPath id="69b6256d7a"><path d="M 54 16 L 64.6875 16 L 64.6875 28 L 54 28 Z M 54 16 " clip-rule="nonzero"/></clipPath><mask id="59613dbbda"><g filter="url(#590cf0eba7)"><rect x="-7.5" width="90" fill="#000000" y="-7.5" height="89.999996" fill-opacity="0.25"/></g></mask><clipPath id="e52d4da2a7"><path d="M 1 0.238281 L 4.921875 0.238281 L 4.921875 6.480469 L 1 6.480469 Z M 1 0.238281 " clip-rule="nonzero"/></clipPath><clipPath id="7a9aede271"><rect x="0" width="5" y="0" height="7"/></clipPath><clipPath id="ef032625c1"><path d="M 10.3125 20 L 18 20 L 18 31 L 10.3125 31 Z M 10.3125 20 " clip-rule="nonzero"/></clipPath><clipPath id="7eb5d375bb"><path d="M 10.3125 19 L 18 19 L 18 31 L 10.3125 31 Z M 10.3125 19 " clip-rule="nonzero"/></clipPath><mask id="a5d46e9d1e"><g filter="url(#590cf0eba7)"><rect x="-7.5" width="90" fill="#000000" y="-7.5" height="89.999996" fill-opacity="0.25"/></g></mask><clipPath id="c64bd227e7"><path d="M 0.519531 0.398438 L 6.28125 0.398438 L 6.28125 4.238281 L 0.519531 4.238281 Z M 0.519531 0.398438 " clip-rule="nonzero"/></clipPath><clipPath id="bb49890664"><rect x="0" width="7" y="0" height="5"/></clipPath><clipPath id="fdcf67d51a"><path d="M 10.3125 19 L 18 19 L 18 31 L 10.3125 31 Z M 10.3125 19 " clip-rule="nonzero"/></clipPath><mask id="97572f4360"><g filter="url(#590cf0eba7)"><rect x="-7.5" width="90" fill="#000000" y="-7.5" height="89.999996" fill-opacity="0.25"/></g></mask><clipPath id="f826655149"><path d="M 0.480469 0.800781 L 22.800781 0.800781 L 22.800781 16.878906 L 0.480469 16.878906 Z M 0.480469 0.800781 " clip-rule="nonzero"/></clipPath><clipPath id="29a4e11b79"><rect x="0" width="23" y="0" height="17"/></clipPath><mask id="bcc9d1fc9e"><g filter="url(#590cf0eba7)"><rect x="-7.5" width="90" fill="#000000" y="-7.5" height="89.999996" fill-opacity="0.25"/></g></mask><clipPath id="e51e4f1b38"><path d="M 0.679688 0 L 34.28125 0 L 34.28125 24.238281 L 0.679688 24.238281 Z M 0.679688 0 " clip-rule="nonzero"/></clipPath><clipPath id="e2f2d73be1"><rect x="0" width="35" y="0" height="25"/></clipPath><mask id="eb5510f4ab"><g filter="url(#590cf0eba7)"><rect x="-7.5" width="90" fill="#000000" y="-7.5" height="89.999996" fill-opacity="0.5"/></g></mask><clipPath id="dc3b5858d1"><path d="M 0.398438 0 L 5.679688 0 L 5.679688 6.71875 L 0.398438 6.71875 Z M 0.398438 0 " clip-rule="nonzero"/></clipPath><clipPath id="f02c430cfc"><rect x="0" width="6" y="0" height="7"/></clipPath><mask id="9d3410c0e9"><g filter="url(#590cf0eba7)"><rect x="-7.5" width="90" fill="#000000" y="-7.5" height="89.999996" fill-opacity="0.5"/></g></mask><clipPath id="17cf627af1"><path d="M 1 0.160156 L 3.519531 0.160156 L 3.519531 3.28125 L 1 3.28125 Z M 1 0.160156 " clip-rule="nonzero"/></clipPath><clipPath id="b9ff796ff8"><rect x="0" width="4" y="0" height="4"/></clipPath><mask id="7c0135d5c2"><g filter="url(#590cf0eba7)"><rect x="-7.5" width="90" fill="#000000" y="-7.5" height="89.999996" fill-opacity="0.35"/></g></mask><clipPath id="f113a13baf"><path d="M 0.601562 1 L 20.28125 1 L 20.28125 27.558594 L 0.601562 27.558594 Z M 0.601562 1 " clip-rule="nonzero"/></clipPath><clipPath id="8b1bd0853c"><rect x="0" width="21" y="0" height="28"/></clipPath><mask id="faa935dd6c"><g filter="url(#590cf0eba7)"><rect x="-7.5" width="90" fill="#000000" y="-7.5" height="89.999996" fill-opacity="0.5"/></g></mask><clipPath id="0479133cc5"><path d="M 0.558594 0.320312 L 11.839844 0.320312 L 11.839844 18.800781 L 0.558594 18.800781 Z M 0.558594 0.320312 " clip-rule="nonzero"/></clipPath><clipPath id="055530ce13"><rect x="0" width="12" y="0" height="19"/></clipPath></defs><path fill="#ffffff" d="M 26.789062 53.261719 C 27.675781 52.976562 28.558594 52.496094 29.390625 51.789062 C 32.03125 49.542969 32.597656 38.832031 32.597656 38.832031 L 32.585938 38.8125 L 27.753906 32.382812 C 27.753906 32.382812 27.386719 32.890625 26.800781 33.738281 C 26.207031 34.601562 25.386719 35.816406 24.5 37.1875 C 22.453125 40.367188 20.074219 44.398438 19.398438 46.894531 C 18.175781 51.417969 22.519531 54.628906 26.789062 53.261719 Z M 26.789062 53.261719 " fill-opacity="1" fill-rule="nonzero"/><g mask="url(#5011be78fc)"><g transform="matrix(1, 0, 0, 1, 18, 37)"><g clip-path="url(#faa059d9d1)"><g clip-path="url(#2ccc05055e)"><path fill="#371a45" d="M 1.199219 11.765625 C 1.429688 15.25 5.136719 17.429688 8.789062 16.261719 C 9.675781 15.976562 10.558594 15.496094 11.390625 14.789062 C 14.03125 12.542969 14.597656 1.832031 14.597656 1.832031 L 14.585938 1.8125 L 13.574219 0.464844 C 13.335938 3.335938 12.542969 10.425781 10.457031 12.207031 C 9.628906 12.914062 6.027344 13.878906 5.101562 13.96875 C 2.804688 14.199219 2.570312 13.628906 1.199219 11.765625 Z M 1.199219 11.765625 " fill-opacity="1" fill-rule="nonzero"/></g></g></g></g><path fill="#371a45" d="M 24.789062 54.007812 C 26.375 54.007812 28.105469 53.46875 29.679688 52.125 C 32.433594 49.78125 33.019531 39.300781 33.042969 38.855469 C 33.054688 38.609375 32.867188 38.402344 32.621094 38.390625 C 32.371094 38.375 32.164062 38.5625 32.152344 38.808594 C 32 41.734375 31.148438 49.714844 29.101562 51.453125 C 26.398438 53.753906 23.496094 53.355469 21.828125 52.3125 C 20.019531 51.179688 19.253906 49.148438 19.828125 47.011719 C 21.046875 42.519531 28.042969 32.742188 28.117188 32.644531 C 28.257812 32.445312 28.214844 32.167969 28.011719 32.023438 C 27.8125 31.882812 27.53125 31.929688 27.390625 32.128906 C 27.097656 32.535156 20.226562 42.132812 18.96875 46.78125 C 18.285156 49.308594 19.199219 51.714844 21.355469 53.0625 C 22.285156 53.644531 23.488281 54.007812 24.789062 54.007812 Z M 24.789062 54.007812 " fill-opacity="1" fill-rule="nonzero"/><path fill="#371a45" d="M 27.980469 45.152344 C 28.152344 45.152344 28.3125 45.054688 28.386719 44.894531 C 28.492188 44.671875 28.394531 44.410156 28.167969 44.308594 C 27.980469 44.21875 23.476562 42.175781 20.527344 43.316406 C 20.300781 43.402344 20.1875 43.660156 20.277344 43.886719 C 20.363281 44.113281 20.625 44.226562 20.851562 44.140625 C 23.445312 43.136719 27.753906 45.089844 27.796875 45.109375 C 27.855469 45.140625 27.917969 45.152344 27.980469 45.152344 Z M 27.980469 45.152344 " fill-opacity="1" fill-rule="nonzero"/><path fill="#ffffff" d="M 23.207031 46.644531 C 23.207031 46.898438 23.257812 47.148438 23.355469 47.382812 C 23.453125 47.621094 23.59375 47.832031 23.777344 48.011719 C 23.960938 48.191406 24.171875 48.332031 24.410156 48.429688 C 24.648438 48.53125 24.898438 48.578125 25.15625 48.578125 C 25.414062 48.578125 25.664062 48.53125 25.902344 48.429688 C 26.140625 48.332031 26.351562 48.191406 26.535156 48.011719 C 26.714844 47.832031 26.855469 47.621094 26.957031 47.382812 C 27.054688 47.148438 27.105469 46.898438 27.105469 46.644531 C 27.105469 46.386719 27.054688 46.140625 26.957031 45.902344 C 26.855469 45.667969 26.714844 45.457031 26.535156 45.277344 C 26.351562 45.09375 26.140625 44.953125 25.902344 44.855469 C 25.664062 44.757812 25.414062 44.707031 25.15625 44.707031 C 24.898438 44.707031 24.648438 44.757812 24.410156 44.855469 C 24.171875 44.953125 23.960938 45.09375 23.777344 45.277344 C 23.59375 45.457031 23.453125 45.667969 23.355469 45.902344 C 23.257812 46.140625 23.207031 46.386719 23.207031 46.644531 Z M 23.207031 46.644531 " fill-opacity="1" fill-rule="nonzero"/><g mask="url(#523d9851ba)"><g transform="matrix(1, 0, 0, 1, 23, 45)"><g clip-path="url(#0b70b05e1e)"><g clip-path="url(#161b1c845e)"><path fill="#371a45" d="M 0.210938 1.6875 C 0.238281 2.757812 1.128906 3.601562 2.203125 3.574219 C 3.28125 3.550781 4.128906 2.664062 4.105469 1.597656 C 4.097656 1.300781 4.023438 1.019531 3.898438 0.773438 C 3.601562 1.433594 2.941406 1.90625 2.164062 1.921875 C 1.386719 1.941406 0.703125 1.503906 0.375 0.859375 C 0.261719 1.113281 0.203125 1.394531 0.210938 1.6875 Z M 0.210938 1.6875 " fill-opacity="1" fill-rule="nonzero"/></g></g></g></g><path fill="#371a45" d="M 25.15625 49.019531 C 25.175781 49.019531 25.195312 49.019531 25.214844 49.019531 C 25.855469 49.003906 26.449219 48.742188 26.890625 48.28125 C 27.332031 47.820312 27.566406 47.21875 27.550781 46.582031 C 27.519531 45.273438 26.417969 44.234375 25.101562 44.265625 C 24.460938 44.28125 23.867188 44.542969 23.425781 45.003906 C 22.984375 45.464844 22.753906 46.066406 22.765625 46.699219 C 22.78125 47.335938 23.046875 47.925781 23.507812 48.363281 C 23.957031 48.789062 24.539062 49.019531 25.15625 49.019531 Z M 25.15625 45.152344 C 25.964844 45.152344 26.636719 45.796875 26.65625 46.609375 C 26.675781 47.429688 26.019531 48.113281 25.191406 48.136719 C 25.179688 48.136719 25.167969 48.136719 25.15625 48.136719 C 24.347656 48.136719 23.675781 47.492188 23.65625 46.679688 C 23.636719 45.859375 24.292969 45.171875 25.121094 45.152344 C 25.132812 45.152344 25.144531 45.152344 25.15625 45.152344 Z M 25.15625 45.152344 " fill-opacity="1" fill-rule="nonzero"/><path fill="#ffffff" d="M 22.226562 50.011719 L 23.101562 50.972656 L 24.847656 52.886719 C 25.808594 52.886719 26.34375 51.773438 26.625 50.390625 C 27.027344 48.421875 26.921875 45.902344 26.808594 45.230469 C 26.664062 44.394531 25.367188 43.304688 23.953125 44.132812 C 21.90625 45.332031 22.226562 50.011719 22.226562 50.011719 Z M 22.226562 50.011719 " fill-opacity="1" fill-rule="nonzero"/><g mask="url(#584594a93c)"><g transform="matrix(1, 0, 0, 1, 23, 50)"><g clip-path="url(#ea13fe302a)"><g clip-path="url(#fd71962917)"><path fill="#371a45" d="M 0.0976562 0.972656 L 1.84375 2.886719 C 2.808594 2.886719 3.34375 1.773438 3.625 0.390625 C 2.984375 0.832031 1.835938 1.320312 0.0976562 0.972656 Z M 0.0976562 0.972656 " fill-opacity="1" fill-rule="nonzero"/></g></g></g></g><path fill="#371a45" d="M 22.296875 50.007812 C 22.417969 49.242188 22.527344 48.492188 22.675781 47.761719 C 22.828125 47.035156 22.996094 46.316406 23.289062 45.6875 C 23.433594 45.375 23.601562 45.082031 23.816406 44.855469 C 23.871094 44.800781 23.921875 44.742188 23.980469 44.695312 C 24.011719 44.671875 24.039062 44.644531 24.070312 44.625 L 24.160156 44.5625 C 24.21875 44.519531 24.296875 44.492188 24.359375 44.449219 C 24.394531 44.429688 24.425781 44.417969 24.464844 44.40625 L 24.566406 44.363281 C 24.851562 44.261719 25.144531 44.273438 25.421875 44.363281 C 25.707031 44.449219 25.960938 44.640625 26.144531 44.871094 C 26.230469 44.988281 26.296875 45.113281 26.335938 45.230469 C 26.339844 45.257812 26.347656 45.285156 26.355469 45.316406 L 26.371094 45.4375 C 26.378906 45.523438 26.386719 45.617188 26.394531 45.707031 C 26.417969 46.074219 26.429688 46.449219 26.429688 46.824219 C 26.425781 47.574219 26.394531 48.320312 26.328125 49.066406 C 26.296875 49.4375 26.253906 49.800781 26.199219 50.164062 C 26.140625 50.527344 26.070312 50.882812 25.976562 51.230469 C 25.886719 51.574219 25.773438 51.90625 25.605469 52.191406 C 25.527344 52.34375 25.421875 52.460938 25.304688 52.574219 C 25.179688 52.6875 25.027344 52.757812 24.84375 52.820312 L 24.835938 52.824219 C 24.796875 52.835938 24.773438 52.878906 24.789062 52.917969 C 24.800781 52.945312 24.820312 52.960938 24.847656 52.96875 C 24.898438 52.976562 24.949219 52.980469 25.003906 52.988281 C 25.03125 52.992188 25.058594 52.996094 25.085938 52.996094 L 25.167969 52.988281 C 25.222656 52.980469 25.28125 52.980469 25.335938 52.96875 L 25.496094 52.917969 C 25.707031 52.84375 25.902344 52.710938 26.058594 52.554688 C 26.378906 52.246094 26.589844 51.867188 26.753906 51.492188 C 26.914062 51.113281 27.023438 50.722656 27.105469 50.332031 C 27.191406 49.941406 27.253906 49.546875 27.300781 49.15625 C 27.386719 48.375 27.40625 47.589844 27.386719 46.808594 C 27.375 46.417969 27.351562 46.027344 27.316406 45.628906 C 27.304688 45.527344 27.296875 45.425781 27.28125 45.324219 C 27.273438 45.273438 27.265625 45.214844 27.257812 45.164062 C 27.242188 45.097656 27.226562 45.03125 27.210938 44.96875 C 27.128906 44.71875 27.003906 44.507812 26.859375 44.320312 C 26.707031 44.136719 26.539062 43.972656 26.34375 43.839844 C 26.25 43.773438 26.148438 43.710938 26.046875 43.65625 C 25.9375 43.605469 25.832031 43.550781 25.71875 43.515625 C 25.660156 43.496094 25.605469 43.476562 25.546875 43.460938 L 25.371094 43.425781 C 25.253906 43.398438 25.132812 43.398438 25.011719 43.386719 C 24.890625 43.386719 24.769531 43.398438 24.648438 43.410156 C 24.535156 43.433594 24.414062 43.445312 24.300781 43.484375 L 24.132812 43.539062 C 24.074219 43.558594 24.019531 43.578125 23.96875 43.601562 C 23.867188 43.65625 23.761719 43.699219 23.660156 43.761719 L 23.511719 43.859375 C 23.460938 43.890625 23.417969 43.929688 23.371094 43.964844 C 23.277344 44.035156 23.199219 44.121094 23.117188 44.199219 C 22.796875 44.53125 22.578125 44.917969 22.410156 45.300781 C 22.332031 45.496094 22.261719 45.691406 22.203125 45.890625 C 22.148438 46.089844 22.097656 46.285156 22.058594 46.484375 C 21.984375 46.878906 21.9375 47.277344 21.925781 47.671875 C 21.910156 48.070312 21.921875 48.464844 21.957031 48.855469 C 21.996094 49.242188 22.054688 49.632812 22.15625 50.015625 C 22.167969 50.054688 22.210938 50.078125 22.25 50.066406 C 22.273438 50.0625 22.292969 50.039062 22.296875 50.007812 Z M 22.296875 50.007812 " fill-opacity="1" fill-rule="nonzero"/><path fill="#ffffff" d="M 39.9375 33.175781 L 41.417969 49.683594 L 42.027344 56.5 C 42.027344 56.5 49.625 56.75 51.789062 53.773438 C 52.59375 52.671875 52.960938 49.542969 52.949219 46.121094 C 52.929688 41.953125 52.34375 37.351562 51.28125 35.46875 C 49.574219 32.445312 42.550781 32.757812 39.9375 33.175781 Z M 39.9375 33.175781 " fill-opacity="1" fill-rule="nonzero"/><g mask="url(#e51ad15698)"><g transform="matrix(1, 0, 0, 1, 41, 45)"><g clip-path="url(#8a4c346b9c)"><g clip-path="url(#7a2e78fd9f)"><path fill="#371a45" d="M 0.417969 4.683594 L 1.027344 11.5 C 1.027344 11.5 8.625 11.75 10.789062 8.773438 C 11.59375 7.671875 11.960938 4.542969 11.949219 1.121094 L 7.230469 0.398438 C 7.230469 0.398438 5.589844 0.464844 5.617188 5.640625 C 5.621094 7.089844 3.414062 7.691406 1.726562 6.574219 C 1.117188 6.167969 0.703125 5.492188 0.417969 4.683594 Z M 0.417969 4.683594 " fill-opacity="1" fill-rule="nonzero"/></g></g></g></g><path fill="#371a45" d="M 42.503906 56.949219 C 44.269531 56.949219 50.179688 56.742188 52.148438 54.035156 C 53.199219 52.59375 53.46875 48.410156 53.371094 44.980469 C 53.277344 41.570312 52.777344 37.222656 51.667969 35.253906 C 49.804688 31.945312 42.519531 32.316406 39.867188 32.738281 C 39.621094 32.777344 39.457031 33.003906 39.496094 33.246094 C 39.535156 33.488281 39.765625 33.652344 40.007812 33.613281 C 42.914062 33.148438 49.402344 33.046875 50.890625 35.6875 C 51.738281 37.195312 52.363281 40.851562 52.480469 45.003906 C 52.597656 49.074219 52.171875 52.492188 51.425781 53.515625 C 49.421875 56.265625 42.113281 56.0625 42.039062 56.058594 C 41.792969 56.046875 41.585938 56.242188 41.578125 56.488281 C 41.566406 56.730469 41.761719 56.933594 42.007812 56.945312 C 42.054688 56.945312 42.230469 56.949219 42.503906 56.949219 Z M 42.503906 56.949219 " fill-opacity="1" fill-rule="nonzero"/><path fill="#ffffff" d="M 52.496094 45.414062 L 48.511719 45.824219 C 48.15625 45.859375 47.871094 46.132812 47.816406 46.480469 C 47.617188 47.765625 47.320312 50.761719 48.597656 51.707031 C 49.660156 52.496094 51.347656 52.355469 52.3125 51.496094 C 53.394531 50.535156 53.421875 47.605469 53.363281 46.160156 C 53.34375 45.710938 52.949219 45.371094 52.496094 45.414062 Z M 52.496094 45.414062 " fill-opacity="1" fill-rule="nonzero"/><g mask="url(#f327dfd4e6)"><g transform="matrix(1, 0, 0, 1, 47, 46)"><g clip-path="url(#861583ca19)"><g clip-path="url(#01688a1f6d)"><path fill="#371a45" d="M 0.816406 0.480469 C 0.621094 1.765625 0.320312 4.761719 1.601562 5.707031 C 2.664062 6.496094 4.351562 6.355469 5.316406 5.496094 C 5.980469 4.902344 6.246094 3.566406 6.339844 2.292969 C 6.175781 2.933594 5.910156 3.457031 5.566406 3.804688 C 3.609375 5.800781 2.042969 3.554688 2.042969 3.554688 C 2.042969 3.554688 1.796875 4.117188 1.589844 4.152344 C 0.726562 4.308594 0.828125 1.605469 0.917969 0.207031 C 0.867188 0.289062 0.832031 0.378906 0.816406 0.480469 Z M 0.816406 0.480469 " fill-opacity="1" fill-rule="nonzero"/></g></g></g></g><path fill="#371a45" d="M 50.285156 52.671875 C 51.128906 52.671875 51.984375 52.386719 52.613281 51.824219 C 53.75 50.816406 53.890625 48.175781 53.808594 46.140625 C 53.792969 45.804688 53.640625 45.488281 53.382812 45.265625 C 53.128906 45.046875 52.789062 44.9375 52.453125 44.976562 L 48.46875 45.382812 C 47.910156 45.441406 47.464844 45.867188 47.378906 46.414062 C 47.125 48.070312 46.910156 51.007812 48.335938 52.0625 C 48.878906 52.472656 49.578125 52.671875 50.285156 52.671875 Z M 52.578125 45.851562 C 52.660156 45.851562 52.734375 45.882812 52.800781 45.933594 C 52.871094 45.996094 52.914062 46.082031 52.914062 46.175781 C 53.015625 48.707031 52.679688 50.574219 52.015625 51.164062 C 51.175781 51.910156 49.734375 51.996094 48.863281 51.355469 C 48.105469 50.789062 47.878906 48.996094 48.253906 46.546875 C 48.277344 46.394531 48.402344 46.277344 48.554688 46.261719 L 52.539062 45.851562 C 52.554688 45.851562 52.566406 45.851562 52.578125 45.851562 Z M 52.578125 45.851562 " fill-opacity="1" fill-rule="nonzero"/><path fill="#371a45" d="M 49.125 47.222656 C 49.136719 47.703125 49.101562 48.179688 49.101562 48.664062 C 49.101562 49.148438 49.125 49.636719 49.21875 50.125 C 49.316406 50.613281 49.484375 51.109375 49.820312 51.535156 C 49.984375 51.75 50.1875 51.9375 50.417969 52.085938 C 50.648438 52.238281 50.902344 52.351562 51.164062 52.429688 L 51.167969 52.429688 C 51.355469 52.488281 51.5625 52.382812 51.621094 52.191406 C 51.675781 52.003906 51.570312 51.800781 51.382812 51.742188 C 51.367188 51.738281 51.351562 51.734375 51.335938 51.730469 C 50.917969 51.65625 50.53125 51.484375 50.230469 51.179688 C 49.925781 50.882812 49.714844 50.472656 49.570312 50.035156 C 49.425781 49.59375 49.34375 49.125 49.285156 48.652344 C 49.222656 48.179688 49.195312 47.699219 49.125 47.222656 Z M 49.125 47.222656 " fill-opacity="1" fill-rule="nonzero"/><path fill="#371a45" d="M 48.980469 34.988281 C 48.429688 35 47.882812 35.019531 47.335938 35.050781 C 46.789062 35.078125 46.242188 35.117188 45.695312 35.167969 C 45.144531 35.214844 44.597656 35.277344 44.046875 35.363281 C 43.496094 35.453125 42.945312 35.550781 42.382812 35.730469 C 42.148438 35.808594 42.019531 36.058594 42.097656 36.289062 C 42.175781 36.523438 42.425781 36.648438 42.660156 36.570312 C 42.671875 36.566406 42.683594 36.566406 42.691406 36.558594 L 42.695312 36.558594 C 43.15625 36.367188 43.671875 36.230469 44.191406 36.109375 C 44.710938 35.984375 45.238281 35.882812 45.773438 35.792969 C 46.304688 35.703125 46.839844 35.625 47.382812 35.554688 C 47.917969 35.484375 48.457031 35.421875 49 35.371094 C 49.109375 35.359375 49.183594 35.265625 49.175781 35.160156 C 49.164062 35.0625 49.078125 34.988281 48.980469 34.988281 Z M 48.980469 34.988281 " fill-opacity="1" fill-rule="nonzero"/><path fill="#ffffff" d="M 21.191406 32.761719 L 21.191406 32.742188 C 21.175781 32.742188 21.175781 32.746094 21.191406 32.761719 Z M 21.191406 32.761719 " fill-opacity="1" fill-rule="nonzero"/><path fill="#ffffff" d="M 21.191406 32.761719 L 21.191406 32.742188 C 21.175781 32.742188 21.175781 32.746094 21.191406 32.761719 Z M 21.191406 32.761719 " fill-opacity="1" fill-rule="nonzero"/><path fill="#ffffff" d="M 21.191406 32.742188 C 21.175781 32.742188 21.175781 32.746094 21.191406 32.761719 Z M 21.191406 32.742188 " fill-opacity="1" fill-rule="nonzero"/><path fill="#ffffff" d="M 20.378906 71.339844 C 20.347656 74.164062 23.445312 74.347656 27.238281 74.347656 C 29.953125 74.351562 31.988281 73.894531 33 73.027344 C 34.660156 71.609375 34.234375 63.59375 36.035156 48.988281 L 26.570312 48.132812 C 26.570312 48.132812 26.015625 51.058594 25.429688 55.226562 C 24.90625 58.929688 24.355469 63.613281 24.136719 68.089844 C 24.136719 68.089844 20.734375 69.011719 20.402344 71.046875 C 20.390625 71.140625 20.378906 71.238281 20.378906 71.339844 Z M 20.378906 71.339844 " fill-opacity="1" fill-rule="nonzero"/><g mask="url(#a1c19c8e10)"><g transform="matrix(1, 0, 0, 1, 20, 48)"><g clip-path="url(#3c1e9f069e)"><g clip-path="url(#06f1fa29ad)"><path fill="#371a45" d="M 0.378906 23.339844 C 0.347656 26.164062 3.445312 26.347656 7.238281 26.347656 C 9.953125 26.351562 11.988281 25.894531 13 25.027344 C 14.660156 23.609375 14.234375 15.59375 16.035156 0.988281 L 6.570312 0.132812 C 6.570312 0.132812 6.015625 3.058594 5.429688 7.226562 C 7.503906 8.71875 9.359375 9.414062 11.300781 11.644531 C 13.628906 14.3125 13.109375 23.460938 8.609375 24.050781 C 5.046875 24.523438 1.859375 24.421875 0.402344 23.042969 C 0.390625 23.140625 0.378906 23.238281 0.378906 23.339844 Z M 0.378906 23.339844 " fill-opacity="1" fill-rule="nonzero"/></g></g></g></g><path fill="#371a45" d="M 27.25 74.789062 C 30.109375 74.789062 32.199219 74.296875 33.292969 73.363281 C 34.429688 72.390625 34.65625 69.378906 35.117188 63.378906 C 35.40625 59.589844 35.765625 54.867188 36.484375 49.039062 C 36.511719 48.796875 36.339844 48.574219 36.09375 48.542969 C 35.851562 48.515625 35.628906 48.6875 35.597656 48.929688 C 34.878906 54.78125 34.515625 59.511719 34.226562 63.3125 C 33.832031 68.519531 33.566406 71.957031 32.710938 72.6875 C 31.796875 73.472656 29.859375 73.902344 27.25 73.902344 C 27.246094 73.902344 27.242188 73.902344 27.238281 73.902344 C 24.695312 73.898438 22.332031 73.816406 21.347656 72.832031 C 20.988281 72.464844 20.816406 71.980469 20.824219 71.339844 C 20.839844 69.78125 23.308594 68.769531 24.257812 68.511719 L 24.566406 68.429688 L 24.585938 68.109375 C 25.039062 58.734375 26.988281 48.316406 27.007812 48.210938 C 27.054688 47.972656 26.894531 47.742188 26.652344 47.695312 C 26.410156 47.648438 26.175781 47.808594 26.128906 48.050781 C 26.109375 48.152344 24.191406 58.402344 23.710938 67.757812 C 22.753906 68.074219 19.957031 69.179688 19.929688 71.332031 C 19.921875 72.207031 20.183594 72.921875 20.714844 73.457031 C 21.941406 74.6875 24.390625 74.785156 27.234375 74.789062 C 27.242188 74.789062 27.246094 74.789062 27.25 74.789062 Z M 27.25 74.789062 " fill-opacity="1" fill-rule="nonzero"/><g mask="url(#0309790f90)"><g transform="matrix(1, 0, 0, 1, 36, 49)"><g clip-path="url(#a2170316ac)"><g clip-path="url(#ae8cac67a8)"><path fill="#371a45" d="M 0.265625 0.898438 C 0.285156 0.6875 0.308594 0.46875 0.335938 0.246094 C 0.308594 0.46875 0.285156 0.6875 0.265625 0.898438 Z M 0.265625 0.898438 " fill-opacity="1" fill-rule="nonzero"/></g></g></g></g><g mask="url(#00cb195923)"><g transform="matrix(1, 0, 0, 1, 37, 48)"><g clip-path="url(#fd60a40e33)"><g clip-path="url(#77791cfd41)"><path fill="#371a45" d="M 0.972656 1.789062 C 0.996094 1.527344 1.023438 1.265625 1.050781 0.996094 C 1.023438 1.265625 0.996094 1.53125 0.972656 1.789062 Z M 0.972656 1.789062 " fill-opacity="1" fill-rule="nonzero"/></g></g></g></g><path fill="#ffffff" d="M 25.03125 49.164062 C 25.101562 49.757812 25.222656 50.320312 25.40625 50.839844 C 25.769531 51.867188 26.324219 52.757812 27.027344 53.527344 C 32.433594 59.425781 46.480469 57.738281 46.917969 50.324219 C 46.933594 50.070312 46.933594 49.808594 46.914062 49.539062 C 46.847656 48.585938 46.757812 47.578125 46.65625 46.535156 C 46.039062 40.226562 44.9375 32.539062 45.832031 27.300781 C 43.9375 29.183594 31.179688 30.011719 31.105469 28.820312 C 31.023438 27.644531 41.230469 22.648438 36.789062 23.351562 C 33.519531 24.039062 28.734375 24.652344 27.796875 27.300781 C 27.742188 27.882812 27.464844 28.636719 27.269531 29.171875 L 26.425781 37.4375 C 25.875 41.410156 24.640625 45.808594 25.03125 49.164062 Z M 25.03125 49.164062 " fill-opacity="1" fill-rule="nonzero"/><path fill="#371a45" d="M 26.203125 37.402344 C 25.808594 38.679688 25.554688 39.972656 25.316406 41.28125 C 25.078125 42.589844 24.835938 43.902344 24.671875 45.242188 C 24.589844 45.910156 24.527344 46.585938 24.507812 47.269531 C 24.484375 47.949219 24.496094 48.636719 24.585938 49.328125 C 24.628906 49.671875 24.691406 50.015625 24.777344 50.359375 L 24.84375 50.617188 C 24.867188 50.703125 24.898438 50.785156 24.925781 50.871094 C 24.976562 51.039062 25.039062 51.203125 25.109375 51.367188 C 25.371094 52.023438 25.726562 52.640625 26.148438 53.203125 C 26.996094 54.332031 28.117188 55.226562 29.339844 55.882812 C 30.570312 56.546875 31.894531 56.984375 33.246094 57.25 C 34.601562 57.515625 35.984375 57.609375 37.359375 57.542969 C 38.734375 57.472656 40.105469 57.246094 41.421875 56.820312 C 42.738281 56.390625 44.019531 55.765625 45.101562 54.839844 C 45.636719 54.378906 46.121094 53.839844 46.503906 53.222656 C 46.886719 52.613281 47.164062 51.929688 47.304688 51.21875 C 47.375 50.863281 47.417969 50.5 47.425781 50.140625 C 47.433594 49.960938 47.429688 49.78125 47.417969 49.605469 C 47.410156 49.425781 47.394531 49.269531 47.386719 49.097656 C 47.335938 48.433594 47.28125 47.765625 47.21875 47.101562 C 47.09375 45.777344 46.949219 44.453125 46.808594 43.132812 C 46.527344 40.492188 46.246094 37.855469 46.097656 35.21875 C 46.023438 33.902344 45.976562 32.585938 46.003906 31.273438 C 46.023438 29.964844 46.113281 28.65625 46.324219 27.378906 L 46.578125 25.855469 L 45.480469 26.945312 C 45.398438 27.027344 45.277344 27.113281 45.140625 27.1875 C 45.003906 27.265625 44.855469 27.335938 44.699219 27.402344 C 44.382812 27.53125 44.050781 27.644531 43.707031 27.742188 C 43.023438 27.9375 42.3125 28.089844 41.597656 28.21875 C 40.167969 28.472656 38.714844 28.640625 37.261719 28.753906 C 36.535156 28.808594 35.804688 28.847656 35.078125 28.867188 C 34.351562 28.882812 33.625 28.882812 32.914062 28.835938 C 32.558594 28.8125 32.203125 28.777344 31.886719 28.707031 C 31.804688 28.691406 31.730469 28.671875 31.664062 28.652344 C 31.601562 28.632812 31.542969 28.605469 31.519531 28.589844 C 31.507812 28.585938 31.511719 28.582031 31.535156 28.609375 C 31.546875 28.621094 31.566406 28.644531 31.578125 28.679688 C 31.585938 28.699219 31.589844 28.71875 31.597656 28.738281 C 31.601562 28.761719 31.601562 28.785156 31.601562 28.796875 C 31.597656 28.855469 31.589844 28.871094 31.589844 28.867188 C 31.59375 28.863281 31.601562 28.84375 31.613281 28.824219 C 31.675781 28.738281 31.792969 28.617188 31.914062 28.507812 C 32.035156 28.394531 32.171875 28.285156 32.308594 28.175781 C 32.585938 27.957031 32.882812 27.75 33.175781 27.542969 C 34.375 26.714844 35.628906 25.949219 36.855469 25.089844 C 37.160156 24.871094 37.46875 24.652344 37.769531 24.394531 C 37.847656 24.328125 37.921875 24.257812 38 24.183594 C 38.078125 24.105469 38.152344 24.023438 38.234375 23.902344 C 38.277344 23.839844 38.320312 23.769531 38.359375 23.652344 C 38.367188 23.625 38.375 23.589844 38.378906 23.554688 C 38.386719 23.511719 38.390625 23.472656 38.386719 23.421875 C 38.382812 23.332031 38.347656 23.210938 38.285156 23.125 C 38.253906 23.078125 38.222656 23.042969 38.191406 23.011719 C 38.160156 22.984375 38.121094 22.957031 38.09375 22.941406 C 38.035156 22.902344 37.976562 22.878906 37.933594 22.867188 C 37.839844 22.835938 37.761719 22.824219 37.699219 22.816406 C 37.433594 22.792969 37.238281 22.8125 37.039062 22.835938 C 36.9375 22.847656 36.847656 22.859375 36.734375 22.875 C 36.636719 22.894531 36.539062 22.914062 36.453125 22.933594 L 35.371094 23.152344 C 33.925781 23.441406 32.457031 23.734375 31.015625 24.234375 C 30.300781 24.492188 29.585938 24.800781 28.925781 25.25 C 28.597656 25.476562 28.285156 25.738281 28.011719 26.054688 C 27.742188 26.367188 27.515625 26.738281 27.375 27.140625 L 27.359375 27.195312 L 27.355469 27.246094 C 27.328125 27.515625 27.253906 27.816406 27.164062 28.109375 C 27.074219 28.40625 26.964844 28.703125 26.855469 29.007812 C 26.769531 29.238281 26.890625 29.492188 27.121094 29.574219 C 27.351562 29.660156 27.609375 29.542969 27.691406 29.3125 C 27.804688 29.007812 27.921875 28.695312 28.019531 28.367188 C 28.117188 28.042969 28.210938 27.710938 28.25 27.332031 L 28.226562 27.4375 C 28.433594 26.855469 28.886719 26.371094 29.445312 25.992188 C 30.003906 25.613281 30.65625 25.328125 31.324219 25.09375 C 32.675781 24.628906 34.109375 24.347656 35.554688 24.066406 L 36.644531 23.851562 C 36.738281 23.832031 36.820312 23.8125 36.902344 23.800781 C 36.972656 23.792969 37.066406 23.777344 37.148438 23.769531 C 37.3125 23.75 37.484375 23.738281 37.59375 23.75 C 37.617188 23.753906 37.632812 23.757812 37.628906 23.757812 C 37.625 23.753906 37.613281 23.75 37.59375 23.738281 C 37.566406 23.722656 37.535156 23.695312 37.5 23.644531 C 37.464844 23.59375 37.441406 23.519531 37.441406 23.472656 C 37.441406 23.445312 37.441406 23.429688 37.441406 23.410156 C 37.441406 23.398438 37.449219 23.386719 37.449219 23.378906 C 37.460938 23.347656 37.457031 23.359375 37.449219 23.375 C 37.425781 23.40625 37.378906 23.460938 37.328125 23.511719 C 37.273438 23.566406 37.214844 23.621094 37.152344 23.675781 C 36.894531 23.894531 36.605469 24.105469 36.308594 24.308594 C 35.117188 25.132812 33.855469 25.898438 32.625 26.738281 C 32.316406 26.949219 32.011719 27.167969 31.707031 27.402344 C 31.554688 27.519531 31.40625 27.644531 31.253906 27.777344 C 31.105469 27.914062 30.953125 28.050781 30.800781 28.265625 C 30.765625 28.320312 30.726562 28.382812 30.6875 28.460938 C 30.65625 28.539062 30.613281 28.644531 30.613281 28.796875 C 30.613281 28.832031 30.621094 28.878906 30.625 28.921875 C 30.632812 28.964844 30.648438 29.003906 30.664062 29.046875 C 30.695312 29.121094 30.738281 29.183594 30.78125 29.234375 C 30.863281 29.328125 30.941406 29.382812 31.011719 29.425781 C 31.144531 29.503906 31.261719 29.546875 31.371094 29.578125 C 31.476562 29.613281 31.582031 29.640625 31.683594 29.660156 C 32.085938 29.746094 32.46875 29.78125 32.851562 29.808594 C 33.613281 29.859375 34.359375 29.859375 35.105469 29.839844 C 35.855469 29.820312 36.597656 29.785156 37.339844 29.726562 C 38.828125 29.617188 40.308594 29.445312 41.78125 29.179688 C 42.519531 29.046875 43.253906 28.890625 43.988281 28.679688 C 44.355469 28.574219 44.722656 28.453125 45.089844 28.300781 C 45.269531 28.226562 45.453125 28.136719 45.636719 28.035156 C 45.820312 27.929688 46.007812 27.808594 46.1875 27.632812 L 45.34375 27.199219 C 45.121094 28.546875 45.027344 29.898438 45.007812 31.242188 C 44.980469 32.585938 45.027344 33.925781 45.101562 35.261719 C 45.253906 37.933594 45.535156 40.582031 45.8125 43.222656 C 45.953125 44.546875 46.097656 45.867188 46.21875 47.183594 C 46.28125 47.839844 46.335938 48.5 46.386719 49.15625 C 46.394531 49.316406 46.410156 49.492188 46.417969 49.644531 C 46.429688 49.796875 46.429688 49.949219 46.425781 50.101562 C 46.417969 50.40625 46.382812 50.710938 46.324219 51.003906 C 46.207031 51.597656 45.980469 52.164062 45.65625 52.683594 C 45.335938 53.203125 44.925781 53.667969 44.453125 54.074219 C 43.507812 54.890625 42.34375 55.472656 41.121094 55.875 C 39.898438 56.273438 38.609375 56.496094 37.3125 56.5625 C 36.015625 56.632812 34.707031 56.546875 33.4375 56.300781 C 32.167969 56.054688 30.929688 55.644531 29.800781 55.042969 C 28.671875 54.4375 27.660156 53.632812 26.902344 52.628906 C 26.523438 52.128906 26.210938 51.582031 25.976562 51.003906 C 25.917969 50.859375 25.859375 50.710938 25.8125 50.566406 C 25.789062 50.492188 25.765625 50.417969 25.746094 50.34375 L 25.683594 50.121094 C 25.609375 49.820312 25.550781 49.511719 25.511719 49.195312 C 25.425781 48.570312 25.410156 47.925781 25.429688 47.277344 C 25.449219 46.632812 25.503906 45.984375 25.582031 45.332031 C 25.738281 44.03125 25.96875 42.726562 26.207031 41.421875 C 26.449219 40.121094 26.6875 38.800781 26.65625 37.445312 C 26.652344 37.320312 26.550781 37.222656 26.425781 37.226562 C 26.316406 37.246094 26.234375 37.3125 26.203125 37.402344 Z M 26.203125 37.402344 " fill-opacity="1" fill-rule="nonzero"/><path fill="#371a45" d="M 33.3125 62.980469 C 34.160156 62.980469 34.707031 62.9375 34.777344 62.929688 C 35.023438 62.90625 35.203125 62.691406 35.179688 62.449219 C 35.160156 62.207031 34.941406 62.027344 34.699219 62.046875 C 34.644531 62.050781 29.035156 62.515625 24.96875 60.265625 C 24.753906 60.148438 24.480469 60.222656 24.363281 60.4375 C 24.242188 60.652344 24.320312 60.921875 24.535156 61.039062 C 27.570312 62.71875 31.292969 62.980469 33.3125 62.980469 Z M 33.3125 62.980469 " fill-opacity="1" fill-rule="nonzero"/><path fill="#371a45" d="M 24.226562 68.523438 C 24.382812 68.488281 24.570312 68.453125 24.746094 68.425781 C 24.925781 68.398438 25.105469 68.378906 25.285156 68.359375 C 25.648438 68.328125 26.015625 68.316406 26.378906 68.328125 C 26.746094 68.332031 27.105469 68.375 27.464844 68.4375 C 27.828125 68.492188 28.175781 68.597656 28.519531 68.71875 L 28.53125 68.722656 C 28.648438 68.765625 28.773438 68.703125 28.8125 68.585938 C 28.851562 68.480469 28.800781 68.363281 28.695312 68.3125 C 28.339844 68.148438 27.96875 68 27.589844 67.898438 C 27.207031 67.792969 26.820312 67.714844 26.429688 67.667969 C 26.039062 67.617188 25.644531 67.589844 25.25 67.589844 C 25.050781 67.589844 24.855469 67.589844 24.65625 67.601562 C 24.558594 67.609375 24.460938 67.613281 24.359375 67.625 C 24.257812 67.632812 24.164062 67.644531 24.046875 67.660156 C 23.804688 67.695312 23.632812 67.921875 23.671875 68.164062 C 23.707031 68.40625 23.933594 68.574219 24.175781 68.535156 C 24.191406 68.535156 24.203125 68.53125 24.21875 68.53125 Z M 24.226562 68.523438 " fill-opacity="1" fill-rule="nonzero"/><path fill="#ffffff" d="M 35.476562 54.160156 C 35.476562 54.160156 37.59375 65 38.582031 70.070312 C 39.429688 74.398438 42.394531 74.679688 48.902344 74.441406 C 51.191406 74.355469 52.9375 73.570312 52.761719 71.710938 C 52.527344 69.210938 48.976562 68.265625 48.976562 68.265625 C 48.976562 68.265625 47.695312 55.65625 46.828125 48.769531 Z M 35.476562 54.160156 " fill-opacity="1" fill-rule="nonzero"/><g mask="url(#d7afe3e06c)"><g transform="matrix(1, 0, 0, 1, 35, 54)"><g clip-path="url(#2a5ec68d70)"><g clip-path="url(#0ad44c9887)"><path fill="#371a45" d="M 4.550781 13.449219 C 3.828125 8.917969 1.144531 2.175781 0.585938 0.71875 C 1.03125 3 2.726562 11.691406 3.582031 16.070312 C 4.429688 20.398438 7.394531 20.679688 13.902344 20.4375 C 16.191406 20.351562 17.9375 19.566406 17.761719 17.707031 C 17.742188 17.515625 17.703125 17.332031 17.648438 17.160156 C 17.128906 17.855469 15.972656 18.1875 14.867188 18.25 C 7.832031 18.644531 5.234375 17.742188 4.550781 13.449219 Z M 4.550781 13.449219 " fill-opacity="1" fill-rule="nonzero"/></g></g></g></g><path fill="#371a45" d="M 35.257812 54.199219 C 35.386719 55.851562 35.671875 57.46875 35.980469 59.082031 L 36.910156 63.925781 L 37.839844 68.765625 L 38.070312 69.980469 C 38.105469 70.175781 38.148438 70.394531 38.199219 70.605469 C 38.25 70.8125 38.308594 71.023438 38.378906 71.234375 C 38.511719 71.652344 38.691406 72.066406 38.929688 72.457031 C 39.167969 72.847656 39.46875 73.210938 39.820312 73.519531 C 40.171875 73.824219 40.574219 74.066406 40.988281 74.25 C 41.402344 74.433594 41.832031 74.566406 42.257812 74.664062 C 43.113281 74.855469 43.96875 74.929688 44.808594 74.964844 C 45.652344 75 46.488281 74.992188 47.320312 74.976562 C 47.738281 74.964844 48.152344 74.953125 48.566406 74.941406 L 48.878906 74.929688 C 48.984375 74.921875 49.09375 74.917969 49.203125 74.910156 C 49.417969 74.898438 49.636719 74.875 49.851562 74.847656 C 50.285156 74.792969 50.726562 74.699219 51.15625 74.550781 C 51.585938 74.402344 52.019531 74.191406 52.394531 73.863281 C 52.585938 73.699219 52.753906 73.503906 52.890625 73.285156 C 53.027344 73.066406 53.125 72.820312 53.179688 72.570312 C 53.238281 72.324219 53.253906 72.074219 53.242188 71.832031 C 53.234375 71.59375 53.191406 71.351562 53.128906 71.117188 C 53 70.652344 52.761719 70.226562 52.464844 69.867188 C 52.171875 69.503906 51.828125 69.203125 51.464844 68.945312 C 51.097656 68.6875 50.714844 68.476562 50.316406 68.292969 C 50.121094 68.203125 49.917969 68.117188 49.714844 68.042969 C 49.613281 68.003906 49.511719 67.96875 49.40625 67.929688 C 49.300781 67.894531 49.203125 67.863281 49.082031 67.832031 L 49.410156 68.214844 C 49.074219 64.960938 48.734375 61.710938 48.382812 58.460938 C 48.027344 55.207031 47.664062 51.960938 47.257812 48.710938 C 47.226562 48.46875 47.003906 48.296875 46.761719 48.328125 C 46.519531 48.355469 46.34375 48.578125 46.375 48.820312 L 46.375 48.824219 C 46.777344 52.058594 47.140625 55.308594 47.496094 58.554688 C 47.847656 61.804688 48.1875 65.054688 48.519531 68.304688 L 48.550781 68.605469 L 48.847656 68.6875 C 48.925781 68.710938 49.023438 68.742188 49.113281 68.773438 C 49.207031 68.804688 49.296875 68.839844 49.390625 68.878906 C 49.570312 68.949219 49.75 69.027344 49.925781 69.113281 C 50.277344 69.28125 50.613281 69.476562 50.921875 69.699219 C 51.535156 70.140625 52.035156 70.710938 52.207031 71.371094 C 52.292969 71.695312 52.3125 72.054688 52.238281 72.355469 C 52.164062 72.660156 52 72.921875 51.75 73.132812 C 51.5 73.347656 51.179688 73.507812 50.828125 73.628906 C 50.480469 73.746094 50.101562 73.828125 49.71875 73.875 C 49.523438 73.902344 49.328125 73.921875 49.132812 73.933594 C 49.035156 73.9375 48.9375 73.941406 48.835938 73.945312 L 48.527344 73.957031 C 48.117188 73.972656 47.707031 73.984375 47.292969 73.992188 C 46.472656 74.007812 45.65625 74.011719 44.84375 73.976562 C 44.035156 73.941406 43.234375 73.871094 42.476562 73.699219 C 41.71875 73.527344 41.011719 73.238281 40.464844 72.769531 C 39.914062 72.304688 39.539062 71.65625 39.300781 70.933594 C 39.238281 70.75 39.183594 70.566406 39.136719 70.375 C 39.09375 70.1875 39.054688 70 39.011719 69.792969 L 38.769531 68.585938 L 37.8125 63.746094 L 36.851562 58.910156 C 36.535156 57.300781 36.1875 55.691406 35.6875 54.113281 C 35.652344 53.996094 35.523438 53.933594 35.40625 53.96875 C 35.3125 54.003906 35.25 54.101562 35.257812 54.199219 Z M 35.257812 54.199219 " fill-opacity="1" fill-rule="nonzero"/><path fill="#371a45" d="M 40.867188 62.757812 C 46.203125 62.757812 48.34375 61.5625 48.453125 61.5 C 48.664062 61.378906 48.734375 61.109375 48.613281 60.894531 C 48.492188 60.683594 48.21875 60.613281 48.003906 60.734375 C 47.96875 60.753906 44.929688 62.40625 37.074219 61.6875 C 36.832031 61.664062 36.609375 61.84375 36.589844 62.089844 C 36.566406 62.332031 36.75 62.546875 36.992188 62.570312 C 38.4375 62.703125 39.722656 62.757812 40.867188 62.757812 Z M 40.867188 62.757812 " fill-opacity="1" fill-rule="nonzero"/><path fill="#371a45" d="M 49.195312 67.820312 C 48.875 67.769531 48.582031 67.742188 48.277344 67.71875 C 47.972656 67.699219 47.667969 67.6875 47.363281 67.6875 C 46.757812 67.683594 46.148438 67.71875 45.546875 67.804688 C 44.945312 67.890625 44.34375 68.023438 43.769531 68.226562 C 43.480469 68.328125 43.199219 68.449219 42.925781 68.585938 C 42.652344 68.722656 42.390625 68.882812 42.140625 69.0625 C 42.039062 69.132812 42.015625 69.269531 42.085938 69.371094 C 42.152344 69.464844 42.285156 69.492188 42.386719 69.429688 L 42.394531 69.425781 C 42.632812 69.28125 42.882812 69.144531 43.140625 69.03125 C 43.402344 68.921875 43.671875 68.828125 43.941406 68.75 C 44.492188 68.597656 45.054688 68.507812 45.625 68.460938 C 46.191406 68.417969 46.765625 68.417969 47.335938 68.457031 C 47.621094 68.476562 47.910156 68.507812 48.191406 68.542969 C 48.472656 68.582031 48.761719 68.628906 49.019531 68.6875 L 49.03125 68.691406 C 49.269531 68.742188 49.511719 68.59375 49.5625 68.355469 C 49.617188 68.117188 49.464844 67.878906 49.226562 67.824219 C 49.214844 67.824219 49.207031 67.820312 49.195312 67.820312 Z M 49.195312 67.820312 " fill-opacity="1" fill-rule="nonzero"/><g mask="url(#2898b945e8)"><g transform="matrix(1, 0, 0, 1, 24, 43)"><g clip-path="url(#bcb63e653f)"><g clip-path="url(#5ee334d88a)"><path fill="#371a45" d="M 1.03125 6.164062 C 1.070312 6.472656 1.117188 6.765625 1.183594 7.054688 C 1.195312 7.121094 1.214844 7.191406 1.230469 7.257812 C 1.28125 7.457031 1.339844 7.652344 1.40625 7.84375 C 1.46875 8.015625 1.535156 8.183594 1.605469 8.347656 C 1.621094 8.386719 1.636719 8.425781 1.65625 8.464844 C 1.675781 8.507812 1.695312 8.546875 1.714844 8.589844 C 1.742188 8.640625 1.765625 8.695312 1.792969 8.75 C 1.945312 9.054688 2.121094 9.34375 2.308594 9.621094 C 2.34375 9.671875 2.378906 9.722656 2.414062 9.773438 C 2.449219 9.820312 2.480469 9.867188 2.515625 9.914062 C 2.5625 9.976562 2.609375 10.035156 2.65625 10.09375 C 2.695312 10.140625 2.734375 10.191406 2.773438 10.238281 C 2.792969 10.261719 2.808594 10.28125 2.828125 10.304688 C 2.871094 10.351562 2.910156 10.402344 2.953125 10.445312 C 2.980469 10.476562 3.007812 10.503906 3.03125 10.53125 C 5.148438 12.839844 8.585938 13.988281 12.019531 14.082031 L 11.371094 10.980469 C 10.59375 10.941406 9.820312 10.863281 9.058594 10.746094 L 13.390625 10.898438 C 14.609375 10.941406 15.640625 9.984375 15.683594 8.773438 L 15.714844 7.960938 C 19.980469 8.453125 22.285156 7.617188 22.925781 7.332031 C 22.941406 7.078125 22.941406 6.8125 22.921875 6.546875 C 22.855469 5.59375 22.765625 4.585938 22.664062 3.539062 C 20.3125 4.609375 17.253906 4.5 15.839844 4.375 L 15.875 3.339844 C 15.914062 2.28125 15.179688 1.363281 14.179688 1.121094 C 14.035156 1.085938 13.890625 1.066406 13.738281 1.0625 L 3.453125 0.703125 C 2.230469 0.660156 1.199219 1.617188 1.160156 2.824219 Z M 1.03125 6.164062 " fill-opacity="1" fill-rule="nonzero"/></g></g></g></g><path fill="#ffffff" d="M 26.839844 51.636719 L 37.125 51.996094 C 38.34375 52.039062 39.375 51.082031 39.417969 49.871094 L 39.613281 44.433594 C 39.652344 43.371094 38.917969 42.457031 37.914062 42.214844 C 37.773438 42.179688 37.625 42.160156 37.472656 42.15625 L 27.1875 41.796875 C 25.96875 41.753906 24.9375 42.710938 24.894531 43.921875 L 24.742188 48.226562 L 24.703125 49.355469 C 24.65625 50.566406 25.621094 51.59375 26.839844 51.636719 Z M 26.839844 51.636719 " fill-opacity="1" fill-rule="nonzero"/><g mask="url(#58c64df06b)"><g transform="matrix(1, 0, 0, 1, 24, 42)"><g clip-path="url(#8fe9f18e37)"><g clip-path="url(#344ef93e53)"><path fill="#371a45" d="M 2.839844 9.636719 L 13.125 9.996094 C 14.34375 10.039062 15.375 9.082031 15.417969 7.871094 L 15.613281 2.433594 C 15.652344 1.371094 14.917969 0.457031 13.914062 0.214844 C 13.316406 0.578125 12.9375 0.816406 12.9375 0.816406 C 12.28125 5.160156 12.363281 8.402344 5.5625 7.71875 C 3.214844 7.480469 1.664062 6.742188 0.742188 6.230469 L 0.703125 7.359375 C 0.65625 8.566406 1.621094 9.59375 2.839844 9.636719 Z M 2.839844 9.636719 " fill-opacity="1" fill-rule="nonzero"/></g></g></g></g><path fill="#371a45" d="M 37.007812 52.429688 C 37.734375 52.429688 38.421875 52.160156 38.960938 51.664062 C 39.519531 51.144531 39.84375 50.445312 39.871094 49.6875 L 40.050781 44.652344 C 40.105469 43.082031 38.867188 41.761719 37.285156 41.707031 L 27.402344 41.363281 C 26.640625 41.335938 25.914062 41.609375 25.351562 42.128906 C 24.789062 42.648438 24.464844 43.347656 24.441406 44.105469 L 24.261719 49.140625 C 24.207031 50.710938 25.445312 52.027344 27.023438 52.085938 L 36.90625 52.429688 C 36.941406 52.429688 36.976562 52.429688 37.007812 52.429688 Z M 27.300781 42.246094 C 27.324219 42.246094 27.347656 42.246094 27.371094 42.25 L 37.253906 42.59375 C 38.34375 42.632812 39.195312 43.542969 39.15625 44.621094 L 38.980469 49.660156 C 38.960938 50.179688 38.738281 50.660156 38.347656 51.019531 C 37.964844 51.378906 37.460938 51.5625 36.9375 51.546875 L 27.054688 51.203125 C 26.53125 51.183594 26.042969 50.964844 25.679688 50.578125 C 25.320312 50.195312 25.132812 49.695312 25.152344 49.175781 L 25.328125 44.140625 C 25.347656 43.621094 25.570312 43.136719 25.957031 42.777344 C 26.328125 42.429688 26.800781 42.246094 27.300781 42.246094 Z M 27.300781 42.246094 " fill-opacity="1" fill-rule="nonzero"/><path fill="#ffffff" d="M 26.425781 51.582031 C 26.558594 51.613281 26.695312 51.632812 26.839844 51.636719 L 37.125 51.996094 C 38.019531 52.027344 38.8125 51.523438 39.1875 50.773438 C 39.324219 50.5 39.40625 50.195312 39.417969 49.871094 L 39.503906 47.457031 L 39.53125 46.65625 L 39.613281 44.433594 C 39.65625 43.222656 38.691406 42.199219 37.472656 42.15625 L 35.25 42.078125 C 36.269531 42.308594 37.019531 43.230469 36.980469 44.300781 L 36.875 47.238281 L 36.785156 49.742188 C 36.742188 50.953125 35.710938 51.90625 34.492188 51.867188 Z M 26.425781 51.582031 " fill-opacity="1" fill-rule="nonzero"/><g mask="url(#fae6434213)"><g transform="matrix(1, 0, 0, 1, 26, 46)"><g clip-path="url(#b7c3f658bf)"><g clip-path="url(#ab4043c98d)"><path fill="#371a45" d="M 0.425781 5.582031 C 0.558594 5.613281 0.695312 5.632812 0.839844 5.636719 L 11.125 5.996094 C 12.34375 6.039062 13.375 5.082031 13.417969 3.871094 L 13.53125 0.65625 C 13.253906 1.214844 12.765625 1.894531 12.019531 1.945312 C 11.609375 1.96875 11.21875 1.667969 10.878906 1.238281 L 10.789062 3.738281 C 10.746094 4.949219 9.714844 5.90625 8.496094 5.863281 Z M 0.425781 5.582031 " fill-opacity="1" fill-rule="nonzero"/></g></g></g></g><path fill="#371a45" d="M 37.207031 52.4375 C 37.878906 52.4375 38.519531 52.1875 39.015625 51.726562 C 39.539062 51.242188 39.839844 50.589844 39.863281 49.886719 L 40.054688 44.449219 C 40.109375 42.996094 38.957031 41.765625 37.488281 41.714844 L 35.265625 41.640625 L 35.152344 42.511719 C 35.980469 42.699219 36.5625 43.445312 36.535156 44.289062 L 36.339844 49.726562 C 36.324219 50.195312 36.125 50.628906 35.777344 50.953125 C 35.429688 51.273438 34.980469 51.441406 34.511719 51.421875 L 26.441406 51.140625 L 26.324219 52.015625 C 26.488281 52.054688 26.65625 52.074219 26.824219 52.078125 L 37.109375 52.4375 C 37.140625 52.4375 37.171875 52.4375 37.207031 52.4375 Z M 36.84375 42.578125 L 37.457031 42.597656 C 38.433594 42.632812 39.199219 43.449219 39.164062 44.417969 L 38.972656 49.855469 C 38.953125 50.324219 38.753906 50.757812 38.40625 51.082031 C 38.058594 51.402344 37.609375 51.570312 37.140625 51.554688 L 36.457031 51.53125 C 36.933594 51.054688 37.207031 50.429688 37.234375 49.757812 L 37.425781 44.320312 C 37.449219 43.667969 37.226562 43.054688 36.84375 42.578125 Z M 36.84375 42.578125 " fill-opacity="1" fill-rule="nonzero"/><path fill="#c62127" d="M 32.824219 46.921875 C 32.820312 47.125 33.058594 48.753906 33.058594 48.753906 C 33.058594 48.753906 33.574219 48.769531 34.210938 48.789062 C 35.003906 48.8125 35.671875 48.011719 35.703125 47.007812 C 35.730469 46 35.109375 45.164062 34.316406 45.140625 C 33.78125 45.125 33.164062 45.109375 33.164062 45.109375 C 33.164062 45.109375 32.835938 46.597656 32.824219 46.921875 Z M 32.824219 46.921875 " fill-opacity="1" fill-rule="nonzero"/><g mask="url(#145cd67021)"><g transform="matrix(1, 0, 0, 1, 32, 44)"><g clip-path="url(#dac095359f)"><g clip-path="url(#1d22e1470d)"><path fill="#371a45" d="M 0.824219 2.921875 C 0.820312 3.125 1.058594 4.753906 1.058594 4.753906 C 1.058594 4.753906 1.574219 4.769531 2.210938 4.789062 C 3.003906 4.8125 3.671875 4.011719 3.703125 3.007812 C 3.730469 2 3.109375 1.164062 2.316406 1.140625 C 1.78125 1.125 1.164062 1.109375 1.164062 1.109375 C 1.164062 1.109375 0.835938 2.597656 0.824219 2.921875 Z M 0.824219 2.921875 " fill-opacity="1" fill-rule="nonzero"/></g></g></g></g><path fill="#371a45" d="M 34.242188 49.125 C 35.199219 49.125 36 48.191406 36.035156 47.019531 C 36.074219 45.832031 35.304688 44.839844 34.328125 44.8125 L 32.898438 44.769531 L 32.835938 45.039062 C 32.78125 45.292969 32.503906 46.578125 32.492188 46.917969 C 32.484375 47.128906 32.667969 48.417969 32.722656 48.804688 L 32.765625 49.082031 L 34.199219 49.121094 C 34.214844 49.125 34.230469 49.125 34.242188 49.125 Z M 33.429688 45.449219 L 34.304688 45.476562 C 34.914062 45.492188 35.390625 46.175781 35.367188 47 C 35.34375 47.824219 34.824219 48.476562 34.21875 48.460938 L 33.347656 48.433594 C 33.246094 47.742188 33.160156 47.046875 33.160156 46.933594 C 33.164062 46.746094 33.3125 46.007812 33.429688 45.449219 Z M 33.429688 45.449219 " fill-opacity="1" fill-rule="nonzero"/><path fill="#c62127" d="M 31.667969 46.894531 C 31.660156 47.136719 31.691406 47.371094 31.757812 47.597656 C 31.824219 47.820312 31.921875 48.023438 32.050781 48.195312 C 32.179688 48.371094 32.332031 48.507812 32.507812 48.605469 C 32.679688 48.703125 32.863281 48.753906 33.054688 48.761719 C 33.242188 48.765625 33.429688 48.726562 33.609375 48.636719 C 33.785156 48.550781 33.945312 48.421875 34.085938 48.257812 C 34.226562 48.089844 34.335938 47.894531 34.414062 47.675781 C 34.496094 47.453125 34.539062 47.222656 34.546875 46.980469 C 34.550781 46.738281 34.523438 46.503906 34.457031 46.277344 C 34.390625 46.050781 34.292969 45.851562 34.164062 45.675781 C 34.03125 45.503906 33.878906 45.367188 33.707031 45.269531 C 33.535156 45.171875 33.351562 45.117188 33.160156 45.113281 C 32.96875 45.109375 32.785156 45.148438 32.605469 45.234375 C 32.425781 45.324219 32.265625 45.449219 32.128906 45.617188 C 31.988281 45.785156 31.878906 45.980469 31.796875 46.199219 C 31.71875 46.421875 31.675781 46.652344 31.667969 46.894531 Z M 31.667969 46.894531 " fill-opacity="1" fill-rule="nonzero"/><g mask="url(#d680277ce0)"><g transform="matrix(1, 0, 0, 1, 31, 46)"><g clip-path="url(#4e4b8bfe98)"><g clip-path="url(#728003986a)"><path fill="#371a45" d="M 3.546875 0.972656 C 3.519531 1.980469 2.851562 2.78125 2.054688 2.753906 C 1.257812 2.730469 0.640625 1.894531 0.671875 0.886719 C 0.671875 0.75 0.691406 0.621094 0.714844 0.492188 C 0.898438 1.191406 1.410156 1.695312 2.027344 1.714844 C 2.714844 1.734375 3.304688 1.140625 3.472656 0.328125 C 3.53125 0.535156 3.554688 0.75 3.546875 0.972656 Z M 3.546875 0.972656 " fill-opacity="1" fill-rule="nonzero"/></g></g></g></g><path fill="#ffffff" d="M 34.546875 46.972656 C 34.542969 47.042969 34.539062 47.109375 34.53125 47.175781 C 34.394531 46.382812 33.847656 45.785156 33.175781 45.765625 C 32.4375 45.742188 31.804688 46.433594 31.703125 47.34375 C 31.675781 47.199219 31.664062 47.046875 31.671875 46.890625 C 31.699219 45.882812 32.367188 45.085938 33.164062 45.109375 C 33.957031 45.132812 34.578125 45.964844 34.546875 46.972656 Z M 34.546875 46.972656 " fill-opacity="1" fill-rule="nonzero"/><path fill="#371a45" d="M 33.089844 49.089844 C 34.046875 49.089844 34.847656 48.15625 34.882812 46.984375 C 34.898438 46.425781 34.738281 45.890625 34.433594 45.476562 C 34.109375 45.042969 33.664062 44.792969 33.171875 44.777344 C 32.683594 44.765625 32.222656 44.988281 31.875 45.402344 C 31.542969 45.796875 31.351562 46.324219 31.335938 46.882812 C 31.320312 47.445312 31.476562 47.980469 31.785156 48.390625 C 32.105469 48.828125 32.554688 49.078125 33.042969 49.089844 C 33.058594 49.089844 33.074219 49.089844 33.089844 49.089844 Z M 33.128906 45.4375 C 33.136719 45.4375 33.144531 45.4375 33.152344 45.4375 C 33.433594 45.445312 33.695312 45.597656 33.894531 45.867188 C 34.113281 46.160156 34.226562 46.550781 34.214844 46.964844 C 34.191406 47.789062 33.675781 48.441406 33.066406 48.425781 C 32.785156 48.417969 32.523438 48.265625 32.324219 47.996094 C 32.105469 47.703125 31.992188 47.3125 32.003906 46.898438 C 32.019531 46.484375 32.152344 46.105469 32.390625 45.824219 C 32.597656 45.574219 32.859375 45.4375 33.128906 45.4375 Z M 33.128906 45.4375 " fill-opacity="1" fill-rule="nonzero"/><path fill="#371a45" d="M 30.039062 52.039062 C 30.222656 52.039062 30.371094 51.894531 30.375 51.714844 L 30.40625 48.960938 C 30.414062 48.207031 30.046875 47.507812 29.417969 47.085938 C 28.96875 46.78125 28.710938 46.277344 28.726562 45.734375 L 28.851562 41.855469 C 28.855469 41.671875 28.710938 41.519531 28.527344 41.515625 C 28.339844 41.511719 28.1875 41.652344 28.183594 41.835938 L 28.058594 45.714844 C 28.035156 46.484375 28.402344 47.203125 29.042969 47.632812 C 29.480469 47.929688 29.742188 48.421875 29.734375 48.949219 L 29.703125 51.703125 C 29.699219 51.886719 29.847656 52.035156 30.035156 52.039062 C 30.035156 52.039062 30.035156 52.039062 30.039062 52.039062 Z M 30.039062 52.039062 " fill-opacity="1" fill-rule="nonzero"/><path fill="#ffffff" d="M 46.519531 44.582031 C 46.519531 44.582031 47.867188 44.757812 47.910156 46.324219 C 47.953125 48.007812 46.847656 48.335938 46.847656 48.335938 C 46.847656 48.335938 44.207031 49.84375 38.277344 48.898438 C 38.277344 48.898438 36.78125 46.625 38.792969 45.382812 C 38.792969 45.382812 43.351562 46.089844 46.519531 44.582031 Z M 46.519531 44.582031 " fill-opacity="1" fill-rule="nonzero"/><g mask="url(#dbb077e9de)"><g transform="matrix(1, 0, 0, 1, 37, 45)"><g clip-path="url(#f11891d621)"><g clip-path="url(#7138b188fc)"><path fill="#371a45" d="M 1.273438 3.898438 C 7.203125 4.84375 9.847656 3.335938 9.847656 3.335938 C 9.847656 3.335938 10.953125 3.007812 10.90625 1.324219 C 10.902344 1.195312 10.890625 1.070312 10.867188 0.957031 C 10.550781 1.53125 10.078125 1.671875 10.078125 1.671875 C 10.078125 1.671875 7.722656 3.019531 2.464844 2.371094 C 1.773438 2.28125 1.199219 1.789062 1.042969 1.113281 C 1.039062 1.105469 1.039062 1.101562 1.039062 1.09375 C 0.246094 2.335938 1.273438 3.898438 1.273438 3.898438 Z M 1.273438 3.898438 " fill-opacity="1" fill-rule="nonzero"/></g></g></g></g><path fill="#371a45" d="M 41.984375 49.628906 C 45.15625 49.628906 46.757812 48.859375 47.023438 48.71875 C 47.28125 48.621094 48.378906 48.097656 48.332031 46.3125 C 48.296875 45.050781 47.53125 44.523438 47.078125 44.320312 C 46.769531 44.183594 46.40625 44.183594 46.085938 44.320312 C 43.53125 45.414062 40.136719 45.125 39.15625 45.007812 C 38.816406 44.96875 38.472656 45.066406 38.214844 45.28125 C 37.253906 46.074219 37.054688 47.304688 37.671875 48.65625 C 37.851562 49.046875 38.210938 49.316406 38.636719 49.375 C 39.902344 49.558594 41.015625 49.628906 41.984375 49.628906 Z M 46.582031 45.054688 C 46.636719 45.054688 46.6875 45.0625 46.734375 45.085938 C 47.21875 45.300781 47.46875 45.71875 47.488281 46.335938 C 47.523438 47.683594 46.734375 47.933594 46.726562 47.933594 C 46.695312 47.945312 46.667969 47.957031 46.636719 47.972656 C 46.617188 47.984375 44.144531 49.324219 38.757812 48.542969 C 38.621094 48.527344 38.5 48.4375 38.441406 48.308594 C 38.121094 47.605469 37.914062 46.621094 38.753906 45.925781 C 38.835938 45.859375 38.945312 45.828125 39.058594 45.839844 C 40.089844 45.964844 43.675781 46.265625 46.417969 45.089844 C 46.472656 45.066406 46.527344 45.054688 46.582031 45.054688 Z M 46.582031 45.054688 " fill-opacity="1" fill-rule="nonzero"/><path fill="#ffffff" d="M 40.609375 32.414062 L 42 34.753906 L 45.550781 40.734375 L 45.660156 40.921875 C 45.816406 40.804688 45.96875 40.683594 46.121094 40.5625 C 52.90625 35.265625 58.976562 28.464844 59.738281 28.082031 C 61.96875 26.957031 63.792969 24.914062 63.941406 23.660156 C 64.21875 21.300781 60.992188 17.648438 60.464844 17.070312 C 60.417969 17.015625 60.394531 16.988281 60.394531 16.988281 C 60.394531 16.988281 63.191406 13.09375 61.355469 11.820312 C 59.476562 10.515625 54.996094 16.789062 54.691406 17.160156 C 54.121094 17.863281 52.722656 14.578125 50.773438 14.78125 C 48.445312 15.027344 51.496094 20.003906 51.320312 20.542969 C 51.117188 21.171875 49.492188 23.363281 46.660156 26.417969 C 46.394531 26.703125 46.121094 26.996094 45.835938 27.296875 C 44.359375 28.84375 42.613281 30.574219 40.609375 32.414062 Z M 40.609375 32.414062 " fill-opacity="1" fill-rule="nonzero"/><g clip-path="url(#48b717f115)"><g mask="url(#666cc36106)"><g transform="matrix(1, 0, 0, 1, 45, 17)"><g clip-path="url(#296c55d40f)"><g clip-path="url(#d6a33c714d)"><path fill="#371a45" d="M 0.550781 23.734375 L 0.660156 23.921875 C 0.816406 23.804688 0.96875 23.683594 1.121094 23.5625 C 7.90625 18.265625 13.976562 11.464844 14.738281 11.082031 C 16.96875 9.957031 18.792969 7.914062 18.941406 6.660156 C 19.21875 4.300781 15.992188 0.648438 15.464844 0.0703125 C 13.796875 1.40625 9.875 4.5 9.875 4.5 C 9.875 4.5 9.910156 15.34375 0.550781 23.734375 Z M 0.550781 23.734375 " fill-opacity="1" fill-rule="nonzero"/></g></g></g></g></g><g clip-path="url(#227527f687)"><path fill="#371a45" d="M 45.660156 41.363281 C 45.757812 41.363281 45.851562 41.332031 45.933594 41.269531 C 50.636719 37.660156 55.042969 33.269531 57.671875 30.644531 C 58.726562 29.59375 59.726562 28.597656 59.941406 28.476562 C 62.214844 27.328125 64.210938 25.191406 64.382812 23.710938 C 64.664062 21.332031 61.820312 17.921875 60.957031 16.949219 C 61.449219 16.195312 62.644531 14.179688 62.390625 12.703125 C 62.296875 12.171875 62.035156 11.753906 61.609375 11.457031 C 60.210938 10.488281 57.882812 12.199219 54.492188 16.691406 C 54.472656 16.714844 54.457031 16.734375 54.441406 16.757812 C 54.285156 16.628906 54.039062 16.363281 53.851562 16.152344 C 53.097656 15.328125 52.0625 14.203125 50.726562 14.34375 C 50.128906 14.40625 49.820312 14.71875 49.671875 14.964844 C 49.109375 15.90625 49.695312 17.515625 50.460938 19.363281 C 50.632812 19.773438 50.839844 20.277344 50.878906 20.460938 C 50.503906 21.363281 46.890625 26.046875 40.3125 32.085938 C 40.132812 32.253906 40.117188 32.53125 40.289062 32.710938 C 40.453125 32.890625 40.734375 32.902344 40.917969 32.734375 C 47.484375 26.707031 51.398438 21.757812 51.746094 20.683594 C 51.839844 20.386719 51.703125 20.027344 51.285156 19.027344 C 50.855469 17.988281 50.054688 16.054688 50.4375 15.421875 C 50.480469 15.34375 50.570312 15.25 50.820312 15.222656 C 51.707031 15.132812 52.527344 16.027344 53.1875 16.75 C 53.703125 17.308594 54.078125 17.71875 54.523438 17.707031 C 54.722656 17.699219 54.90625 17.605469 55.039062 17.445312 C 55.066406 17.410156 55.125 17.335938 55.207031 17.222656 C 55.648438 16.640625 56.820312 15.089844 58.097656 13.820312 C 59.5 12.429688 60.597656 11.832031 61.101562 12.1875 C 61.328125 12.339844 61.460938 12.558594 61.511719 12.855469 C 61.722656 14.054688 60.515625 16.0625 60.03125 16.734375 C 59.910156 16.90625 59.921875 17.140625 60.066406 17.292969 C 61.101562 18.394531 63.726562 21.671875 63.5 23.609375 C 63.375 24.65625 61.71875 26.589844 59.535156 27.691406 C 59.230469 27.84375 58.585938 28.476562 57.039062 30.023438 C 54.425781 32.632812 50.046875 37 45.390625 40.574219 C 45.195312 40.722656 45.15625 41 45.308594 41.195312 C 45.398438 41.304688 45.527344 41.363281 45.660156 41.363281 Z M 45.660156 41.363281 " fill-opacity="1" fill-rule="nonzero"/></g><path fill="#ffffff" d="M 60.78125 27.46875 C 60.78125 27.46875 61.515625 27.023438 62.277344 26.300781 C 63.167969 25.457031 64.09375 24.234375 63.921875 22.890625 C 63.601562 20.402344 60.394531 16.988281 60.394531 16.988281 C 59.457031 16.898438 58.210938 17.570312 57.125 18.503906 C 55.863281 19.585938 54.832031 21.023438 54.769531 22.011719 C 54.695312 23.378906 57.453125 28.089844 60.78125 27.46875 Z M 60.78125 27.46875 " fill-opacity="1" fill-rule="nonzero"/><g mask="url(#c5dd50c06b)"><g transform="matrix(1, 0, 0, 1, 54, 18)"><g clip-path="url(#a95ca86b39)"><g clip-path="url(#27432016f5)"><path fill="#371a45" d="M 6.78125 9.46875 C 6.78125 9.46875 7.515625 9.023438 8.277344 8.300781 C 7.574219 8.15625 6.632812 7.730469 5.605469 6.609375 C 3.484375 4.296875 2.476562 2.570312 3.125 0.503906 C 1.863281 1.585938 0.832031 3.019531 0.769531 4.007812 C 0.695312 5.378906 3.453125 10.089844 6.78125 9.46875 Z M 6.78125 9.46875 " fill-opacity="1" fill-rule="nonzero"/></g></g></g></g><g clip-path="url(#69b6256d7a)"><path fill="#371a45" d="M 60.621094 27.058594 C 60.566406 27.058594 60.515625 27.0625 60.460938 27.066406 C 60.441406 27.074219 60.398438 27.074219 60.359375 27.074219 L 60.246094 27.078125 C 60.167969 27.085938 60.09375 27.078125 60.019531 27.074219 L 59.902344 27.070312 L 59.789062 27.054688 C 59.488281 27.011719 59.1875 26.925781 58.894531 26.800781 C 58.3125 26.542969 57.777344 26.152344 57.300781 25.6875 C 56.828125 25.226562 56.410156 24.699219 56.054688 24.128906 C 55.875 23.847656 55.714844 23.554688 55.578125 23.257812 C 55.4375 22.960938 55.320312 22.648438 55.253906 22.359375 L 55.238281 22.253906 C 55.230469 22.21875 55.230469 22.191406 55.222656 22.15625 C 55.21875 22.121094 55.222656 22.097656 55.21875 22.070312 C 55.21875 22.046875 55.222656 22.011719 55.226562 21.980469 C 55.238281 21.851562 55.277344 21.710938 55.324219 21.566406 C 55.425781 21.28125 55.578125 20.996094 55.753906 20.722656 C 56.109375 20.171875 56.554688 19.65625 57.039062 19.191406 C 57.523438 18.726562 58.058594 18.304688 58.625 17.972656 C 58.910156 17.808594 59.203125 17.664062 59.5 17.5625 C 59.796875 17.464844 60.09375 17.414062 60.355469 17.433594 L 60.070312 17.292969 C 60.414062 17.667969 60.757812 18.078125 61.082031 18.484375 C 61.410156 18.894531 61.71875 19.316406 62.011719 19.742188 C 62.300781 20.175781 62.574219 20.613281 62.8125 21.066406 C 62.875 21.179688 62.921875 21.292969 62.980469 21.410156 L 63.0625 21.582031 C 63.089844 21.640625 63.109375 21.695312 63.136719 21.757812 C 63.179688 21.875 63.230469 21.988281 63.273438 22.105469 L 63.382812 22.453125 C 63.402344 22.511719 63.414062 22.570312 63.421875 22.628906 L 63.457031 22.804688 C 63.464844 22.859375 63.480469 22.921875 63.488281 22.976562 L 63.5 23.140625 C 63.507812 23.359375 63.480469 23.585938 63.425781 23.808594 C 63.3125 24.25 63.082031 24.679688 62.789062 25.074219 C 62.5 25.472656 62.148438 25.839844 61.769531 26.179688 C 61.578125 26.351562 61.378906 26.511719 61.175781 26.664062 C 61.074219 26.742188 60.972656 26.820312 60.867188 26.890625 L 60.710938 27 L 60.632812 27.050781 L 60.574219 27.085938 L 60.566406 27.09375 C 60.570312 27.082031 60.601562 27.066406 60.621094 27.058594 Z M 60.941406 27.882812 C 60.96875 27.871094 61.007812 27.851562 61.027344 27.839844 L 61.039062 27.835938 L 61.0625 27.820312 L 61.109375 27.792969 L 61.199219 27.734375 L 61.371094 27.613281 C 61.488281 27.535156 61.597656 27.453125 61.710938 27.367188 C 61.933594 27.199219 62.148438 27.023438 62.355469 26.835938 C 62.773438 26.464844 63.164062 26.058594 63.503906 25.59375 C 63.839844 25.136719 64.132812 24.613281 64.28125 24.023438 C 64.359375 23.726562 64.394531 23.417969 64.386719 23.109375 L 64.367188 22.875 C 64.359375 22.796875 64.339844 22.730469 64.328125 22.65625 L 64.285156 22.4375 C 64.269531 22.363281 64.257812 22.289062 64.234375 22.222656 C 63.917969 21.109375 63.351562 20.15625 62.746094 19.246094 C 62.128906 18.34375 61.460938 17.5 60.71875 16.6875 C 60.644531 16.605469 60.539062 16.558594 60.4375 16.550781 C 59.992188 16.515625 59.582031 16.601562 59.210938 16.726562 C 58.839844 16.851562 58.5 17.023438 58.175781 17.210938 C 57.527344 17.589844 56.949219 18.046875 56.421875 18.554688 C 55.890625 19.0625 55.40625 19.617188 55.003906 20.246094 C 54.800781 20.5625 54.621094 20.898438 54.484375 21.277344 C 54.417969 21.46875 54.363281 21.664062 54.34375 21.886719 C 54.328125 21.988281 54.328125 22.125 54.335938 22.234375 C 54.34375 22.285156 54.347656 22.34375 54.355469 22.394531 L 54.386719 22.550781 C 54.472656 22.945312 54.613281 23.292969 54.769531 23.632812 C 54.925781 23.96875 55.105469 24.292969 55.300781 24.605469 C 55.691406 25.226562 56.148438 25.804688 56.679688 26.328125 C 57.210938 26.847656 57.828125 27.304688 58.539062 27.617188 C 58.894531 27.773438 59.273438 27.882812 59.671875 27.9375 L 59.816406 27.957031 L 59.96875 27.964844 C 60.066406 27.96875 60.167969 27.976562 60.265625 27.96875 L 60.414062 27.960938 C 60.464844 27.957031 60.511719 27.957031 60.578125 27.949219 C 60.699219 27.929688 60.824219 27.910156 60.941406 27.882812 Z M 60.941406 27.882812 " fill-opacity="1" fill-rule="nonzero"/></g><path fill="#371a45" d="M 53.628906 34.429688 C 53.792969 34.429688 53.949219 34.339844 54.027344 34.183594 C 54.136719 33.96875 54.046875 33.699219 53.828125 33.589844 C 53.777344 33.566406 48.652344 30.992188 46.902344 26.539062 C 46.8125 26.3125 46.554688 26.199219 46.324219 26.289062 C 46.097656 26.375 45.984375 26.632812 46.070312 26.859375 C 47.949219 31.632812 53.210938 34.273438 53.433594 34.382812 C 53.492188 34.417969 53.5625 34.429688 53.628906 34.429688 Z M 53.628906 34.429688 " fill-opacity="1" fill-rule="nonzero"/><path fill="#ffffff" d="M 48.1875 18.144531 L 47.40625 18.441406 C 47.265625 18.492188 47.109375 18.421875 47.054688 18.285156 L 43.480469 8.933594 C 43.425781 8.792969 43.496094 8.636719 43.636719 8.585938 L 44.417969 8.289062 C 45.890625 7.734375 47.539062 8.46875 48.097656 9.933594 L 49.84375 14.492188 C 50.402344 15.953125 49.660156 17.59375 48.1875 18.144531 Z M 48.1875 18.144531 " fill-opacity="1" fill-rule="nonzero"/><path fill="#371a45" d="M 47.308594 18.542969 C 47.351562 18.542969 47.394531 18.535156 47.433594 18.515625 L 48.214844 18.222656 C 49.726562 17.652344 50.492188 15.964844 49.917969 14.464844 L 48.175781 9.902344 C 47.898438 9.175781 47.351562 8.597656 46.632812 8.28125 C 45.917969 7.960938 45.121094 7.9375 44.390625 8.214844 L 43.609375 8.507812 C 43.519531 8.542969 43.449219 8.605469 43.410156 8.691406 C 43.371094 8.777344 43.367188 8.875 43.402344 8.960938 L 46.976562 18.3125 C 47.011719 18.402344 47.078125 18.472656 47.164062 18.511719 C 47.210938 18.53125 47.261719 18.542969 47.308594 18.542969 Z M 48.15625 18.070312 L 47.375 18.367188 C 47.277344 18.402344 47.167969 18.355469 47.128906 18.257812 L 43.554688 8.902344 C 43.519531 8.804688 43.566406 8.695312 43.664062 8.660156 L 44.445312 8.363281 C 45.875 7.824219 47.476562 8.542969 48.019531 9.957031 L 49.761719 14.519531 C 50.308594 15.941406 49.585938 17.53125 48.15625 18.070312 Z M 48.15625 18.070312 " fill-opacity="1" fill-rule="nonzero"/><g mask="url(#59613dbbda)"><g transform="matrix(1, 0, 0, 1, 45, 12)"><g clip-path="url(#7a9aede271)"><g clip-path="url(#e52d4da2a7)"><path fill="#371a45" d="M 4.007812 0.308594 L 4.574219 1.785156 C 5.28125 3.640625 4.339844 5.710938 2.476562 6.417969 C 2.296875 6.484375 2.097656 6.394531 2.03125 6.21875 L 1.09375 3.769531 C 1.183594 3.863281 1.328125 3.894531 1.460938 3.847656 L 1.679688 3.761719 C 3.152344 3.207031 4.050781 1.796875 4.007812 0.308594 Z M 4.007812 0.308594 " fill-opacity="1" fill-rule="nonzero"/></g></g></g></g><path fill="#371a45" d="M 47.3125 18.914062 C 47.398438 18.914062 47.484375 18.898438 47.570312 18.863281 L 48.351562 18.570312 C 50.058594 17.925781 50.917969 16.023438 50.269531 14.332031 L 48.527344 9.773438 C 47.878906 8.078125 45.964844 7.222656 44.257812 7.867188 L 43.476562 8.160156 C 43.101562 8.300781 42.914062 8.722656 43.054688 9.09375 L 46.632812 18.449219 C 46.738281 18.734375 47.015625 18.914062 47.3125 18.914062 Z M 48.023438 17.722656 L 47.417969 17.953125 L 43.972656 8.945312 L 44.582031 8.714844 C 45.179688 8.488281 45.832031 8.507812 46.414062 8.769531 C 46.996094 9.03125 47.445312 9.5 47.671875 10.09375 L 49.414062 14.65625 C 49.882812 15.878906 49.257812 17.257812 48.023438 17.722656 Z M 48.023438 17.722656 " fill-opacity="1" fill-rule="nonzero"/><g clip-path="url(#ef032625c1)"><path fill="#ffffff" d="M 12.359375 20.378906 L 13.140625 20.082031 C 13.28125 20.03125 13.4375 20.101562 13.492188 20.238281 L 17.066406 29.59375 C 17.121094 29.730469 17.050781 29.886719 16.910156 29.9375 L 16.128906 30.234375 C 14.65625 30.789062 13.007812 30.054688 12.449219 28.589844 L 10.707031 24.03125 C 10.144531 22.570312 10.886719 20.933594 12.359375 20.378906 Z M 12.359375 20.378906 " fill-opacity="1" fill-rule="nonzero"/></g><g clip-path="url(#7eb5d375bb)"><path fill="#371a45" d="M 15.113281 30.5 C 15.464844 30.5 15.816406 30.4375 16.15625 30.308594 L 16.9375 30.015625 C 17.027344 29.980469 17.097656 29.917969 17.136719 29.832031 C 17.175781 29.746094 17.175781 29.648438 17.144531 29.5625 L 13.566406 20.210938 C 13.535156 20.121094 13.46875 20.050781 13.382812 20.015625 C 13.296875 19.976562 13.199219 19.972656 13.113281 20.007812 L 12.332031 20.300781 C 10.820312 20.871094 10.054688 22.558594 10.628906 24.058594 L 12.371094 28.621094 C 12.648438 29.347656 13.195312 29.925781 13.914062 30.242188 C 14.296875 30.414062 14.703125 30.5 15.113281 30.5 Z M 13.238281 20.148438 C 13.265625 20.148438 13.289062 20.152344 13.316406 20.164062 C 13.359375 20.1875 13.398438 20.222656 13.414062 20.269531 L 16.988281 29.625 C 17.007812 29.671875 17.007812 29.722656 16.984375 29.765625 C 16.964844 29.8125 16.925781 29.847656 16.878906 29.863281 L 16.097656 30.160156 C 15.40625 30.421875 14.652344 30.398438 13.976562 30.097656 C 13.304688 29.796875 12.785156 29.25 12.523438 28.566406 L 10.78125 24.003906 C 10.519531 23.316406 10.539062 22.570312 10.84375 21.902344 C 11.148438 21.230469 11.695312 20.71875 12.386719 20.457031 L 13.167969 20.164062 C 13.191406 20.148438 13.214844 20.148438 13.238281 20.148438 Z M 13.238281 20.148438 " fill-opacity="1" fill-rule="nonzero"/></g><g mask="url(#a5d46e9d1e)"><g transform="matrix(1, 0, 0, 1, 11, 26)"><g clip-path="url(#bb49890664)"><g clip-path="url(#c64bd227e7)"><path fill="#371a45" d="M 5.0625 0.96875 L 6.039062 3.523438 C 6.109375 3.703125 6.019531 3.898438 5.839844 3.96875 C 4.859375 4.335938 3.820312 4.253906 2.945312 3.828125 C 2.160156 3.4375 1.511719 2.765625 1.175781 1.882812 L 0.671875 0.558594 C 1.644531 1.523438 3.136719 1.886719 4.503906 1.371094 L 4.84375 1.246094 C 4.96875 1.195312 5.042969 1.085938 5.0625 0.96875 Z M 5.0625 0.96875 " fill-opacity="1" fill-rule="nonzero"/></g></g></g></g><g clip-path="url(#fdcf67d51a)"><path fill="#371a45" d="M 15.113281 30.875 C 15.511719 30.875 15.90625 30.804688 16.289062 30.660156 L 17.070312 30.367188 C 17.253906 30.296875 17.398438 30.160156 17.476562 29.984375 C 17.554688 29.808594 17.5625 29.609375 17.492188 29.429688 L 13.917969 20.078125 C 13.847656 19.898438 13.714844 19.753906 13.535156 19.675781 C 13.355469 19.597656 13.160156 19.589844 12.976562 19.660156 L 12.195312 19.953125 C 11.371094 20.265625 10.714844 20.878906 10.351562 21.679688 C 9.988281 22.476562 9.960938 23.371094 10.277344 24.191406 L 12.019531 28.75 C 12.332031 29.574219 12.949219 30.222656 13.757812 30.582031 C 14.191406 30.777344 14.652344 30.875 15.113281 30.875 Z M 16.574219 29.582031 L 15.964844 29.8125 C 15.367188 30.039062 14.714844 30.019531 14.132812 29.757812 C 13.550781 29.496094 13.101562 29.027344 12.875 28.429688 L 11.132812 23.871094 C 10.664062 22.644531 11.289062 21.269531 12.523438 20.800781 L 13.128906 20.570312 Z M 16.574219 29.582031 " fill-opacity="1" fill-rule="nonzero"/></g><g mask="url(#97572f4360)"><g transform="matrix(1, 0, 0, 1, 24, 22)"><g clip-path="url(#29a4e11b79)"><g clip-path="url(#f826655149)"><path fill="#371a45" d="M 0.5 15.191406 C 1.09375 15.492188 1.714844 15.753906 2.347656 15.976562 C 4.3125 16.667969 6.433594 16.96875 8.585938 16.816406 C 9.699219 16.734375 10.820312 16.535156 11.933594 16.203125 C 14.273438 15.503906 16.324219 14.304688 18.003906 12.753906 C 19.570312 11.304688 20.8125 9.554688 21.660156 7.621094 C 22.109375 6.597656 22.441406 5.527344 22.660156 4.425781 C 22.394531 4.707031 22.121094 5 21.835938 5.300781 C 21.878906 4.945312 21.925781 4.597656 21.984375 4.265625 C 22.1875 3.089844 21.824219 3.070312 21.75 1.878906 C 21.667969 0.703125 17.234375 0.648438 12.792969 1.351562 C 9.523438 2.039062 4.738281 2.652344 3.804688 5.300781 C 3.746094 5.882812 3.46875 6.636719 3.273438 7.171875 L 2.804688 11.742188 C 2.207031 12.605469 1.386719 13.816406 0.5 15.191406 Z M 0.5 15.191406 " fill-opacity="1" fill-rule="nonzero"/></g></g></g></g><path fill="#ffffff" d="M 13.359375 19.261719 C 13.359375 19.8125 13.386719 20.359375 13.441406 20.910156 C 13.496094 21.457031 13.574219 22 13.683594 22.539062 C 13.792969 23.078125 13.925781 23.613281 14.085938 24.140625 C 14.246094 24.664062 14.433594 25.183594 14.644531 25.691406 C 14.859375 26.199219 15.09375 26.695312 15.355469 27.179688 C 15.617188 27.667969 15.902344 28.136719 16.210938 28.59375 C 16.515625 29.054688 16.847656 29.496094 17.199219 29.917969 C 17.550781 30.34375 17.921875 30.753906 18.3125 31.140625 C 18.703125 31.53125 19.113281 31.898438 19.542969 32.25 C 19.972656 32.597656 20.414062 32.925781 20.875 33.230469 C 21.335938 33.535156 21.8125 33.820312 22.300781 34.078125 C 22.789062 34.335938 23.289062 34.574219 23.800781 34.785156 C 24.3125 34.992188 24.832031 35.179688 25.363281 35.339844 C 25.894531 35.5 26.429688 35.632812 26.972656 35.738281 C 27.519531 35.847656 28.066406 35.925781 28.617188 35.980469 C 29.167969 36.035156 29.71875 36.0625 30.273438 36.0625 C 30.828125 36.0625 31.382812 36.035156 31.933594 35.980469 C 32.484375 35.925781 33.03125 35.847656 33.574219 35.738281 C 34.117188 35.632812 34.65625 35.5 35.183594 35.339844 C 35.714844 35.179688 36.234375 34.992188 36.75 34.785156 C 37.261719 34.574219 37.761719 34.335938 38.25 34.078125 C 38.738281 33.820312 39.210938 33.535156 39.671875 33.230469 C 40.132812 32.925781 40.578125 32.597656 41.007812 32.25 C 41.433594 31.898438 41.84375 31.53125 42.234375 31.140625 C 42.628906 30.753906 43 30.34375 43.351562 29.917969 C 43.703125 29.496094 44.03125 29.054688 44.339844 28.59375 C 44.648438 28.136719 44.933594 27.667969 45.191406 27.179688 C 45.453125 26.695312 45.691406 26.199219 45.902344 25.691406 C 46.113281 25.183594 46.300781 24.664062 46.460938 24.140625 C 46.625 23.613281 46.757812 23.078125 46.867188 22.539062 C 46.972656 22 47.054688 21.457031 47.109375 20.910156 C 47.164062 20.359375 47.191406 19.8125 47.191406 19.261719 C 47.191406 18.710938 47.164062 18.164062 47.109375 17.613281 C 47.054688 17.066406 46.972656 16.523438 46.867188 15.984375 C 46.757812 15.445312 46.625 14.910156 46.460938 14.386719 C 46.300781 13.859375 46.113281 13.339844 45.902344 12.832031 C 45.691406 12.324219 45.453125 11.828125 45.191406 11.34375 C 44.933594 10.855469 44.648438 10.386719 44.339844 9.929688 C 44.03125 9.46875 43.703125 9.027344 43.351562 8.605469 C 43 8.179688 42.628906 7.769531 42.234375 7.382812 C 41.84375 6.992188 41.433594 6.625 41.007812 6.273438 C 40.578125 5.925781 40.132812 5.597656 39.671875 5.292969 C 39.210938 4.988281 38.738281 4.703125 38.25 4.445312 C 37.761719 4.1875 37.261719 3.949219 36.75 3.742188 C 36.234375 3.53125 35.714844 3.34375 35.183594 3.183594 C 34.65625 3.023438 34.117188 2.890625 33.574219 2.785156 C 33.03125 2.675781 32.484375 2.597656 31.933594 2.542969 C 31.382812 2.488281 30.828125 2.460938 30.273438 2.460938 C 29.71875 2.460938 29.167969 2.488281 28.617188 2.542969 C 28.066406 2.597656 27.519531 2.675781 26.972656 2.785156 C 26.429688 2.890625 25.894531 3.023438 25.363281 3.183594 C 24.832031 3.34375 24.3125 3.53125 23.800781 3.742188 C 23.289062 3.949219 22.789062 4.1875 22.300781 4.445312 C 21.8125 4.703125 21.335938 4.988281 20.875 5.292969 C 20.414062 5.597656 19.972656 5.925781 19.542969 6.273438 C 19.113281 6.625 18.703125 6.992188 18.3125 7.382812 C 17.921875 7.769531 17.550781 8.179688 17.199219 8.605469 C 16.847656 9.027344 16.515625 9.46875 16.210938 9.929688 C 15.902344 10.386719 15.617188 10.855469 15.355469 11.34375 C 15.09375 11.828125 14.859375 12.324219 14.644531 12.832031 C 14.433594 13.339844 14.246094 13.859375 14.085938 14.386719 C 13.925781 14.910156 13.792969 15.445312 13.683594 15.984375 C 13.574219 16.523438 13.496094 17.066406 13.441406 17.613281 C 13.386719 18.164062 13.359375 18.710938 13.359375 19.261719 Z M 13.359375 19.261719 " fill-opacity="1" fill-rule="nonzero"/><path fill="#371a45" d="M 30.285156 36.144531 C 31.898438 36.144531 33.542969 35.914062 35.167969 35.429688 C 39.515625 34.132812 43.09375 31.230469 45.246094 27.257812 C 47.394531 23.289062 47.859375 18.722656 46.554688 14.402344 C 45.246094 10.082031 42.324219 6.53125 38.328125 4.394531 C 34.328125 2.257812 29.730469 1.796875 25.382812 3.09375 C 16.40625 5.769531 11.296875 15.203125 13.992188 24.121094 C 16.203125 31.417969 22.972656 36.144531 30.285156 36.144531 Z M 30.296875 2.535156 C 33.042969 2.535156 35.761719 3.207031 38.25 4.539062 C 42.210938 6.65625 45.101562 10.175781 46.398438 14.449219 C 47.691406 18.726562 47.230469 23.25 45.101562 27.183594 C 42.96875 31.113281 39.425781 33.988281 35.117188 35.273438 C 33.511719 35.753906 31.882812 35.984375 30.285156 35.984375 C 23.042969 35.984375 16.339844 31.304688 14.152344 24.074219 C 11.480469 15.242188 16.542969 5.902344 25.429688 3.25 C 27.035156 2.769531 28.671875 2.535156 30.296875 2.535156 Z M 30.296875 2.535156 " fill-opacity="1" fill-rule="nonzero"/><g mask="url(#bcc9d1fc9e)"><g transform="matrix(1, 0, 0, 1, 13, 12)"><g clip-path="url(#e2f2d73be1)"><g clip-path="url(#e51e4f1b38)"><path fill="#371a45" d="M 32.648438 0.246094 C 32.96875 0.941406 33.246094 1.671875 33.476562 2.425781 C 36.164062 11.3125 31.089844 20.679688 22.140625 23.351562 C 13.195312 26.019531 3.761719 20.980469 1.074219 12.09375 C 0.996094 11.835938 0.925781 11.582031 0.863281 11.324219 C 4.324219 18.832031 12.914062 22.84375 21.101562 20.402344 C 29.789062 17.808594 34.824219 8.898438 32.648438 0.246094 Z M 32.648438 0.246094 " fill-opacity="1" fill-rule="nonzero"/></g></g></g></g><path fill="#371a45" d="M 30.285156 36.515625 C 31.9375 36.515625 33.613281 36.28125 35.273438 35.785156 C 39.71875 34.460938 43.378906 31.496094 45.578125 27.4375 C 47.777344 23.378906 48.25 18.710938 46.914062 14.296875 C 44.160156 5.1875 34.453125 0 25.277344 2.738281 C 16.105469 5.472656 10.882812 15.113281 13.636719 24.226562 C 15.890625 31.6875 22.8125 36.515625 30.285156 36.515625 Z M 30.265625 2.910156 C 37.347656 2.910156 43.902344 7.488281 46.039062 14.554688 C 47.304688 18.738281 46.855469 23.160156 44.773438 27.003906 C 42.6875 30.847656 39.222656 33.65625 35.011719 34.914062 C 33.441406 35.382812 31.847656 35.605469 30.285156 35.605469 C 23.207031 35.605469 16.648438 31.03125 14.511719 23.960938 C 11.898438 15.328125 16.847656 6.195312 25.539062 3.605469 C 27.113281 3.136719 28.703125 2.910156 30.265625 2.910156 Z M 30.265625 2.910156 " fill-opacity="1" fill-rule="nonzero"/><path fill="#371a45" d="M 46.550781 14.855469 C 47.550781 17.992188 47.453125 21.222656 46.46875 24.179688 C 45.730469 26.398438 41.339844 31.257812 34.695312 33.414062 C 28.527344 35.414062 21.859375 33.910156 19.972656 32.519531 C 17.453125 30.664062 15.5 28.078125 14.5 24.945312 C 11.851562 16.652344 17.929688 10.957031 26.78125 8.167969 C 35.632812 5.378906 43.902344 6.5625 46.550781 14.855469 Z M 46.550781 14.855469 " fill-opacity="1" fill-rule="nonzero"/><path fill="#371a45" d="M 28.277344 34.847656 C 30.367188 34.847656 32.621094 34.566406 34.835938 33.847656 C 41.890625 31.558594 46.175781 26.515625 46.902344 24.324219 C 47.953125 21.164062 47.980469 17.84375 46.984375 14.71875 C 45.6875 10.644531 43.039062 8.023438 39.117188 6.921875 C 35.695312 5.960938 31.382812 6.242188 26.640625 7.738281 C 21.898438 9.230469 18.210938 11.46875 15.972656 14.207031 C 13.40625 17.347656 12.761719 21.011719 14.0625 25.082031 C 15.0625 28.207031 17.007812 30.90625 19.699219 32.886719 C 21 33.84375 24.335938 34.847656 28.277344 34.847656 Z M 34.753906 7.269531 C 36.238281 7.269531 37.617188 7.445312 38.867188 7.792969 C 42.476562 8.808594 44.914062 11.226562 46.117188 14.992188 C 47.054688 17.933594 47.027344 21.0625 46.039062 24.039062 C 45.382812 26.015625 41.214844 30.824219 34.554688 32.984375 C 28.546875 34.9375 22.046875 33.484375 20.246094 32.160156 C 17.710938 30.292969 15.875 27.75 14.9375 24.808594 C 11.683594 14.613281 22.234375 10.078125 26.921875 8.605469 C 29.730469 7.71875 32.378906 7.269531 34.753906 7.269531 Z M 46.550781 14.855469 Z M 46.550781 14.855469 " fill-opacity="1" fill-rule="nonzero"/><g mask="url(#eb5510f4ab)"><g transform="matrix(1, 0, 0, 1, 38, 12)"><g clip-path="url(#f02c430cfc)"><g clip-path="url(#dc3b5858d1)"><path fill="#ffffff" d="M 2.601562 0.417969 C 2.316406 0.453125 2.050781 0.5625 1.804688 0.746094 C 1.5625 0.929688 1.355469 1.171875 1.191406 1.476562 C 1.023438 1.777344 0.910156 2.117188 0.847656 2.492188 C 0.785156 2.867188 0.777344 3.25 0.828125 3.640625 C 0.878906 4.035156 0.984375 4.402344 1.140625 4.75 C 1.292969 5.097656 1.492188 5.398438 1.730469 5.648438 C 1.964844 5.898438 2.226562 6.082031 2.511719 6.199219 C 2.792969 6.3125 3.078125 6.355469 3.363281 6.316406 C 3.648438 6.28125 3.914062 6.171875 4.15625 5.988281 C 4.402344 5.804688 4.605469 5.5625 4.773438 5.257812 C 4.9375 4.957031 5.054688 4.617188 5.117188 4.242188 C 5.179688 3.867188 5.183594 3.484375 5.132812 3.09375 C 5.082031 2.703125 4.980469 2.332031 4.824219 1.984375 C 4.667969 1.636719 4.472656 1.339844 4.234375 1.089844 C 3.996094 0.835938 3.734375 0.652344 3.453125 0.539062 C 3.167969 0.421875 2.886719 0.382812 2.601562 0.417969 Z M 2.601562 0.417969 " fill-opacity="1" fill-rule="nonzero"/></g></g></g></g><g mask="url(#9d3410c0e9)"><g transform="matrix(1, 0, 0, 1, 38, 20)"><g clip-path="url(#b9ff796ff8)"><g clip-path="url(#17cf627af1)"><path fill="#ffffff" d="M 1.0625 1.765625 C 1.0625 1.949219 1.089844 2.121094 1.148438 2.289062 C 1.207031 2.457031 1.289062 2.605469 1.398438 2.734375 C 1.507812 2.867188 1.632812 2.964844 1.777344 3.035156 C 1.921875 3.105469 2.070312 3.144531 2.226562 3.144531 C 2.382812 3.148438 2.535156 3.113281 2.679688 3.046875 C 2.824219 2.976562 2.953125 2.882812 3.066406 2.753906 C 3.179688 2.628906 3.265625 2.480469 3.328125 2.3125 C 3.386719 2.148438 3.417969 1.972656 3.421875 1.792969 C 3.421875 1.613281 3.394531 1.4375 3.335938 1.269531 C 3.28125 1.101562 3.195312 0.953125 3.085938 0.824219 C 2.976562 0.695312 2.851562 0.59375 2.707031 0.523438 C 2.5625 0.453125 2.414062 0.417969 2.257812 0.414062 C 2.101562 0.414062 1.949219 0.445312 1.804688 0.515625 C 1.660156 0.582031 1.53125 0.679688 1.421875 0.804688 C 1.308594 0.933594 1.222656 1.078125 1.160156 1.246094 C 1.097656 1.414062 1.066406 1.585938 1.0625 1.765625 Z M 1.0625 1.765625 " fill-opacity="1" fill-rule="nonzero"/></g></g></g></g><g mask="url(#7c0135d5c2)"><g transform="matrix(1, 0, 0, 1, 27, 7)"><g clip-path="url(#8b1bd0853c)"><g clip-path="url(#f113a13baf)"><path fill="#111a28" d="M 13.960938 1.101562 C 16.515625 2.339844 18.484375 4.523438 19.550781 7.855469 C 20.550781 10.992188 20.453125 14.222656 19.46875 17.179688 C 18.730469 19.398438 14.339844 24.257812 7.691406 26.417969 C 5.34375 27.175781 2.925781 27.429688 0.722656 27.375 C 8.835938 24.550781 14.175781 18.601562 15.089844 15.851562 C 16.335938 12.097656 16.457031 7.992188 15.191406 4.015625 C 14.855469 2.953125 14.441406 1.984375 13.960938 1.101562 Z M 13.960938 1.101562 " fill-opacity="1" fill-rule="nonzero"/></g></g></g></g><path fill="#371a45" d="M 13.449219 17.945312 C 13.628906 17.945312 13.796875 17.84375 13.871094 17.667969 C 13.871094 17.667969 13.875 17.660156 13.875 17.65625 L 13.886719 17.621094 C 15.308594 12.882812 19.832031 9 26.296875 6.964844 C 32.722656 4.941406 38.65625 5.460938 42.574219 8.382812 L 42.625 8.417969 L 42.683594 8.441406 C 42.914062 8.53125 43.179688 8.417969 43.273438 8.1875 C 43.355469 7.984375 43.28125 7.757812 43.101562 7.640625 C 38.945312 4.550781 32.722656 3.992188 26.019531 6.101562 C 19.265625 8.226562 14.523438 12.332031 13.011719 17.359375 C 12.941406 17.582031 13.054688 17.828125 13.277344 17.917969 C 13.335938 17.933594 13.390625 17.945312 13.449219 17.945312 Z M 13.449219 17.945312 " fill-opacity="1" fill-rule="nonzero"/><g mask="url(#faa935dd6c)"><g transform="matrix(1, 0, 0, 1, 16, 10)"><g clip-path="url(#055530ce13)"><g clip-path="url(#0479133cc5)"><path fill="#ffffff" d="M 3.671875 18.746094 C 3.671875 18.746094 -1.523438 11.378906 1.875 6.722656 C 5.273438 2.0625 11.664062 0.0664062 11.648438 0.519531 C 11.648438 0.519531 5.117188 4.445312 4.121094 10.867188 C 3.355469 15.824219 3.671875 18.746094 3.671875 18.746094 Z M 3.671875 18.746094 " fill-opacity="1" fill-rule="nonzero"/></g></g></g></g></svg>